<svg width="32" height="32" viewBox="0 0 32 32" fill="none" xmlns="http://www.w3.org/2000/svg">
<mask id="mask0_6_1912" style="mask-type:luminance" maskUnits="userSpaceOnUse" x="0" y="0" width="32" height="32">
<path d="M0 1.90735e-06H32V32H0V1.90735e-06Z" fill="white"/>
</mask>
<g mask="url(#mask0_6_1912)">
<path d="M8.46875 17.7437C8.46875 16.5553 9.43213 15.5919 10.6206 15.5919C11.8089 15.5919 12.7723 16.5553 12.7723 17.7437" stroke="#0C4EA2" stroke-width="1.875" stroke-miterlimit="10"/>
<path d="M19.228 17.7439C19.228 16.5555 20.1914 15.5921 21.3798 15.5921C22.5682 15.5921 23.5316 16.5555 23.5316 17.7439" stroke="#0C4EA2" stroke-width="1.875" stroke-miterlimit="10"/>
<path d="M12.2915 22.0471C13.0401 23.3157 14.4201 24.1672 15.9997 24.1672C17.5793 24.1672 18.9593 23.3157 19.7079 22.0471" stroke="#0C4EA2" stroke-width="1.875" stroke-miterlimit="10"/>
<path d="M31.0625 17.3687C31.0625 19.13 29.6519 20.5619 27.8981 20.595C26.4806 25.8369 21.6906 29.6937 16 29.6937C10.3094 29.6937 5.51938 25.8369 4.10188 20.595C2.34813 20.5619 0.9375 19.13 0.9375 17.3687C0.9375 16.4775 1.29875 15.6706 1.8825 15.0862C2.45312 14.5162 3.23563 14.1587 4.10188 14.1425C5.51938 8.9006 10.3094 5.04373 16 5.04373C21.6906 5.04373 26.4806 8.9006 27.8981 14.1425C28.7644 14.1587 29.5469 14.5162 30.1175 15.0862C30.7012 15.6706 31.0625 16.4775 31.0625 17.3687Z" stroke="#0C4EA2" stroke-width="1.875" stroke-miterlimit="10"/>
<path d="M11.9897 9.0545C11.9897 11.2696 13.7853 13.0652 16.0003 13.0652C18.2154 13.0652 20.0111 11.2696 20.0111 9.0545C20.0111 6.83944 18.2154 5.04381 16.0003 5.04381H15.3718C13.3422 5.04381 11.6968 3.39844 11.6968 1.36875" stroke="#0C4EA2" stroke-width="1.875" stroke-miterlimit="10"/>
<path d="M16.0002 5.0437H11.0681C9.03838 5.0437 7.39307 3.39833 7.39307 1.3687" stroke="#0C4EA2" stroke-width="1.875" stroke-miterlimit="10"/>
</g>
</svg>
