<svg width="56" height="56" viewBox="0 0 56 56" fill="none" color="currentColor" xmlns="http://www.w3.org/2000/svg">
<path d="M30.3333 49H25.6667M25.6667 49H16.3333M25.6667 49V42C25.6667 39.4227 23.5773 37.3333 21 37.3333C18.4227 37.3333 16.3333 39.4227 16.3333 42V49M16.3333 49H7V10.7333C7 9.42654 7 8.77315 7.25432 8.27402C7.47802 7.83498 7.83498 7.47802 8.27402 7.25432C8.77315 7 9.42654 7 10.7333 7H31.2667C32.5735 7 33.2269 7 33.726 7.25432C34.165 7.47802 34.522 7.83498 34.7457 8.27402C35 8.77315 35 9.42654 35 10.7333V30.3333M14 16.3333H16.3333M14 23.3333H16.3333M25.6667 23.3333H28M25.6667 30.3333H28M14 30.3333H16.3333M25.6667 16.3333H28M42 49L49 42M49 42L42 35M49 42H35" stroke="currentColor" stroke-width="4.66667" stroke-linecap="round" stroke-linejoin="round"/>
</svg>
