<svg width="32" height="32" viewBox="0 0 32 32" fill="none" xmlns="http://www.w3.org/2000/svg">
<path d="M4 10.6667L7.62915 13.691C7.86877 13.8906 8.17082 14 8.48273 14H23.5173C23.8292 14 24.1312 13.8906 24.3708 13.691L28 10.6667M8.66667 18.6667H8.68M23.3333 18.6667H23.3467M10.8809 6H21.1191C22.0761 6 22.9597 6.51276 23.4345 7.34363L27.2973 14.1036C27.7578 14.9095 28 15.8215 28 16.7497V24.6667C28 25.403 27.403 26 26.6667 26H25.3333C24.597 26 24 25.403 24 24.6667V23.3333H8V24.6667C8 25.403 7.40305 26 6.66667 26H5.33333C4.59695 26 4 25.403 4 24.6667V16.7497C4 15.8215 4.24221 14.9095 4.7027 14.1036L8.56554 7.34363C9.04033 6.51276 9.92391 6 10.8809 6ZM9.33333 18.6667C9.33333 19.0349 9.03486 19.3333 8.66667 19.3333C8.29848 19.3333 8 19.0349 8 18.6667C8 18.2985 8.29848 18 8.66667 18C9.03486 18 9.33333 18.2985 9.33333 18.6667ZM24 18.6667C24 19.0349 23.7015 19.3333 23.3333 19.3333C22.9651 19.3333 22.6667 19.0349 22.6667 18.6667C22.6667 18.2985 22.9651 18 23.3333 18C23.7015 18 24 18.2985 24 18.6667Z" stroke="#0C4EA2" stroke-width="2.66667" stroke-linecap="round" stroke-linejoin="round"/>
</svg>
