<svg width="56" height="56" viewBox="0 0 56 56" fill="none" color="currentColor" xmlns="http://www.w3.org/2000/svg">
<path d="M15.1663 21V25.9C15.1663 31.1272 15.1663 33.7408 16.1836 35.7373C17.0784 37.4935 18.5063 38.9213 20.2624 39.8161C22.2589 40.8334 24.8725 40.8334 30.0997 40.8334H34.9997M13.0663 21H17.2663C18.5731 21 19.2265 21 19.7257 20.7457C20.1647 20.522 20.5217 20.1651 20.7454 19.726C20.9997 19.2269 20.9997 18.5735 20.9997 17.2667V13.0667C20.9997 11.7599 20.9997 11.1065 20.7454 10.6074C20.5217 10.1684 20.1647 9.8114 19.7257 9.58769C19.2265 9.33337 18.5731 9.33337 17.2663 9.33337H13.0663C11.7596 9.33337 11.1062 9.33337 10.607 9.58769C10.168 9.8114 9.81103 10.1684 9.58733 10.6074C9.33301 11.1065 9.33301 11.7599 9.33301 13.0667V17.2667C9.33301 18.5735 9.33301 19.2269 9.58733 19.726C9.81103 20.1651 10.168 20.522 10.607 20.7457C11.1062 21 11.7596 21 13.0663 21ZM38.733 46.6667H42.933C44.2398 46.6667 44.8932 46.6667 45.3923 46.4124C45.8314 46.1887 46.1883 45.8317 46.412 45.3927C46.6663 44.8936 46.6663 44.2402 46.6663 42.9334V38.7334C46.6663 37.4266 46.6663 36.7732 46.412 36.2741C46.1883 35.835 45.8314 35.4781 45.3923 35.2544C44.8932 35 44.2398 35 42.933 35H38.733C37.4262 35 36.7728 35 36.2737 35.2544C35.8347 35.4781 35.4777 35.835 35.254 36.2741C34.9997 36.7732 34.9997 37.4266 34.9997 38.7334V42.9334C34.9997 44.2402 34.9997 44.8936 35.254 45.3927C35.4777 45.8317 35.8347 46.1887 36.2737 46.4124C36.7728 46.6667 37.4262 46.6667 38.733 46.6667Z" stroke="currentColor" stroke-width="4.66667" stroke-linecap="round" stroke-linejoin="round"/>
</svg>
