<svg width="56" height="70" viewBox="0 0 56 70" fill="none" color="currentColor" xmlns="http://www.w3.org/2000/svg">
<g clip-path="url(#clip0_6_2001)">
<path d="M27.9999 69.8481C28.539 69.8481 29.4151 69.6459 30.2575 69.1742C49.4296 58.4259 56 53.877 56 41.5788V15.8026C56 12.2647 54.4836 11.1528 51.6195 9.93979C47.6437 8.28875 34.8062 3.67264 30.8303 2.29118C29.9205 1.98793 28.9434 1.78577 27.9999 1.78577C27.0565 1.78577 26.0794 2.05532 25.2033 2.29118C21.2274 3.43679 8.3562 8.32246 4.38025 9.93979C1.54994 11.1191 0 12.2647 0 15.8026V41.5788C0 53.877 6.60407 58.3921 25.7424 69.1742C26.6185 69.6459 27.4608 69.8481 27.9999 69.8481ZM27.9999 63.7497C27.4608 63.7497 26.9217 63.5475 25.9109 62.9409C10.3442 53.5064 5.35738 50.7434 5.35738 40.3322V16.8471C5.35738 15.7015 5.55956 15.2635 6.50301 14.8929C11.6245 12.8712 21.5643 9.53545 26.6522 7.51378C27.1913 7.27795 27.6293 7.21053 27.9999 7.21053C28.3706 7.21053 28.8086 7.31163 29.3477 7.51378C34.4356 9.53545 44.308 13.1071 49.5307 14.8929C50.4402 15.2298 50.6424 15.7015 50.6424 16.8471V40.3322C50.6424 50.7434 45.6557 53.4726 30.089 62.9409C29.1119 63.5475 28.539 63.7497 27.9999 63.7497ZM15.8363 47.4753C15.8363 50.0023 16.9482 51.1816 19.2731 51.1816H36.7267C39.0518 51.1816 40.1635 50.0023 40.1635 47.4753V34.0649C40.1635 31.7063 39.1864 30.527 37.1983 30.3922V26.4163C37.1983 20.2166 33.4921 16.0721 27.9999 16.0721C22.5078 16.0721 18.8014 20.2166 18.8014 26.4163V30.3922C16.8135 30.527 15.8363 31.7063 15.8363 34.0649V47.4753ZM22.3056 30.3585V26.0457C22.3056 22.0697 24.5968 19.4753 27.9999 19.4753C31.4031 19.4753 33.6943 22.0697 33.6943 26.0457V30.3585H22.3056Z" fill="currentColor"/>
</g>
<defs>
<clipPath id="clip0_6_2001">
<rect width="56" height="69.8481" fill="white"/>
</clipPath>
</defs>
</svg>
