<svg width="32" height="32" viewBox="0 0 32 32" fill="none" xmlns="http://www.w3.org/2000/svg">
<path d="M25.3333 21.3333V23.9999M25.3333 27.9999H25.3467M16 15.9999V21.3333M18.6667 18.6666H13.3333M6.66667 13.0365V21.5999C6.66667 23.8402 6.66667 24.9603 7.10264 25.8159C7.48613 26.5686 8.09806 27.1805 8.8507 27.564C9.70635 27.9999 10.8265 27.9999 13.0667 27.9999H18.6667M28 15.9999L20.7557 7.95191C19.1081 6.12155 18.2843 5.20637 17.3142 4.86851C16.4621 4.57176 15.5347 4.57183 14.6826 4.86871C13.7125 5.20671 12.8888 6.12201 11.2415 7.95261L4 15.9999" stroke="#1446A7" stroke-width="2.66667" stroke-linecap="round" stroke-linejoin="round"/>
</svg>
