<svg width="56" height="56" viewBox="0 0 56 56" fill="none" color="currentColor" xmlns="http://www.w3.org/2000/svg">
<path d="M35 37.3333C34.3382 34.6707 31.4557 32.6667 28 32.6667C24.5443 32.6667 21.6618 34.6707 21 37.3333M25.6667 7H30.3333M28 23.3333H28.0233M18.6667 11.6667H14.4667C11.8531 11.6667 10.5463 11.6667 9.54804 12.1753C8.66996 12.6227 7.95605 13.3366 7.50864 14.2147C7 15.213 7 16.5198 7 19.1333V39.2C7 41.8136 7 43.1204 7.50864 44.1186C7.95605 44.9967 8.66996 45.7106 9.54804 46.158C10.5463 46.6667 11.8531 46.6667 14.4667 46.6667H41.5333C44.1469 46.6667 45.4537 46.6667 46.452 46.158C47.33 45.7106 48.044 44.9967 48.4914 44.1186C49 43.1204 49 41.8136 49 39.2V19.1333C49 16.5198 49 15.213 48.4914 14.2147C48.044 13.3366 47.33 12.6227 46.452 12.1753C45.4537 11.6667 44.1469 11.6667 41.5333 11.6667H37.3333M30.3333 23.3333C30.3333 24.622 29.2887 25.6667 28 25.6667C26.7113 25.6667 25.6667 24.622 25.6667 23.3333C25.6667 22.0447 26.7113 21 28 21C29.2887 21 30.3333 22.0447 30.3333 23.3333Z" stroke="currentColor" stroke-width="4.66667" stroke-linecap="round" stroke-linejoin="round"/>
</svg>
