<svg width="23" height="22" viewBox="0 0 23 22" fill="none" color="currentColor" xmlns="http://www.w3.org/2000/svg">
<path d="M2.33398 6.41666L9.81849 11.6558C10.4246 12.0801 10.7276 12.2922 11.0572 12.3744C11.3484 12.4469 11.6529 12.4469 11.9441 12.3744C12.2737 12.2922 12.5767 12.0801 13.1828 11.6558L20.6673 6.41666M6.73398 18.3333H16.2673C17.8075 18.3333 18.5775 18.3333 19.1658 18.0336C19.6832 17.7699 20.1039 17.3492 20.3676 16.8318C20.6673 16.2435 20.6673 15.4735 20.6673 13.9333V8.06666C20.6673 6.52651 20.6673 5.75644 20.3676 5.16818C20.1039 4.65074 19.6832 4.23004 19.1658 3.96639C18.5775 3.66666 17.8075 3.66666 16.2673 3.66666H6.73398C5.19384 3.66666 4.42377 3.66666 3.83551 3.96639C3.31806 4.23004 2.89737 4.65074 2.63372 5.16818C2.33398 5.75644 2.33398 6.52651 2.33398 8.06666V13.9333C2.33398 15.4735 2.33398 16.2435 2.63372 16.8318C2.89737 17.3492 3.31806 17.7699 3.83551 18.0336C4.42377 18.3333 5.19384 18.3333 6.73398 18.3333Z" stroke="currentColor" stroke-width="1.83333" stroke-linecap="round" stroke-linejoin="round"/>
</svg>
