<svg width="57" height="53" viewBox="0 0 57 53" fill="none" xmlns="http://www.w3.org/2000/svg">
<g clip-path="url(#clip0_9_1619)">
<path d="M0 45.5133C0 50.4301 2.44615 52.9752 7.462 52.9752H48.4288C53.6176 52.9752 56.1872 50.4301 56.1872 45.3402V7.65965C56.1872 2.56968 53.6176 0 48.4288 0H18.655C13.4909 0 10.8965 2.56968 10.8965 7.65965V19.4457H4.99114C1.85314 19.4457 0 21.1506 0 24.0909V45.5133ZM3.97809 45.5133V24.8568C3.97809 23.9426 4.52167 23.4237 5.43589 23.4237H10.8965V45.5133C10.8965 47.564 9.38927 48.997 7.462 48.997C5.51 48.997 3.97809 47.4898 3.97809 45.5133ZM14.0345 48.997C14.5781 47.9346 14.8746 46.6991 14.8746 45.2661V7.88203C14.8746 5.31235 16.2582 3.97809 18.7291 3.97809H48.3546C50.8256 3.97809 52.2093 5.31235 52.2093 7.88203V45.1178C52.2093 47.6877 50.8256 48.997 48.3546 48.997H14.0345ZM21.2988 14.7263H45.8343C46.6991 14.7263 47.3663 14.0345 47.3663 13.1697C47.3663 12.3296 46.6991 11.6872 45.8343 11.6872H21.2988C20.4093 11.6872 19.7421 12.3296 19.7421 13.1697C19.7421 14.0345 20.4093 14.7263 21.2988 14.7263ZM21.2988 23.4237H45.8343C46.6991 23.4237 47.3663 22.7566 47.3663 21.9165C47.3663 21.0517 46.6991 20.3846 45.8343 20.3846H21.2988C20.4093 20.3846 19.7421 21.0517 19.7421 21.9165C19.7421 22.7566 20.4093 23.4237 21.2988 23.4237ZM22.7566 41.0409H29.156C31.0339 41.0409 32.1705 39.9044 32.1705 38.0265V32.1459C32.1705 30.2432 31.0339 29.1067 29.156 29.1067H22.7566C20.854 29.1067 19.7175 30.2432 19.7175 32.1459V38.0265C19.7175 39.9044 20.854 41.0409 22.7566 41.0409ZM36.6182 32.1459H45.8098C46.6991 32.1459 47.3415 31.5035 47.3415 30.6632C47.3415 29.7739 46.6991 29.1067 45.8098 29.1067H36.6182C35.7286 29.1067 35.0862 29.7739 35.0862 30.6632C35.0862 31.5035 35.7286 32.1459 36.6182 32.1459ZM36.6182 41.0409H45.8098C46.6991 41.0409 47.3415 40.3985 47.3415 39.5585C47.3415 38.6937 46.6991 38.0017 45.8098 38.0017H36.6182C35.7286 38.0017 35.0862 38.6937 35.0862 39.5585C35.0862 40.3985 35.7286 41.0409 36.6182 41.0409Z" fill="#1446A7"/>
</g>
<defs>
<clipPath id="clip0_9_1619">
<rect width="56.1872" height="53" fill="white"/>
</clipPath>
</defs>
</svg>
