<svg width="22" height="22" viewBox="0 0 22 22" fill="none" color="currentColor" xmlns="http://www.w3.org/2000/svg">
<path d="M6.41667 16.5H5.68333C4.65657 16.5 4.14319 16.5 3.75102 16.3002C3.40605 16.1244 3.12559 15.8439 2.94982 15.499C2.75 15.1068 2.75 14.5934 2.75 13.5667V9.35C2.75 8.32324 2.75 7.80986 2.94982 7.41768C3.12559 7.07272 3.40605 6.79226 3.75102 6.61649C4.14319 6.41667 4.65657 6.41667 5.68333 6.41667H6.41667M15.5833 16.5H16.3167C17.3434 16.5 17.8568 16.5 18.249 16.3002C18.5939 16.1244 18.8744 15.8439 19.0502 15.499C19.25 15.1068 19.25 14.5934 19.25 13.5667V9.35C19.25 8.32324 19.25 7.80986 19.0502 7.41768C18.8744 7.07272 18.5939 6.79226 18.249 6.61649C17.8568 6.41667 17.3434 6.41667 16.3167 6.41667H15.5833M6.41667 10.0833H6.42583M15.5833 6.41667V4.95V4.21667C15.5833 3.70329 15.5833 3.44659 15.4834 3.25051C15.3955 3.07803 15.2553 2.93779 15.0828 2.84991C14.8867 2.75 14.63 2.75 14.1167 2.75H7.88333C7.36995 2.75 7.11326 2.75 6.91718 2.84991C6.74469 2.93779 6.60446 3.07803 6.51658 3.25051C6.41667 3.44659 6.41667 3.70329 6.41667 4.21667V4.95V6.41667M15.5833 6.41667H6.41667M7.88333 19.25H14.1167C14.63 19.25 14.8867 19.25 15.0828 19.1501C15.2553 19.0622 15.3955 18.922 15.4834 18.7495C15.5833 18.5534 15.5833 18.2967 15.5833 17.7833V15.2167C15.5833 14.7033 15.5833 14.4466 15.4834 14.2505C15.3955 14.078 15.2553 13.9378 15.0828 13.8499C14.8867 13.75 14.63 13.75 14.1167 13.75H7.88333C7.36995 13.75 7.11326 13.75 6.91718 13.8499C6.74469 13.9378 6.60446 14.078 6.51658 14.2505C6.41667 14.4466 6.41667 14.7033 6.41667 15.2167V17.7833C6.41667 18.2967 6.41667 18.5534 6.51658 18.7495C6.60446 18.922 6.74469 19.0622 6.91718 19.1501C7.11326 19.25 7.36995 19.25 7.88333 19.25Z" stroke="currentColor" stroke-width="1.83333" stroke-linecap="round" stroke-linejoin="round"/>
</svg>
