<svg width="32" height="32" viewBox="0 0 32 32" fill="none" color="currentColor" xmlns="http://www.w3.org/2000/svg">
<path d="M8 15.3333H9.33333M8 20.6666H9.33333M22.6667 20.6666H24M22.6667 15.3333H24M15.3333 15.3333H16.6667M13.3333 27.9999V22.6666C13.3333 21.1938 14.5272 19.9999 16 19.9999C17.4728 19.9999 18.6667 21.1938 18.6667 22.6666V27.9999M22.6667 9.99993L24.7682 10.5253C25.9237 10.8142 26.5015 10.9586 26.9317 11.2808C27.3112 11.565 27.6082 11.9453 27.7918 12.3824C28 12.8779 28 13.4735 28 14.6646V23.7333C28 25.2267 28 25.9735 27.7094 26.5439C27.4537 27.0457 27.0457 27.4536 26.544 27.7093C25.9735 27.9999 25.2268 27.9999 23.7333 27.9999H8.26667C6.77319 27.9999 6.02646 27.9999 5.45603 27.7093C4.95426 27.4536 4.54631 27.0457 4.29065 26.5439C4 25.9735 4 25.2267 4 23.7333V14.6646C4 13.4735 4 12.8779 4.20817 12.3824C4.39184 11.9453 4.68876 11.565 5.06833 11.2808C5.49852 10.9586 6.0763 10.8142 7.23185 10.5253L9.33333 9.99993L13.1458 6.56876C14.1546 5.6608 14.659 5.20682 15.2295 5.03464C15.732 4.88298 16.268 4.88298 16.7705 5.03464C17.341 5.20682 17.8454 5.6608 18.8543 6.56876L22.6667 9.99993Z" stroke="currentColor" stroke-width="2.66667" stroke-linecap="round" stroke-linejoin="round"/>
</svg>
