<svg width="32" height="32" viewBox="0 0 32 32" fill="none" color="currentColor" xmlns="http://www.w3.org/2000/svg">
<path d="M10.6667 9.33333V8.26667C10.6667 6.77319 10.6667 6.02646 10.9573 5.45603C11.213 4.95426 11.6209 4.54631 12.1227 4.29065C12.6931 4 13.4399 4 14.9333 4H17.0667C18.5601 4 19.3069 4 19.8773 4.29065C20.3791 4.54631 20.787 4.95426 21.0427 5.45603C21.3333 6.02646 21.3333 6.77319 21.3333 8.26667V9.33333M9.33333 28V9.33559M22.6667 28V9.33333M9.33333 9.33559C9.65831 9.33333 10.0124 9.33333 10.4 9.33333H21.3333M9.33333 9.33559C7.7801 9.34639 6.89164 9.40877 6.18404 9.76931C5.43139 10.1528 4.81947 10.7647 4.43597 11.5174C4 12.373 4 13.4931 4 15.7333V21.6C4 23.8402 4 24.9603 4.43597 25.816C4.81947 26.5686 5.43139 27.1805 6.18404 27.564C7.03969 28 8.15979 28 10.4 28H21.6C23.8402 28 24.9603 28 25.816 27.564C26.5686 27.1805 27.1805 26.5686 27.564 25.816C28 24.9603 28 23.8402 28 21.6V15.7333C28 13.4931 28 12.373 27.564 11.5174C27.1805 10.7647 26.5686 10.1528 25.816 9.76931C24.9603 9.33333 23.8402 9.33333 21.6 9.33333H22.6667M22.6667 9.33333H21.3333" stroke="currentColor" stroke-width="2.66667" stroke-linecap="round" stroke-linejoin="round"/>
</svg>
