<svg width="1780" height="1780" viewBox="0 0 1780 1780" fill="none" xmlns="http://www.w3.org/2000/svg">
<rect width="1780" height="1780" fill="#0057FF"/>
<path d="M724.59 894.24L725.63 892.097L729.505 890.311L732.648 885.978L737.28 883.525L739.17 883.977L739.43 887.549L741.108 887.692L740.943 890.668L745.291 891.311L747.938 893.859L750.301 894.002L753.727 891.383L759.423 892.931L766.134 892.05L768.19 888.168L772.042 885.049L773.153 876.405L767.363 871.357L766.158 869.095L765.85 865.666L767.977 861.809L765.992 852.998L767.079 851.832L768.686 852.808L771.357 852.522L774.547 848.45L776.414 841.616L780.785 839.664L782.203 839.735L784.259 841.855L787.379 842.045L789.009 841.283L793.996 842.236L805.622 840.402L808.222 841.426L811.365 839.688L814.697 840.926L819.352 836.378L828.025 833.925L832.846 836.164L834.335 839.902L834.5 845.212L830.695 848.45L831.192 849.903L847.545 847.284L852.46 836.545L864.441 822.615H880.369L884.268 821.615L892.87 816.971L900.172 817.948L903.74 815.471L907.072 817.448L910.759 817.567L916.052 819.567L917.919 822.043L924.418 826.782L927.915 828.091L935.289 834.116H942.473L953.768 829.949L957.36 834.235L961.661 831.592L964.544 831.496L969.98 828.044L975.557 828.258L976.998 830.282L979.669 831.33L990.941 829.758L1010.11 830.639L1016.11 827.234L1020.62 831.949L1033.1 833.116L1035.98 836.759L1057.09 839.854L1061.67 836.687L1065.29 830.52L1070.48 835.425L1074.12 834.925L1077.22 835.878L1083.81 843.212L1087.31 844.331L1084 845.855L1081.43 855.237L1070.96 864.928L1071.45 873.667L1069.35 875.739L1071.34 877.31L1072.78 883.549L1066.94 887.359L1066.63 889.668L1067.29 894.693L1069.3 895.312L1068.57 900.074L1069.7 902.836L1074.6 902.146L1084.97 911.075L1087.5 916.552L1090.55 919.385L1094.05 927.41L1097.16 929.981L1094.75 934.601L1095.65 942.649L1096.9 944.911L1095.56 946.316L1095.65 948.197L1100.38 950.531L1105.79 949.364L1107.35 952.888L1110.54 953.412L1109.12 961.08L1103.69 971.866L1103.71 976.248L1101.68 980.105L1098.44 982.939L1097.16 989.868L1099.39 993.297L1098.89 997.892L1100.09 999.75L1100.87 998.607L1102.69 999.678L1104.04 999.178L1104.06 1001.89L1105.36 1003.13L1104.7 1004.51L1113.26 1004.27L1118.36 1002.63L1120.65 1000.94L1124.1 995.321L1126.99 994.44L1128.52 999.345L1132.21 999.297L1136.32 997.13L1138.54 998.916L1138.59 1000.61L1140.1 1003.92L1137.95 1006.18L1134.74 1007.13L1132.78 1011.56L1126.68 1017.44L1125.92 1020.78L1127.2 1023.37L1126.87 1027.18L1123.21 1032.18L1125.22 1036.66L1124.91 1038.11L1119.4 1043.4L1118.34 1046.25L1114.25 1051.14L1115.64 1053.21L1113.59 1056.64L1106.43 1063.61L1105.46 1065.59L1105.91 1068.18L1105.15 1067.37L1104.16 1068.02L1103.47 1073.8L1098.8 1073.61L1100.02 1076.78L1093.38 1077.92L1086.93 1072.85L1081.97 1070.8L1078.52 1072.02L1080.58 1074.18L1078.8 1077.73L1075.87 1078.76L1072.38 1078.23L1073.49 1081.88L1065.9 1082.95L1064.17 1081.69L1060.35 1082.04L1057.94 1080.47L1055.34 1081.09L1054.84 1082.73L1056.54 1084.97L1054.79 1091.9L1047.07 1097.97L1043.38 1102.85L1040.99 1102.5L1038.94 1104.64L1038.44 1105.81L1041.04 1107.09L1040.92 1107.9L1036.48 1110.14L1034.66 1113.26L1033.41 1113.64L1031.73 1111.21L1029.18 1110.14L1022.44 1112.05L1019.65 1113.5L1018.76 1115.5L1015.52 1114.45L1012.71 1119.07L1009.42 1119.64L1005.76 1126.86L998.55 1128.26L996.329 1129.71L997.085 1125.38L999.85 1121.36L996.211 1114.36L993.304 1114.86L991.177 1112.95L986.498 1112.69L985.293 1109.55L982.292 1115.55H980.07L976.809 1112.66L973.264 1115.74L973.028 1118.12L969.956 1118.69L967.167 1114.71L968.609 1113.45L969.034 1111.16L972.839 1107.47L971.138 1103.38L968.444 1104L966.577 1100.76L962.583 1098.66L961.449 1096.16L957.786 1095.21L955.139 1095.54L952.256 1100.26L947.648 1100.88L944.765 1099.73L940.96 1096.16L938.455 1086.26L935.927 1085.42L932.902 1086.69L928.672 1082.38L922.882 1086.9L921.299 1089.83L919.219 1090.71L915.674 1094.78L912.319 1095.73L907.569 1099.09L905.584 1097.97L901.992 1100.38L902.488 1105.28L897.218 1111.9L898.447 1119.95L894.028 1124.4L894.808 1130.62L891.806 1136.48L892.752 1139.48L890.294 1141.6L887.813 1141.43L887.458 1145.72L885.922 1146L883.89 1143.14L883.795 1139.36L880.936 1139L875.713 1144.24L869.876 1145.91L866.237 1142.55L863.26 1143.19L863 1144.43L859.384 1143.21L855.225 1144.29L852.649 1143.02L845.252 1144.05L840.88 1146.6L838.943 1149.29L833.2 1150.88L831.901 1155.43L829.986 1156.95L826.583 1155.69L824.315 1153.36L821.715 1153.1L816.445 1155.03L802.857 1149.62L800.99 1149.79L799.265 1152.74L795.839 1153L791.278 1149.98L789.695 1150.24L788.915 1151.88L784.023 1155.1L780.904 1151.88L777.808 1152.81L772.751 1148.24L772.704 1142.17L775.279 1140.95L776.177 1137.07L781.4 1133.31L785.724 1126.59L784.756 1120.9L781.518 1115.93L783.409 1114.64L784.118 1109.93L786.646 1107.64L784.85 1105.74L787.072 1103.26L781.471 1099.38L777.69 1104L774.57 1105.02L771.853 1104L771.12 1105.12L761.738 1108.33L759.446 1106.19L756.374 1111.28L754.106 1107.52L751.931 1106.88L750.419 1111.14L752.286 1116.71L741.77 1116.12L733.711 1113.88L731.443 1111.55L725.913 1109.76L724.472 1110.59L724.755 1113.69L723.928 1114.28L719.816 1113.5L718.493 1106.12L720.903 1102.93L722.723 1103.33L726.669 1098.66L721.659 1090.95L721.825 1089.04L723.857 1088.92L723.975 1087.92L720.62 1083.78L722.25 1079.21L725.039 1076.85L729.103 1075.49L728.962 1067.92L731.608 1060.78L730.072 1055.52L726.976 1055.14L725.251 1052.21L724.802 1046.06L721.329 1036.47L715.799 1033.49L714.546 1033.99L712.325 1028.7L707.48 1024.18L707.929 1021.58L705.094 1019.06L701.431 1019.18L697.768 1024.63L693.372 1027.68L693.987 1029.06L692.096 1031.4L690.466 1031.61L690.797 1034.78L688.315 1035.71L688.504 1040.78L686.779 1042.56L681.864 1045.85L681.084 1043.85L676.736 1042.87L675.034 1045.04L668.559 1048.33L661.753 1045.92L657.807 1052.14L654.31 1055.33L653.104 1058.35L651.875 1057.4L652.159 1055.33L650.009 1052.94L649.654 1050.3L647.126 1046.23L646.795 1030.9L647.527 1027.92L649.961 1025.78L650.127 1022.92L654.239 1012.8L652.301 1010.3L651.852 1005.35L648.402 1005.15L654.239 996.273L651.308 996.63L653.033 987.725L651.285 984.51L650.505 985.153L647.858 983.844L644.242 983.82L642.068 984.701L641.525 987.249L638.736 986.796L639.776 981.796L643.297 978.391L643.037 976.009L641.17 973.485L640.698 968.699L641.879 960.008L645.873 959.841L653.081 961.794L662.061 961.699L664.613 959.437L667.472 959.127L668.583 956.365L668.276 952.293L670.143 949.078L673.427 946.864L678.083 937.577L682.006 933.529L686.779 936.006L690.324 936.863L692.876 936.244L697.886 938.577L698.311 935.434L697.153 930.339L703.912 924.814L706.488 913.456L709.347 911.099L713.412 912.456L716.791 910.146L720.265 904.646L723.101 897.36L724.613 896.193L724.59 894.24Z" fill="white"/>
<path d="M251 974.145L258.042 974.193L258.538 970.097L266.313 969.216L274.324 965.882L275.033 967.192L278.53 967.478V966.002L275.86 962.858L276.12 961.334L285.454 967.002L290.323 964.239L292 967.597L294.269 968.216L311.685 964.263L317.877 960.906L323.714 959.858L324.943 955.548L330.756 951.857L346.896 927.808L350.465 930.998L353.986 932.499L357.2 938.904L357.72 943.071L356.798 945.119L352.757 947.571L349.685 952.477L344.84 952.857L343.092 959.168L333.781 965.621L333.001 968.026L340.941 973.717L342.005 978.431L347.133 979.241L347.298 982.598L351.883 984.789L351.363 986.503L349.449 987.742L349.661 990.17L348.314 993.171L343.801 994.742L343.73 996.385L341.178 999.766L341.579 1001.46L345.124 1005.62L351.764 1005.93L355.876 1010.43L363.722 1010.51L362.47 1017.82L366.487 1018.39L366.369 1021.55L369.772 1023.08L373.104 1034.86L374.474 1036.63L378.539 1035.03L382.982 1039.27L384.447 1045.06L380.76 1054.58L377.83 1055.89L380.453 1058.58L379.059 1062.41L381.682 1062.68L383.029 1065.72L387.212 1069.11L388.299 1069.56L390.969 1067.44L394.136 1071.08L385.912 1081.51L383.596 1090.42L385.038 1091.94L388.299 1092.25L395.365 1095.61V1098.16L392.363 1102.49L392.765 1104.2L395.601 1105.51L395.837 1111.63L394.963 1113.01L391.371 1113.4L390.567 1115.4L386.385 1115.56L383.691 1118.32L381.847 1122.52L374.9 1125.02L370.386 1121.94L366.463 1121.75L366.676 1116.28L362.068 1114.75L359.019 1117.49L360.106 1121.59L362.682 1123.04L360.059 1127.61L357.389 1126.92L350.583 1132.3L349.047 1131.78L345.195 1134.09L342.265 1132.28L340.799 1132.54L340.35 1134.33L341.532 1135.75L340.729 1139.59L342.619 1143.21L345.266 1145.21H347.534L350.11 1142.09L352.757 1143.49L352.922 1145.4L349.425 1146.11L348.267 1153.38L343.375 1154.09L340.965 1151.61L339.712 1152.11L339.996 1155.78L341.603 1158.83L335.222 1162.09L331.583 1167.04L329.267 1167.14L329.527 1169.64L326.786 1172.54L325.652 1169.02L321.398 1171.26L315.183 1169.97L305.116 1174.83L300.059 1169.4L296.419 1169.28L292.898 1165.73L287.605 1169.54L282.122 1165.5L286.494 1160.3L285.643 1158.3L281.91 1156.66L286.282 1152.64L283.02 1150.64L284.556 1147.78L283.186 1145.85L287.888 1142.64L286.754 1140.78L287.818 1139.64L283.777 1136.97L282.737 1135.56L283.517 1133.87L281.697 1133.52L279.948 1131.25L281.461 1130.25L278.436 1123.09L274.348 1124.3L271.37 1123.87L263.075 1115.59L258.065 1112.18L258.184 1105.94L254.757 1092.68L251.189 1087.42L253.67 1076.92L251.165 1074.58L245.352 1073.75L241.571 1067.84L242.61 1066.2L241.358 1066.82L238.168 1059.63L240.625 1059.2L239.302 1057.41L241.405 1053.25L232.283 1048.68L232.425 1044.65L227.226 1044.91L224.84 1043.03L224.461 1036.22L222.5 1032.2L223.091 1031.32L226.801 1031.36L226.848 1028.34L228.786 1024.48L227.274 1023.63L226.943 1020.6L229.826 1017.55L227.415 1012.89L226.73 1006.39L229.991 1004.53L229.093 1002.72L230.086 1000.08L232.189 999.195L233.465 996.671L238.262 992.623L237.01 990.218L237.837 988.456L240.247 987.432L242.185 988.718L243.627 988.313L242.398 982.098L244.643 981.622L244.336 979.169L246.84 977.622L247.408 978.693L250.031 978.598L249.464 975.979L251 974.145Z" fill="white"/>
<path d="M1087.3 844.36L1091.51 847.789L1095.03 846.813L1095.6 843.194L1094.32 841.741L1094.25 839.193L1096.05 836.479L1096.14 826.692L1099.47 824.62L1099.85 823.311L1099.61 821.073L1096.99 819.096L1096.42 816.977L1104.91 808.095L1107.86 807.047L1109.45 804.69L1112.99 802.452L1117.57 801.261L1121.36 796.427L1129.82 799.952L1137.26 805.285L1140.05 808.524L1144.49 810.262L1146.52 812.5L1150.47 812.619L1142.32 802.142L1143.45 798.904L1149.24 793.308L1150.8 794.308L1153.54 799.88L1158.24 803.88L1158.86 806.476L1164.7 809.643L1167.67 807.857L1173.37 807.428L1181.95 821.168L1184.19 821.644L1189.23 825.501L1188.4 823.335L1189.13 817.667L1191.99 815.191L1191.94 811.572L1193.05 810.572L1200.78 807.952L1202.65 808.667L1204.89 813.143L1210.04 809.214L1211.34 809.905L1212.5 813.119L1214.27 813.262L1216.92 811.381L1217.37 810.691L1214.63 806.595L1214.91 803.452L1212.48 800.333L1213.75 799.285L1216.59 801.071L1219.5 801.309L1224.81 805.309L1231.71 802.642L1231.24 804.666L1226.87 807.595L1228.67 809.571L1232.38 809.524L1233.06 811.214L1246.74 806.857L1252.32 808.357L1256.46 811.405L1259.39 817.62L1260.62 818.167L1267.85 812.691L1273.54 822.263L1277.25 824.454L1278.29 831.169L1288.9 831.788L1296.04 834.717L1303.18 835.217L1306.46 831.978L1308.64 833.907L1312.56 835.098L1314.8 840.955L1318.58 844.503L1323.29 839.503L1329.6 843.241L1330.28 841.003L1333.45 841.122L1333.31 845.432L1338.46 843.194L1339.73 847.384L1335.88 860.648L1338.91 864.41L1344.7 867.886L1349.4 865.767L1349.16 861.409L1352.61 858.29L1354.62 857.457L1356.99 858.957L1359.21 856.957L1366.49 856.98L1367.29 854.147L1369.58 851.837L1369.32 846.122L1370.08 845.194L1368.38 841.074L1369.46 839.836L1373.46 838.812L1378.37 843.36L1379.13 834.955L1380.57 837.098L1381.92 843.551L1387.16 844.503L1388.58 843.813V842.003L1391.51 841.551L1395.91 838.145L1396.07 845.075L1399.1 845.86L1400.54 847.503L1398.1 850.289L1398.48 853.671L1401.39 857.409L1405.1 859.266L1407.2 863.505L1406.68 867.767L1409.75 873.077L1418.71 875.435L1420.48 877.149L1420.25 879.459L1424.86 879.316L1430.2 882.53L1440.17 879.435L1442.82 883.459L1446.88 886.721L1452.62 885.816L1462.57 880.316L1464.89 880.554L1464.91 882.34L1466.26 876.435L1470.87 874.958L1475.76 870.815L1476.23 866.696L1473.58 862.695L1471.95 838.955L1472.83 833.645L1475.43 831.788L1479.52 832.288L1482.09 837.074L1483.58 836.455L1485.02 837.503L1486.86 836.193L1491.26 835.645L1504.02 840.646L1510.73 845.265L1515.13 852.718L1523.8 853.647L1525.57 856.98L1533.94 857.028L1544.41 854.599L1558.99 854.861L1560.05 852.909L1559.34 839.955L1561.26 837.836L1565.94 835.955L1568.18 830.788L1575.48 823.311L1583.52 824.335L1586.24 826.263L1588.72 836.574L1591.15 840.122L1591.77 845.813L1603.89 845.384L1609.09 843.265L1613.01 845.384L1621.28 845.789L1623.01 847.003L1620.81 858.385L1623.01 863.195L1623.67 871.815L1621.68 873.958L1620.26 878.03L1613.79 884.578L1612.66 890.769L1617.12 894.341L1617.22 899.27L1614.62 902.223L1611.73 916.367L1602.56 919.343L1596.44 925.487L1589.47 930.559L1587.75 936.607L1584.2 940.178L1580.26 940.298L1576.74 944.893H1573.88L1573.69 947.227L1572.1 947.512L1567.19 958.609L1565.39 979.492L1560.76 1012.16L1561.3 1021.3L1562.44 1024.11L1564.8 1024.02L1563.83 1027L1559.04 1028.73L1560.29 1032.71H1557.36L1556.41 1033.78L1554.29 1033.07L1551.4 1034.5L1550.17 1032.45L1547.83 1035.95L1547.15 1032.47L1545.23 1030.5L1544.41 1032.4L1541.05 1032.07L1540.08 1033.92L1533.04 1028.21L1529.97 1031.31L1523.19 1033.28L1522.31 1034.4L1521.86 1033.02L1512.91 1033.52L1509.2 1036.45L1507.71 1036.31L1508.82 1038.04L1507.52 1039.97L1505.25 1039.47L1502.96 1037.28L1500.59 1038.71L1499.96 1036.76L1499.84 1039.59L1498.56 1039.43L1499.08 1037.4L1497.78 1036.69L1496.27 1038.54L1497.48 1041.14L1496.29 1041.69L1496.34 1039.85L1495.42 1039.66L1494.43 1041.97L1492.49 1041.19L1491.66 1042.9L1490.43 1042.26L1489.79 1038.81L1485.07 1038.78L1484.15 1039.97L1483.96 1049.88L1481.33 1051.28L1479.7 1051.36L1480.04 1049.69L1476.61 1049.24L1475.55 1047.62L1467.2 1048.19L1465.12 1046.07L1456.99 1044.74L1453.52 1042.54L1454.02 1038.21L1452.17 1038.28L1450.76 1036.64L1452.2 1034.09L1451.11 1032.02L1445.98 1028.97L1443.12 1029.59L1440.83 1026.61L1440.5 1018.85L1439.79 1019.16L1435.77 1007.52L1433.86 1006.59L1432.28 1003.61L1432.87 1002.21L1430.53 999.017L1431.24 997.112L1430.24 996.588L1430.62 989.85L1429.82 987.754L1428.59 987.968L1428.12 983.111L1426.01 983.968L1423.01 981.587L1421.15 982.516L1419.56 985.54L1416.37 985.063L1415.05 982.611L1413.23 983.968L1410.39 983.992L1409.8 981.587L1406.26 978.42L1403.52 971.943L1403.59 967.919L1401.48 967.157L1401.34 965.847H1399.88L1399.52 963.871L1396.4 964.466L1394.91 962.038L1393.28 962.3L1390.07 958.918L1387.02 958.204L1384.35 954.132L1381.85 954.513L1380.24 956.537L1379.67 962.99L1378.3 964.323L1374.33 962.49L1368.85 964.466L1361.57 963.776L1354.84 964.776L1354.5 963.49L1353.37 965.347L1355.92 966.133L1352.92 967.229L1354.69 969.038L1353.61 971.943L1351.88 971.681L1353.3 974.467L1350.27 976.467L1350.63 978.182L1348.34 978.515L1342.05 976.229L1340.92 977.11L1333.9 971.872L1332.27 972.015L1332.13 973.824L1329.2 972.562L1328.13 974.658L1326.15 974.086L1326.19 976.467L1322.81 977.801L1321.99 977.063L1321.73 978.253L1320.59 977.491L1318.73 979.896L1316.93 978.229L1311.28 980.706L1306.79 989.35L1304 990.088L1301.24 989.731L1298.76 987.587L1298.54 982.849L1297.15 980.373L1292.66 978.896L1290.04 976.848L1286.82 978.563L1286.8 976.61L1284.86 977.229L1282.12 976.539L1280.35 974.824L1279.43 975.729L1277.13 974.586L1271.79 976.848L1268.96 980.277L1267.14 978.11L1264.99 979.206L1262.86 978.301L1262.55 974.205L1258.99 973.467L1258.63 970.872L1256.95 972.324L1255.35 967.038L1252.87 964.824L1243.25 967.419L1239.84 967.205L1236.23 962.3L1235.07 962.514V957.323L1232.9 957.918L1234.55 954.942L1224.48 958.394L1207.11 960.347L1206 961.942L1204.61 960.418L1200.62 960.347L1193.29 963.871L1186.65 964.062L1184.1 967.109L1183.18 966.133L1181.5 967.8L1178.19 968.467L1176.51 970.753L1172.9 970.729L1169.99 972.205L1169.19 973.896L1159.57 970.134L1157.04 976.42L1154.32 975.396L1152.62 972.967L1149.86 973.967L1148.06 976.158L1148.3 979.706L1150.23 981.92L1149.24 984.421L1149.55 991.112L1146.33 991.802L1143.64 997.374L1138.58 1000.64L1138.54 998.946L1136.31 997.16L1132.2 999.327L1128.52 999.374L1126.98 994.469L1124.1 995.35L1120.65 1000.97L1118.35 1002.66L1113.25 1004.3L1104.7 1004.54L1105.36 1003.16L1104.06 1001.92L1104.03 999.208L1102.69 999.708L1100.87 998.636L1100.09 999.779L1098.88 997.922L1099.38 993.326L1097.16 989.897L1098.43 982.968L1101.67 980.134L1103.7 976.277L1103.68 971.896L1109.11 961.109L1110.53 953.442L1107.34 952.918L1105.78 949.394L1100.37 950.56L1095.64 948.227L1095.34 946.893L1096.9 944.941L1095.64 942.679L1094.75 934.63L1097.16 930.011L1094.04 927.439L1090.54 919.415L1087.49 916.581L1084.96 911.104L1074.59 902.175L1069.7 902.866L1068.56 900.103L1069.3 895.341L1067.29 894.722L1066.62 889.698L1066.93 887.388L1072.77 883.578L1071.33 877.339L1069.34 875.768L1071.45 873.696L1070.95 864.957L1081.42 855.266L1083.99 845.884L1087.3 844.36Z" fill="white"/>
<path d="M510.514 942.199L514.012 940.937L515.264 938.674L517.178 939.055L519.896 936.603L520.676 933.841L520.558 927.792L518.833 926.411L516.824 919.268L515.004 917.577L513.799 909.291L517.178 905.79L520.321 905.481L523.157 908.934L534.902 908.672L539.463 911.315L542.913 910.1L551.302 917.815L554.54 928.102L558.463 931.936L561.818 930.078L565.599 932.126L568.175 931.459L571.176 933.079L574.579 942.699L577.297 946.77L576.564 951.247L570.846 956.819L574.721 960.033L572.736 962.319L572.665 964.82L573.516 966.034L580.936 965.939L583.701 968.153L588.428 976.225L592.09 980.202L593.343 986.441L594.903 988.631L602.394 990.917L604.473 989.655L605.111 986.703L605.868 989.798L609.105 992.822L610.169 989.108L614.8 986.441L622.457 978.607L629.216 975.416L636.069 968.963L640.677 968.725L641.149 973.511L643.016 976.035L643.276 978.416L639.755 981.821L638.715 986.822L641.504 987.274L642.047 984.726L644.222 983.845L647.837 983.869L650.484 985.179L651.264 984.536L653.013 987.75L651.287 996.656L654.218 996.299L648.381 1005.18L651.831 1005.37L652.28 1010.32L654.218 1012.82L650.106 1022.94L649.94 1025.8L647.506 1027.94L646.774 1030.92L647.105 1046.26L649.633 1050.33L649.988 1052.97L652.138 1055.35L651.855 1057.42L653.083 1058.38L654.289 1055.35L657.786 1052.16L661.733 1045.95L668.538 1048.35L675.013 1045.06L676.715 1042.9L681.063 1043.87L681.843 1045.87L686.758 1042.59L688.483 1040.8L688.294 1035.73L690.776 1034.8L690.445 1031.64L692.075 1031.42L693.966 1029.09L693.352 1027.71L697.747 1024.66L701.41 1019.21L705.073 1019.09L707.909 1021.61L707.46 1024.21L712.304 1028.73L714.525 1034.02L715.778 1033.52L721.308 1036.49L724.781 1046.09L725.23 1052.23L726.956 1055.16L730.051 1055.54L731.587 1060.8L728.941 1067.95L729.082 1075.52L725.018 1076.88L722.229 1079.23L720.599 1083.81L723.954 1087.95L723.836 1088.95L721.804 1089.07L721.638 1090.97L726.648 1098.69L722.702 1103.36L720.882 1102.95L718.472 1106.14L719.795 1113.52L723.907 1114.31L724.734 1113.71L724.451 1110.62L725.892 1109.79L731.422 1111.57L733.691 1113.9L741.749 1116.14L752.265 1116.74L750.398 1111.17L751.91 1106.9L754.085 1107.55L756.353 1111.31L759.425 1106.21L761.718 1108.36L771.099 1105.14L771.832 1104.02L774.55 1105.05L777.669 1104.02L781.45 1099.4L787.051 1103.28L784.829 1105.76L786.625 1107.67L784.097 1109.95L783.388 1114.67L781.497 1115.95L784.735 1120.93L785.704 1126.62L781.379 1133.33L776.156 1137.1L775.258 1140.98L772.683 1142.19L772.73 1148.26L771.501 1148.74L771.076 1150.84L768.665 1151.1L764.648 1156.15L753.021 1154.86L745.648 1157.5L741.584 1156.34L740.709 1154.93L739.197 1157.43L739.551 1158.6L734.872 1158.53L732.414 1159.72L729.673 1157.88L726.53 1159.67L724.332 1163.15L725.538 1163.79L725.845 1165.77L722.938 1169.08L723.978 1174.53L722.773 1180.01L722.135 1178.77L720.977 1180.48L722.111 1180.84L719.157 1183.2L714.573 1182.29L712.564 1183.34L711.926 1182.22L710.555 1183.39L711.595 1184.17L709.35 1185.17L708.074 1187.41L709.114 1189.63L711.737 1191.22L713.037 1195.39L710.768 1195.72L712.422 1203.17L708.287 1208.06L710.248 1212.03L709.137 1212.82L710.012 1213.89L708.807 1216.34L709.752 1221.22L708.877 1221.7L709.397 1226.89L716.629 1228.58L718.472 1231.22L724.262 1233.99L726.388 1239.73L731.327 1242.63L730.831 1246.39L716.912 1244.32L703.04 1248.18L699.921 1257.42L688.862 1265.28L684.395 1267.18L672.461 1269.04L659.984 1266.01L653.272 1266.32L647.459 1269.89L641.929 1270.99L640.204 1270.78L636.305 1267.68L630.823 1266.32L621.748 1270.73L615.013 1271.61L602.299 1276.61L590.271 1278.87L573.894 1274.85L560.353 1275.13L551.822 1272.32L535.611 1269.35L524.433 1269.3L517.627 1273.16L509.782 1268.89L503.307 1273.82L494.823 1274.23L491.042 1275.75L481.259 1273.23L477.856 1274.8L468.876 1274.49L462.85 1275.82L457.414 1272.32L443.944 1269.25L439.785 1264.39L444.275 1260.11L446.756 1248.89L451.317 1248.77L452.263 1250.37L455.169 1250.39L456.753 1251.73L458.809 1247.2L465.638 1242.68L466.678 1239.61L465.567 1232.37L468.308 1226.8L473.862 1224.91L478.234 1218.29L485.418 1214.1L488.702 1210.06L482.842 1204.2L485.63 1199.32L484.094 1189.89L485.89 1180.43L482.889 1174.79L483.503 1169.72L482.487 1167.31L486.197 1164.43L485.016 1162.03L485.205 1158.58L483.196 1156.29L479.888 1156.03L475.681 1153.27L478.399 1149.62L476.698 1146.69L470.223 1151.67L467.529 1151.17L466.442 1145.98L469.443 1138.5L469.088 1133.41L462.117 1125.29L452.735 1119.4L458.738 1115L462.093 1114.88L464.126 1117.88L466.158 1117.95L469.561 1113.71L465.095 1104.81L469.892 1105.43L472.893 1104.62L475.681 1107.17L476.792 1104.62L482.369 1102.07L484.945 1099.26L485.607 1094.97L484.732 1091.83L477.903 1089.64L475.043 1084.93L475.871 1082.33L478.21 1083.74L481.14 1081.83L480.904 1079.23L479.486 1077.83L483.409 1071.47L481.967 1068.14L476.509 1067.57L474.76 1064.02L478.234 1061.19L478.919 1051.28L481.684 1049.11L480.597 1044.11L484.449 1041.11L483.385 1039.49L485.819 1038.21L486.765 1034.99L492.932 1025.54L496.997 1016.06L496.855 1014.11L499.526 1009.8L503.283 1009.73L502.551 1007.42L505.552 1002.89L504.654 1000.37L498.604 996.084L491.302 986.988L488.986 985.179L480.786 983.345L479.817 981.654L477.997 981.726L477.761 979.249L482.133 975.773L484.472 963.391L489.057 957.843L490.546 951.914L495.603 953.7L497.375 955.652L504.417 955.081L503.756 952.485L506.899 952.223L510.065 949.294L510.514 942.199Z" fill="white"/>
<path d="M1350.89 620.938L1358 619.772L1361.07 620.272L1362.33 622.272L1366.06 624.105L1367.5 627.368L1370.53 626.439L1375.32 626.939L1376.36 629.511L1383.15 635.035L1386.55 634.964L1389.36 633.535L1393.66 634.225L1396.85 628.701L1398.13 628.225L1404.79 632.749L1405.69 631.773L1404.63 629.677L1407.65 626.034L1412.83 626.796L1416.37 623.629L1418.64 625.701L1422.56 626.629L1423.84 625.534L1425.68 625.963L1428.64 622.534L1433.15 621.058L1436.03 627.653L1439.79 630.558L1439.86 633.059L1445.65 635.392L1450.21 632.32L1455.72 634.892L1456.9 640.274L1459.14 640.178L1461.03 642.988L1466.21 646.155L1467.34 653.108L1469.61 656.585L1472.76 657.513L1472.43 652.108L1474.62 648.179L1478.52 646.703L1481.83 643.536L1485.75 643.274L1487.53 645.369L1487.55 648.203L1490.34 651.87L1491.8 651.989L1493.67 650.346L1496.51 651.203L1499.06 656.585L1501.49 659.18L1502.41 658.013L1505.13 657.894L1508.56 660.775L1514.63 659.418L1516.4 660.037L1522.1 674.586L1526.14 679.634L1534.17 686.373L1533.94 692.85L1536.82 695.755L1534.43 707.375L1538.33 710.589L1552.54 715.709L1562.25 717.423L1562.7 720.447L1571.32 724.448L1573.9 726.996L1576.1 726.257L1579.1 723.09L1582.57 723.662L1584.39 725.424L1585.22 728.639L1583.07 732.925L1583.12 735.449L1588.79 735.806L1606.44 742.187L1610.32 738.163L1618.8 738.759L1621.73 743.83L1624.21 745.069L1624.68 748.426L1632.62 756.26L1634.06 756.57L1638.15 754.522L1641.37 754.617L1650.56 761.213L1652 761.475L1655.33 758.975L1662.82 757.927L1668.76 761.356L1665.57 764.689L1665.02 783.786L1661.69 786.62L1663.75 792.192L1657.51 796.002L1652.62 794.859L1646.78 797.716L1645.62 803.86L1643.61 805.36L1633.12 822.028L1634.75 825.314L1633.12 828.171L1632.1 838.91L1626.08 842.387L1623.01 847.006L1621.28 845.792L1613.01 845.387L1609.09 843.268L1603.89 845.387L1591.76 845.816L1591.15 840.125L1588.72 836.577L1586.23 826.266L1583.52 824.338L1575.48 823.314L1568.18 830.791L1565.94 835.958L1561.26 837.839L1559.34 839.958L1560.05 852.912L1558.99 854.864L1544.41 854.602L1533.94 857.031L1525.57 856.983L1523.8 853.65L1515.13 852.721L1510.73 845.268L1504.02 840.649L1491.26 835.648L1486.86 836.196L1485.02 837.506L1483.58 836.458L1482.09 837.077L1479.51 832.291L1475.43 831.791L1472.83 833.648L1471.95 838.958L1473.58 862.698L1476.23 866.699L1475.76 870.818L1470.87 874.961L1466.26 876.438L1464.91 882.343L1464.89 880.557L1462.57 880.319L1452.62 885.819L1446.88 886.724L1442.81 883.462L1440.17 879.438L1430.2 882.533L1424.85 879.319L1420.25 879.462L1420.48 877.152L1418.71 875.438L1409.75 873.08L1406.68 867.77L1407.2 863.508L1405.1 859.269L1401.39 857.412L1398.48 853.674L1398.1 850.292L1400.54 847.506L1399.1 845.863L1396.07 845.078L1395.91 838.148L1391.51 841.554L1388.58 842.006V843.816L1387.16 844.506L1381.92 843.554L1380.57 837.101L1379.13 834.958L1378.37 843.363L1373.46 838.815L1369.46 839.839L1368.38 841.077L1370.08 845.197L1369.32 846.125L1369.58 851.84L1367.29 854.15L1366.49 856.983L1359.21 856.96L1356.99 858.96L1354.62 857.46L1352.61 858.293L1349.16 861.412L1349.4 865.77L1344.7 867.889L1338.91 864.413L1335.88 860.65L1339.73 847.387L1338.46 843.197L1333.31 845.435L1333.45 841.125L1330.28 841.006L1329.6 843.244L1323.29 839.506L1318.58 844.506L1314.8 840.958L1312.56 835.101L1308.64 833.91L1306.46 831.981L1303.18 835.22L1296.04 834.72L1288.9 831.791L1278.29 831.172L1277.25 824.457L1273.54 822.266L1267.85 812.694L1260.62 818.17L1259.39 817.623L1256.46 811.408L1252.32 808.36L1246.74 806.86L1233.06 811.217L1232.38 809.527L1228.67 809.574L1226.87 807.598L1231.24 804.669L1231.71 802.645L1224.81 805.312L1219.5 801.312L1216.59 801.074L1213.75 799.288L1212.48 800.336L1214.91 803.455L1214.63 806.598L1217.37 810.694L1216.92 811.384L1214.27 813.265L1212.5 813.122L1211.34 809.908L1210.04 809.217L1204.89 813.146L1202.65 808.67L1200.78 807.955L1193.05 810.575L1191.94 811.575L1191.99 815.194L1189.13 817.67L1188.4 823.338L1189.22 825.504L1184.19 821.647L1181.95 821.171L1173.37 807.431L1167.67 807.86L1164.7 809.646L1158.86 806.479L1158.24 803.883L1153.54 799.883L1150.8 794.311L1149.24 793.311L1143.45 798.907L1142.32 802.145L1150.47 812.622L1146.52 812.503L1144.49 810.265L1140.05 808.527L1137.26 805.288L1129.82 799.955L1121.36 796.43L1117.57 801.264L1112.99 802.455L1109.44 804.693L1107.86 807.05L1104.91 808.098L1096.42 816.98L1096.99 819.099L1099.61 821.075L1099.85 823.314L1099.47 824.623L1096.14 826.695L1096.05 836.482L1094.25 839.196L1094.32 841.744L1095.6 843.197L1095.03 846.816L1091.51 847.792L1087.3 844.363L1083.8 843.244L1077.21 835.91L1074.12 834.958L1070.48 835.458L1065.28 830.553L1061.66 836.72L1057.08 839.887L1035.97 836.791L1033.09 833.148L1020.61 831.981L1021.63 829.386L1029.38 827.862L1034.79 823.123L1033.8 822.147L1029.52 821.79L1025.72 810.884L1026.95 807.67L1023.52 805.384L1020.8 798.835L1012.18 792.621L1012.96 790.525L1017.33 792.025L1025.06 788.62L1025.03 781.286L1027.59 774.738L1027.16 768.261L1030.59 758.975L1030.92 753.665L1027.59 751.617L1024.42 753.593L1018.18 752.498L1015.39 753.069L1013.05 748.474L1012.7 751.212L1011.3 751.95L1007.38 745.712L1003.36 745.997L1002.65 743.211L997.29 745.45L995.777 744.902L997.999 739.401L997.337 738.116L998.235 735.258L990.602 723.424L989.137 718.542L990.035 716.447L996.368 711.685L996.911 705.541L1001.94 703.303L1007.52 703.803L1017.61 705.113L1023.33 710.161L1023.07 712.447L1026.4 716.447L1030.94 718.281L1039.02 724.9L1043.04 724.995L1043.32 714.899L1045.14 710.327L1047.06 708.684L1045.57 703.017L1047.6 700.422L1048.17 695.755L1053.11 688.659L1053.98 680.253L1058.73 672.491L1059.96 672.538L1062.04 676.848L1065.77 673.181L1064.1 669.609L1064.73 668.086L1067.85 667.871L1070.24 662.609L1074.75 661.204L1077.38 658.323L1079.83 660.871L1082.65 658.87L1089.19 660.323L1090.47 658.68L1092.38 658.442L1095.95 658.87L1098.98 661.371H1100.91L1102.62 659.347L1103.04 648.203L1105 643.536L1101.01 643.798L1102.78 639.012L1105.97 638.202L1112.68 640.178L1115.54 636.559L1117.24 638.559L1117.36 642.679L1120.17 643.179L1124.81 641.393L1125.37 638.13L1126.62 636.916L1129.27 638.464L1130.36 641.012L1131.3 637.083L1129.46 636.535L1129.98 632.987L1133.9 635.13L1134.83 634.773L1133.83 633.797L1140.12 633.606L1145.88 637.535L1148.6 638.202L1149.83 642.536L1152.81 642.679L1159.69 645.536L1162.14 647.893L1166.47 648.87L1167.86 646.369L1170.37 646.798L1172.9 644.25L1173.51 640.964L1176.04 637.607L1176.98 632.63L1184.9 639.297L1188.68 637.964L1197.07 631.582L1201.3 632.249L1204.7 634.178L1208.2 633.416L1209.52 635.321L1208.91 638.392L1212.5 640.107L1210.14 643.226L1213.19 646.036L1213.05 651.132L1219.36 649.774L1219.97 651.06L1219 654.561L1223.16 654.203L1225.76 656.156L1224.84 657.894L1223.11 655.561L1223.82 657.394L1222.64 661.68L1226.63 660.347L1230.06 665.3L1232.54 665.419L1237.06 660.466L1239.47 660.228L1244.33 667.586L1241.9 670.824L1244.92 670.895L1246.15 668.919L1249.44 668.133L1250.83 670.61L1250.17 672.61L1251.47 675.491L1255.98 679.563L1264.21 675.181L1271.37 675.372L1272.79 673.419L1270.78 667.633L1275.55 665.181L1276.61 660.537L1278.2 660.156L1284.27 653.537L1285.64 653.227L1287.82 654.632L1290.46 653.394L1292.4 655.608L1293.91 653.941L1297.13 653.465L1299.96 649.346L1291.22 641.702L1291.24 639.25L1287.32 637.845L1285.88 633.368L1286.94 631.654L1289.99 631.463L1298.05 628.296L1302.16 630.677L1303.81 626.391L1305.23 626.082L1311.97 629.392L1313.03 632.011L1315.02 632.582L1318.89 636.321L1319.2 638.988L1322.22 639.178L1324.37 638.035L1326.17 638.892L1330.83 633.297L1330 629.82L1332.46 625.391L1334.39 626.368L1340.54 621.248L1342.05 616.486L1343.94 616.248L1350.89 620.938Z" fill="white"/>
<path d="M314.07 844.409L326.241 847.171L329.643 849.79L334.204 849.909L336.024 852.838L341.365 856.934L345.264 855.838L346.611 859.196L353.653 864.553L355.733 867.625L359.325 865.577L364.405 867.435L362.539 875.507L353.488 880.245L353.18 882.603L357.127 885.793L359.679 884.555L361.026 885.436L369.51 878.745L370.762 881.912L370.29 883.484L375.158 886.246L376.623 885.198L378.159 887.436L381.018 887.627L383.972 893.389L387.281 894.509L388.226 897.937L387.423 902.009L383.854 903.271L381.515 910.224L383.027 912.963L382.933 916.939L385.272 917.32L387.399 925.583L395.646 940.656L397.395 938.703L400.018 939.846L400.68 937.131L402.948 936.203L406.21 932.25L410.747 934.298L421.452 932.155L422.043 931.726L419.774 927.773L420.625 924.345L422.468 924.273L422.515 925.845L423.862 926.892L428.211 927.226L427.927 925.13L432.795 922.059L433.882 922.44L437.356 919.13L439.176 919.511L441.066 916.915L446.62 921.297L451.629 928.988L462.075 934.06L466.328 933.345L467.274 934.679L468.691 933.56L471.645 933.798L472.165 928.345L476.041 928.726L477.104 929.035L476.632 932.679L478.357 936.131L479.444 936.203L480.058 933.988L479.822 936.298L480.578 936.369L481.854 933.869L484.548 937.56L485.848 936.822L493.646 939.727L502.059 940.346L505.864 943.727L510.519 942.18L510.07 949.275L506.904 952.204L503.761 952.466L504.422 955.062L497.38 955.633L495.608 953.681L490.551 951.895L489.062 957.824L484.477 963.372L482.138 975.754L477.766 979.23L478.002 981.707L479.822 981.635L480.791 983.326L488.991 985.16L491.307 986.969L498.609 996.065L504.659 1000.35L505.557 1002.88L502.555 1007.4L503.288 1009.71L499.531 1009.78L496.86 1014.09L497.002 1016.04L492.937 1025.52L486.77 1034.97L485.824 1038.19L483.39 1039.47L484.454 1041.09L480.602 1044.09L481.689 1049.09L478.924 1051.26L478.239 1061.17L474.765 1064L476.513 1067.55L481.972 1068.12L483.414 1071.45L479.491 1077.81L480.909 1079.22L481.145 1081.81L478.215 1083.72L475.875 1082.31L475.048 1084.91L477.908 1089.62L484.737 1091.81L485.612 1094.96L484.95 1099.24L482.374 1102.05L476.797 1104.6L475.686 1107.15L472.898 1104.6L469.897 1105.41L465.099 1104.79L469.566 1113.69L466.163 1117.93L464.131 1117.86L462.098 1114.86L458.743 1114.98L452.74 1119.39L462.122 1125.27L469.093 1133.39L469.448 1138.48L466.446 1145.96L467.533 1151.15L470.227 1151.65L476.702 1146.67L478.404 1149.6L475.686 1153.25L479.893 1156.01L483.201 1156.27L485.21 1158.56L485.021 1162.01L486.202 1164.41L482.492 1167.3L483.508 1169.7L482.894 1174.77L485.895 1180.42L484.099 1189.87L485.635 1199.3L482.847 1204.18L488.707 1210.04L485.423 1214.08L478.239 1218.28L473.867 1224.9L468.313 1226.78L465.572 1232.35L466.683 1239.59L465.643 1242.66L458.813 1247.18L456.757 1251.71L455.174 1250.37L452.267 1250.35L451.322 1248.75L446.761 1248.87L444.28 1260.09L439.79 1264.38L436.765 1260.87L424.571 1252.61L418.002 1244.61L409.376 1247.18L406.871 1246.21L402.523 1238.61L401.223 1233.4L396.639 1227.85L390.282 1227.28L383.216 1222.51L379.553 1221.28L372.227 1205.35L364.004 1195.87L359.892 1193.18L348.643 1179.7L346.067 1178.8L332.574 1179.13L328.226 1177.27L326.784 1172.53L329.525 1169.63L329.265 1167.13L331.581 1167.03L335.22 1162.08L341.601 1158.82L339.994 1155.77L339.71 1152.1L340.963 1151.6L343.373 1154.08L348.265 1153.37L349.423 1146.1L352.921 1145.39L352.755 1143.48L350.108 1142.08L347.533 1145.2H345.264L342.617 1143.2L340.727 1139.58L341.53 1135.74L340.349 1134.32L340.798 1132.53L342.263 1132.27L345.193 1134.08L349.045 1131.77L350.581 1132.29L357.387 1126.91L360.057 1127.6L362.68 1123.03L360.104 1121.58L359.017 1117.48L362.066 1114.74L366.674 1116.27L366.461 1121.74L370.384 1121.93L374.898 1125.01L381.846 1122.51L383.689 1118.31L386.383 1115.55L390.566 1115.39L391.369 1113.39L394.961 1113L395.835 1111.62L395.599 1105.5L392.763 1104.19L392.362 1102.48L395.363 1098.15V1095.6L388.297 1092.24L385.036 1091.93L383.594 1090.41L385.91 1081.5L394.134 1071.07L390.967 1067.43L388.297 1069.55L387.21 1069.1L383.027 1065.71L381.68 1062.67L379.057 1062.4L380.451 1058.57L377.828 1055.88L380.758 1054.57L384.445 1045.05L382.98 1039.26L378.537 1035.02L374.472 1036.62L373.102 1034.85L369.77 1023.07L366.367 1021.54L366.485 1018.38L362.468 1017.81L363.72 1010.5L355.874 1010.42L351.763 1005.92L345.122 1005.61L341.577 1001.45L341.176 999.756L343.728 996.375L343.799 994.732L348.312 993.16L349.659 990.16L349.447 987.731L351.361 986.493L351.881 984.779L347.296 982.588L347.131 979.23L342.003 978.421L340.939 973.706L332.999 968.015L333.779 965.61L343.09 959.157L344.839 952.847L349.683 952.466L352.755 947.561L356.796 945.108L357.718 943.061L357.198 938.893L353.984 932.488L350.463 930.988L346.894 927.797L330.754 951.847L324.941 955.538L323.712 959.848L317.875 960.895L311.683 964.253L294.267 968.206L291.998 967.587L290.321 964.229L285.452 966.991L276.118 961.324L275.858 962.848L278.528 965.991V967.467L275.031 967.182L274.322 965.872L266.311 969.206L258.536 970.087L258.04 974.182L250.998 974.135L251.612 973.039L250.336 972.158L250.171 970.468L252.368 969.206L250.312 966.777L250.454 963.61L248.209 960.157L248.186 959.324L249.887 959.157L248.54 957.99L249.084 954.919L247.949 948.18L249.627 946.561L249.745 941.656L253.243 939.513L255.559 933.226L257.236 932.345L255.37 931.059L258.04 930.559L256.598 928.964L256.74 922.511L266.831 912.343L263.948 908.915L264.373 906.581L267.776 903.152L268.107 899.366L274.629 890.294L275.598 885.603L287.012 877.721L287.532 873.697L291.148 869.816L291.242 863.315L292.235 861.077L303.247 855.338L312.274 844.718L313.527 843.718L314.07 844.409Z" fill="white"/>
<path d="M598.904 672.614L600.748 673.566L606.514 672.09L611.547 672.352L611.382 677.519L613.343 680.472L615.541 681.686L620.456 690.996L624.308 694.925L624.072 699.045L627.758 702.974L628.373 705.807L627.569 708.045L629.2 710.379L629.46 713.213L633.761 716.356L634.493 721.785L637.66 723.142L645.695 730.833L650.492 733.524L653.446 734L653.682 737.905L661.362 740.548L662.001 747.168L665.403 750.43L663.395 754.812L659.259 757.502L657.038 760.907L664.954 763.622L668.665 769.551L667.814 771.67L668.594 773.837L666.821 776.694L668.003 779.671L667.625 785.91L664.765 787.553L663.986 790.696L659.425 796.22L657.818 797.387L650.185 798.53L644.891 801.982L644.773 804.554L642.103 808.84L639.22 809.15L634.73 811.793L633.241 811.507V814.222L636.573 817.889L648.909 819.032L652.406 815.793L657.558 814.555L658.29 811.317L661.055 807.031L664.316 805.959L663.844 808.507L665.805 811.079L669.964 810.936L675.022 808.935L685.797 812.317L691.54 810.983L696.408 815.841L697.141 818.151L695.179 822.437L693.761 821.984L693.738 824.484L691.185 828.771L695.203 834.509L691.894 841.248L693.123 842.796L692.391 853.844L697.92 856.749L700.685 860.083L703.096 859.773L705.695 861.631L706.097 864.631L707.586 864.369L709.618 866.798L712.761 867.298L712.525 875.251L720.37 883.561L721.741 887.824L724.081 888.514L724.577 894.253L724.6 896.205L723.088 897.372L720.252 904.658L716.778 910.159L713.399 912.469L709.335 911.111L706.475 913.469L703.899 924.827L697.141 930.351L698.299 935.447L697.873 938.59L692.863 936.256L690.311 936.876L686.766 936.018L681.993 933.542L678.07 937.59L673.415 946.876L670.13 949.091L668.263 952.306L668.57 956.377L667.459 959.139L664.6 959.449L662.048 961.711L653.068 961.806L645.86 959.854L641.866 960.02L640.685 968.712L636.077 968.95L629.224 975.403L622.465 978.594L614.808 986.428L610.177 989.095L609.113 992.809L605.876 989.785L605.119 986.69L604.481 989.642L602.402 990.904L594.911 988.618L593.351 986.428L592.098 980.189L588.436 976.212L583.709 968.14L580.944 965.926L573.524 966.021L572.673 964.807L572.744 962.306L574.729 960.02L570.854 956.806L576.573 951.234L577.305 946.757L574.587 942.686L571.185 933.066L568.183 931.447L565.607 932.113L561.826 930.065L558.471 931.923L554.548 928.089L551.31 917.802L542.921 910.087L539.471 911.302L534.91 908.659L523.165 908.921L520.329 905.468L517.186 905.778L513.807 909.278L515.012 917.564L516.832 919.255L518.841 926.398L520.566 927.78L520.684 933.828L519.904 936.59L517.186 939.042L515.272 938.661L514.02 940.924L510.522 942.186L505.867 943.733L502.062 940.352L493.649 939.733L485.851 936.828L484.551 937.566L481.857 933.875L480.581 936.376L479.825 936.304L480.061 933.994L479.447 936.209L478.36 936.137L476.635 932.685L477.107 929.042L476.044 928.732L472.168 928.351L471.648 933.804L468.695 933.566L467.277 934.685L466.331 933.351L462.078 934.066L451.633 928.994L446.623 921.303L441.069 916.921L439.179 919.517L437.359 919.136L433.885 922.446L432.798 922.065L427.93 925.136L428.214 927.232L423.866 926.898L422.519 925.851L422.471 924.279L420.628 924.351L419.777 927.78L422.046 931.732L421.455 932.161L410.75 934.304L406.213 932.256L402.952 936.209L400.683 937.137L400.021 939.852L397.398 938.709L395.649 940.662L387.402 925.589L385.275 917.326L382.936 916.945L383.03 912.969L381.518 910.23L383.857 903.277L387.426 902.015L388.229 897.943L387.284 894.515L383.975 893.395L381.022 887.633L378.162 887.443L376.626 885.204L375.161 886.252L370.293 883.49L370.765 881.918L369.513 878.751L361.029 885.442L359.682 884.561L357.13 885.8L353.184 882.609L353.491 880.251L362.542 875.513L364.409 867.441L369.466 862.393L372.207 862.797L373.814 858.059L376.059 858.702L378.517 855.392L384.968 857.559L394.232 866.941L396.571 867.822L400.021 865.893L402.526 866.607L406.165 863.679L413.326 863.202L415.335 857.892L420.25 857.13L421.384 854.082L423.795 851.963L432.255 851.916L437.123 849.272L441.731 849.772L445.465 844.796L450.097 841.296L455.225 832.723L460.873 828.794L461.676 825.056L478.171 823.937L483.063 825.723L486.985 823.699L490.837 811.912L491.546 803.244L494.028 798.196L494.311 791.934L497.407 788.6L499.912 786.838L510.121 787.243L513.429 785.433L522.669 786.957L534.201 781.266L541.456 772.718L541.243 769.36L545.899 759.288L544.717 751.002L545.686 749.525L547.269 749.383L544.481 743.453L546.206 740.239V736.834L550.79 732.905L549.538 729.69V722.761L553.343 717.975L554.217 712.76L555.635 711.379L555.8 706.783L553.343 705.569L553.603 699.711L563.362 690.187L563.292 684.162L572.933 681.257L583.567 680.329L592.169 677.019L592.736 675.662L598.904 672.614Z" fill="white"/>
<path d="M886.488 556.25L888.922 559.727L887.552 563.084L889.537 565.918L894.83 568.846L898.091 569.061L899.817 571.728L902.723 572.632L902.581 585.991L908.182 597.349L908.726 604.588L911.75 608.278L912.507 611.707L915.91 615.684L916.5 618.279L920.045 617.446L923.873 621.161L931.034 617.327L930.254 623.232L933.09 625.947L928.34 636.472L935.784 636.591L940.77 638.853L942.495 638.615L950.435 644.972L953.507 642.901L956.509 637.638L958.517 636.114L962.936 634.495L968.821 635.971L969.27 647.639L972.011 652.521L971.656 657.211L970.049 661.188L971.066 665.474L973.358 668.474L970.002 678.38L970.569 679.785L973.854 680.642L976.879 687.428L969.081 691.643L968.348 697.644L962.724 703.597L963.338 707.311L961.353 711.788L963.244 714.645L965.678 715.24L967.686 717.526L970.286 717.455L972.72 715.002L975.792 717.788L978.155 716.55L980.802 718.503L989.12 718.526L990.585 723.408L998.218 735.242L997.32 738.1L997.982 739.386L995.761 744.886L997.273 745.434L1002.64 743.195L1003.35 745.981L1007.36 745.696L1011.29 751.934L1012.68 751.196L1013.04 748.458L1015.37 753.053L1018.16 752.482L1024.4 753.577L1027.57 751.601L1030.9 753.649L1030.57 758.959L1027.14 768.245L1027.57 774.722L1025.02 781.27L1025.04 788.604L1017.31 792.009L1012.94 790.509L1012.16 792.605L1020.79 798.819L1023.5 805.368L1026.93 807.654L1025.7 810.868L1029.51 821.774L1033.78 822.131L1034.78 823.107L1029.36 827.846L1021.61 829.37L1020.6 831.965L1016.08 827.251L1010.08 830.656L990.916 829.775L979.644 831.346L976.974 830.298L975.532 828.274L969.955 828.06L964.52 831.513L961.637 831.608L957.336 834.251L953.744 829.965L942.448 834.132H935.264L927.891 828.108L924.393 826.798L917.895 822.06L916.028 819.583L910.734 817.583L907.048 817.464L903.716 815.488L900.147 817.964L892.845 816.988L884.243 821.631L880.344 822.631H864.417L852.435 836.561L847.52 847.3L831.167 849.919L830.671 848.467L834.475 845.228L834.31 839.918L832.821 836.18L828 833.942L819.328 836.394L814.672 840.942L811.34 839.704L808.197 841.442L805.598 840.418L793.971 842.252L788.985 841.299L787.354 842.061L784.235 841.871L782.179 839.752L780.761 839.68L776.389 841.633L774.522 848.467L771.332 852.539L768.662 852.824L767.055 851.848L765.968 853.015L767.953 861.825L765.826 865.683L766.133 869.111L767.338 871.374L773.128 876.422L772.017 885.065L768.165 888.185L766.109 892.066L759.398 892.947L753.703 891.399L750.276 894.018L747.913 893.876L745.266 891.328L740.918 890.685L741.084 887.708L739.406 887.566L739.146 883.994L737.255 883.541L732.623 885.994L729.48 890.328L725.605 892.114L724.565 894.257L724.069 888.518L721.729 887.827L720.359 883.565L712.513 875.255L712.749 867.302L709.606 866.802L707.574 864.373L706.085 864.635L705.683 861.635L703.084 859.777L700.674 860.087L697.909 856.753L692.379 853.848L693.112 842.8L691.883 841.252L695.191 834.513L691.174 828.775L693.726 824.488L693.75 821.988L695.167 822.441L697.129 818.155L696.396 815.845L691.528 810.987L685.786 812.321L675.01 808.939L669.953 810.94L665.793 811.082L663.832 808.511L664.305 805.963L661.044 807.034L658.279 811.321L657.546 814.559L652.394 815.797L648.897 819.036L636.561 817.893L633.229 814.226V811.511L634.718 811.797L639.208 809.154L642.091 808.844L644.761 804.558L644.88 801.986L650.173 798.534L657.806 797.391L659.413 796.224L663.974 790.7L664.754 787.557L667.613 785.914L667.991 779.675L666.81 776.698L668.582 773.841L667.802 771.674L668.653 769.555L664.943 763.626L657.026 760.911L659.248 757.506L663.383 754.815L665.392 750.434L661.989 747.172L661.351 740.552L653.67 737.909L653.434 734.004L650.48 733.528L645.683 730.837L637.648 723.146L634.482 721.789L633.749 716.36L629.448 713.217L629.188 710.383L627.558 708.049L628.361 705.811L627.747 702.977L624.06 699.049L624.296 694.929L620.445 691L615.529 681.69L613.331 680.475L611.37 677.523L611.535 672.356L606.502 672.094L600.736 673.57L598.893 672.618L608.889 669.546L612.079 666.641L615.009 660.998L618.46 659.093L617.254 656.997L620.917 653.187L621.461 651.235L618.743 640.877L620.397 639.519L624.226 642.353L627.085 642.924L629.543 642.234L631.244 639.186L636.609 636.305L636.868 632.543L638.428 629.352L640.579 628.018L640.602 625.804L643.367 625.399L644.147 622.804L647.952 620.732L648.59 617.803L650.527 617.303L654.356 613.588L651.473 606.421L651.615 604.111L654.119 602.635L654.474 600.397L659.815 597.635L667.046 596.849L668.417 597.658L668.487 601.564L672.599 602.278L675.671 601.23L677.278 601.968L679.453 599.778L688.078 597.706L690.677 600.564L695.995 600.016L703.817 604.778H707.314L714.356 597.944L718.468 597.039L720.548 594.706L727.07 592.825L732.316 593.92L735.459 592.991L737.019 594.468L743.163 595.134L754.01 593.301L755.782 595.563L759.705 597.563L759.823 599.587L761.643 599.159L762.045 600.016L759.469 607.159L761.099 609.564L759.989 610.898L758.996 618.351L762.305 619.446L763.982 624.947L766.015 627.423L765.07 631.209L761.147 634.828L762.092 639.4L763.841 641.543L768.543 640.21L771.545 641.615L777.831 641.377L780.761 638.757L780.336 637.591L782.202 634.138L786.787 634.757L787.685 632.971L791.891 633.471L796.689 638.138L799.69 638.543L802.053 637.71L803.896 635.352L807.039 637.829L813.278 634.328L817.083 635.567L818.949 633.638L817.626 631.9L817.839 628.637L816.445 627.304V625.471L821.1 619.637L824.408 620.494L826.063 618.041L826.771 614.636L824.597 610.731L827.74 605.778L826.63 603.826L828.497 602.207L828.402 596.063L834.783 590.205L835.444 588.181L838.28 588.253L840.69 586.919L844.188 587.753L847.26 586.396L849.151 587.134L849.552 589.039L860.163 586.586L861.557 584.038L861.108 579.943L863.282 577.823L862.857 574.228L870.23 571.466L872.049 568.87L872.333 565.203L873.798 563.941L880.864 562.084L880.58 558.75L881.691 556.631L883.865 557.25L886.488 556.25Z" fill="white"/>
</svg>
