<svg width="191" height="195" viewBox="0 0 191 100" fill="none" color="currentColor" xmlns="http://www.w3.org/2000/svg">
<path d="M13.384 137.56V179H4.312V137.56H13.384ZM29.5908 179H20.9668V151H29.0868L29.6468 153.912C31.3828 151.504 34.5748 150.104 38.2148 150.104C44.8788 150.104 48.7428 154.36 48.7428 161.696V179H40.1188V163.768C40.1188 160.24 38.1588 157.944 35.1908 157.944C31.7748 157.944 29.5908 160.184 29.5908 163.656V179ZM53.6957 149.6C53.6957 142.096 60.0237 136.776 68.9277 136.776C77.8317 136.776 83.4317 141.704 83.4317 149.544H74.4157C74.4157 146.632 72.2317 144.84 68.8157 144.84C65.1197 144.84 62.7677 146.52 62.7677 149.264C62.7677 151.784 64.0557 153.016 66.9677 153.632L73.1837 154.92C80.5757 156.432 84.1037 159.96 84.1037 166.512C84.1037 174.52 77.8317 179.728 68.3117 179.728C59.0717 179.728 53.0797 174.744 53.0797 166.96H62.0957C62.0957 169.984 64.3357 171.664 68.3677 171.664C72.4557 171.664 75.0317 170.04 75.0317 167.408C75.0317 165.112 73.9677 163.936 71.2237 163.376L64.8957 162.088C57.5037 160.576 53.6957 156.376 53.6957 149.6ZM100.365 179H91.7407V158.168H86.4207V151H91.7407V142.32H100.365V151H105.685V158.168H100.365V179ZM118.017 179.728C112.081 179.728 108.385 176.256 108.385 170.768C108.385 165.616 112.025 162.424 118.745 161.92L126.585 161.304V160.856C126.585 158.112 124.905 156.656 121.825 156.656C118.185 156.656 116.225 158.056 116.225 160.576H109.057C109.057 154.248 114.265 150.104 122.273 150.104C130.393 150.104 134.985 154.64 134.985 162.648V179H127.369L126.809 175.304C125.913 177.88 122.217 179.728 118.017 179.728ZM121.041 173.344C124.345 173.344 126.641 171.72 126.641 168.528V167.016L122.273 167.408C118.521 167.744 117.177 168.584 117.177 170.376C117.177 172.392 118.409 173.344 121.041 173.344ZM152.208 179H143.584V158.168H138.264V151H143.584V142.32H152.208V151H157.528V158.168H152.208V179ZM174.123 179.728C165.667 179.728 159.619 173.568 159.619 164.944C159.619 156.208 165.499 150.104 173.955 150.104C182.747 150.104 188.235 155.872 188.235 165V167.184L167.907 167.296C168.411 170.992 170.483 172.728 174.291 172.728C177.539 172.728 179.835 171.552 180.451 169.536H188.347C187.339 175.752 181.795 179.728 174.123 179.728ZM174.011 157.104C170.595 157.104 168.691 158.616 168.019 161.976H179.667C179.667 159.008 177.483 157.104 174.011 157.104Z" fill="#FEFEFE"/>
<path d="M60.3894 40.6552L60.5145 40.3974L60.9806 40.1826L61.3587 39.6614L61.9158 39.3664L62.1432 39.4208L62.1744 39.8504L62.3762 39.8676L62.3563 40.2256L62.8793 40.3029L63.1977 40.6094L63.4819 40.6266L63.8941 40.3115L64.5791 40.4977L65.3863 40.3917L65.6336 39.9249L66.0969 39.5497L66.2305 38.51L65.5341 37.9029L65.3892 37.6308L65.3522 37.2183L65.608 36.7544L65.3693 35.6947L65.5 35.5543L65.6933 35.6718L66.0145 35.6374L66.3982 35.1476L66.6228 34.3256L67.1486 34.0908L67.3192 34.0994L67.5664 34.3543L67.9416 34.3772L68.1378 34.2855L68.7375 34.4001L70.136 34.1796L70.4486 34.3027L70.8267 34.0937L71.2274 34.2426L71.7874 33.6956L72.8305 33.4006L73.4104 33.6698L73.5895 34.1194L73.6094 34.7581L73.1517 35.1476L73.2114 35.3223L75.1784 35.0073L75.7696 33.7156L77.2107 32.0401H79.1265L79.5954 31.9198L80.6301 31.3613L81.5084 31.4788L81.9376 31.1809L82.3384 31.4186L82.7818 31.4329L83.4185 31.6735L83.643 31.9714L84.4247 32.5413L84.8453 32.6989L85.7322 33.4235H86.5963L87.9549 32.9223L88.387 33.4378L88.9043 33.1199L89.2511 33.1084L89.9048 32.6931L90.5756 32.7189L90.749 32.9624L91.0702 33.0884L92.426 32.8993L94.7312 33.0053L95.4531 32.5958L95.996 33.1628L97.4968 33.3032L97.8436 33.7414L100.382 34.1137L100.933 33.7328L101.368 32.991L101.993 33.581L102.431 33.5208L102.804 33.6354L103.597 34.5175L104.017 34.6521L103.619 34.8354L103.31 35.9639L102.05 37.1296L102.11 38.1807L101.857 38.4298L102.096 38.6189L102.269 39.3692L101.567 39.8275L101.53 40.1053L101.61 40.7096L101.851 40.7841L101.763 41.3569L101.9 41.6891L102.488 41.6061L103.736 42.6801L104.04 43.3388L104.407 43.6797L104.827 44.6448L105.203 44.9542L104.913 45.5098L105.021 46.4778L105.171 46.7499L105.009 46.9189L105.021 47.1452L105.589 47.4258L106.24 47.2855L106.428 47.7094L106.811 47.7724L106.641 48.6946L105.987 49.992L105.99 50.519L105.745 50.983L105.356 51.3238L105.203 52.1573L105.47 52.5697L105.41 53.1225L105.555 53.3459L105.649 53.2084L105.868 53.3373L106.03 53.2771L106.033 53.6036L106.189 53.7525L106.109 53.9187L107.138 53.89L107.752 53.6924L108.028 53.4891L108.443 52.8131L108.79 52.7072L108.974 53.2972L109.418 53.2914L109.912 53.0308L110.18 53.2456L110.185 53.449L110.367 53.8471L110.109 54.1191L109.722 54.2337L109.486 54.7664L108.753 55.4739L108.662 55.8748L108.815 56.187L108.775 56.6452L108.335 57.2467L108.576 57.7851L108.54 57.9599L107.877 58.5957L107.749 58.9394L107.258 59.5265L107.425 59.7757L107.178 60.1881L106.317 61.0273L106.2 61.265L106.254 61.5772L106.163 61.4798L106.044 61.5571L105.961 62.2531L105.399 62.2302L105.546 62.6111L104.748 62.7486L103.972 62.1385L103.375 61.8922L102.96 62.0383L103.207 62.2989L102.994 62.7256L102.642 62.8488L102.221 62.7858L102.354 63.224L101.442 63.3529L101.235 63.2011L100.774 63.244L100.484 63.055L100.172 63.1295L100.112 63.3271L100.316 63.5963L100.106 64.4298L99.1767 65.1601L98.7333 65.7472L98.4462 65.7043L98.1989 65.962L98.1392 66.1024L98.4519 66.257L98.4377 66.3544L97.9033 66.6236L97.6844 66.9988L97.5338 67.0446L97.332 66.7525L97.025 66.6236L96.2149 66.8528L95.8795 67.0275L95.7715 67.268L95.3821 67.142L95.0438 67.6976L94.6488 67.7664L94.2082 68.6342L93.3413 68.8032L93.0741 68.9779L93.165 68.4566L93.4976 67.9726L93.0599 67.1306L92.7102 67.1907L92.4544 66.9616L91.8916 66.9301L91.7467 66.552L91.3857 67.2738H91.1185L90.7263 66.9272L90.2999 67.2967L90.2715 67.5831L89.902 67.6518L89.5666 67.1735L89.7399 67.0217L89.7911 66.7468L90.2487 66.3029L90.0441 65.8102L89.72 65.8847L89.4955 65.4952L89.0151 65.2432L88.8787 64.9424L88.4381 64.8279L88.1198 64.868L87.773 65.435L87.2187 65.5095L86.872 65.372L86.4143 64.9424L86.1131 63.751L85.8089 63.6507L85.4451 63.8025L84.9363 63.2841L84.2399 63.8283L84.0495 64.1806L83.7993 64.2866L83.373 64.7763L82.9694 64.8909L82.398 65.2947L82.1593 65.1601L81.7272 65.4494L81.7869 66.0394L81.1531 66.8356L81.3009 67.8036L80.7694 68.3392L80.8632 69.0867L80.5022 69.7913L80.6159 70.1521L80.3203 70.407L80.0218 70.387L79.9792 70.9025L79.7944 70.9369L79.55 70.5932L79.5386 70.1378L79.1947 70.0949L78.5665 70.725L77.8644 70.9254L77.4267 70.5216L77.0686 70.5989L77.0373 70.7479L76.6024 70.6018L76.1021 70.7307L75.7923 70.5789L74.9027 70.702L74.3768 71.0085L74.1437 71.3321L73.453 71.524L73.2967 72.0711L73.0665 72.2544L72.6572 72.1026L72.3843 71.8219L72.0716 71.7904L71.4378 72.0224L69.8034 71.3722L69.5789 71.3923L69.3714 71.7474L68.9592 71.7789L68.4106 71.4152L68.2202 71.4467L68.1264 71.6443L67.538 72.031L67.1628 71.6443L66.7905 71.756L66.1822 71.2061L66.1765 70.4758L66.4863 70.3297L66.5943 69.8629L67.2225 69.4104L67.7427 68.6027L67.6261 67.9182L67.2367 67.3196L67.4641 67.1649L67.5494 66.5979L67.8535 66.3229L67.6375 66.0938L67.9047 65.7959L67.231 65.3291L66.7763 65.8847L66.4011 66.0079L66.0742 65.8847L65.9861 66.0193L64.8576 66.406L64.5819 66.1482L64.2124 66.7611L63.9395 66.3086L63.678 66.2313L63.4961 66.7439L63.7207 67.4141L62.4558 67.3425L61.4866 67.0733L61.2137 66.7926L60.5486 66.5778L60.3752 66.678L60.4093 67.0504L60.3098 67.122L59.8152 67.0275L59.6561 66.1396L59.946 65.7558L60.1648 65.8045L60.6395 65.2432L60.0369 64.3152L60.0568 64.0861L60.3013 64.0718L60.3155 63.9515L59.9119 63.4531L60.108 62.9032L60.4434 62.6197L60.9323 62.4564L60.9152 61.5457L61.2336 60.6864L61.0488 60.0535L60.6765 60.0077L60.469 59.6554L60.415 58.9164L59.9971 57.7622L59.332 57.4042L59.1814 57.4644L58.9142 56.8285L58.3315 56.2844L58.3855 55.9722L58.0444 55.6686L57.6039 55.6829L57.1633 56.3388L56.6346 56.7054L56.7085 56.8715L56.4811 57.1522L56.285 57.178L56.3248 57.5589L56.0263 57.6706L56.0491 58.2806L55.8416 58.4954L55.2504 58.8907L55.1566 58.6501L54.6336 58.5327L54.4289 58.7933L53.6501 59.1885L52.8315 58.8993L52.3568 59.6468L51.9361 60.0306L51.7912 60.3943L51.6434 60.2797L51.6775 60.0306L51.4188 59.7442L51.3762 59.4262L51.072 58.9365L51.0322 57.092L51.1204 56.734L51.4131 56.4763L51.433 56.1326L51.9276 54.9154L51.6945 54.6146L51.6405 54.0189L51.2255 53.996L51.9276 52.9277L51.5751 52.9707L51.7826 51.8995L51.5723 51.5129L51.4785 51.5902L51.1602 51.4327L50.7253 51.4298L50.4638 51.5358L50.3984 51.8422L50.063 51.7878L50.1881 51.1864L50.6116 50.7768L50.5803 50.4904L50.3558 50.1868L50.2989 49.6111L50.441 48.5657L50.9214 48.5457L51.7883 48.7805L52.8684 48.7691L53.1754 48.497L53.5193 48.4598L53.6529 48.1275L53.616 47.6378L53.8405 47.2511L54.2356 46.9848L54.7956 45.8678L55.2674 45.3809L55.8416 45.6788L56.2679 45.7819L56.5749 45.7074L57.1775 45.9881L57.2287 45.61L57.0894 44.9971L57.9023 44.3327L58.2121 42.9665L58.5561 42.683L59.0449 42.8462L59.4514 42.5684L59.8692 41.9068L60.2103 41.0304L60.3922 40.8901L60.3894 40.6552Z" fill="currentColor"/>
<path d="M3.42792 50.2643L4.27496 50.27L4.33465 49.7774L5.26979 49.6714L6.23337 49.2704L6.31864 49.428L6.73931 49.4623V49.2847L6.41812 48.9067L6.44939 48.7234L7.57213 49.405L8.15767 49.0728L8.35948 49.4766L8.63234 49.5511L10.7272 49.0757L11.4719 48.6718L12.174 48.5458L12.3218 48.0274L13.021 47.5835L14.9624 44.6908L15.3916 45.0746L15.8151 45.255L16.2016 46.0254L16.2642 46.5267L16.1533 46.773L15.6673 47.068L15.2978 47.658L14.7151 47.7038L14.5047 48.4628L13.3848 49.2389L13.291 49.5282L14.2461 50.2127L14.374 50.7798L14.9908 50.8772L15.0107 51.281L15.5621 51.5445L15.4996 51.7507L15.2693 51.8996L15.2949 52.1918L15.1329 52.5526L14.59 52.7417L14.5815 52.9393L14.2745 53.346L14.3228 53.5493L14.7492 54.0505L15.5479 54.0878L16.0425 54.6291L16.9861 54.6377L16.8355 55.5169L17.3187 55.5857L17.3045 55.9666L17.7138 56.1499L18.1146 57.5676L18.2794 57.7795L18.7683 57.5876L19.3027 58.0975L19.4789 58.7934L19.0355 59.939L18.683 60.0966L18.9985 60.4202L18.8308 60.8813L19.1464 60.9128L19.3084 61.2794L19.8115 61.6861L19.9422 61.7405L20.2634 61.4856L20.6443 61.9238L19.6551 63.1783L19.3766 64.2495L19.55 64.4328L19.9422 64.47L20.7921 64.8738V65.1803L20.4311 65.7015L20.4794 65.9077L20.8205 66.0653L20.8489 66.8013L20.7438 66.9674L20.3117 67.0133L20.2151 67.2538L19.712 67.2739L19.388 67.6061L19.1663 68.1102L18.3306 68.4109L17.7877 68.0415L17.3159 68.0185L17.3414 67.3598L16.7872 67.1765L16.4205 67.5059L16.5513 67.9985L16.8611 68.1732L16.5456 68.7231L16.2244 68.6401L15.4058 69.2873L15.221 69.2243L14.7577 69.5021L14.4052 69.2845L14.229 69.316L14.175 69.5308L14.3171 69.7026L14.2205 70.1637L14.4479 70.5991L14.7662 70.8396H15.0391L15.3489 70.4645L15.6673 70.6334L15.6872 70.8626L15.2665 70.9485L15.1272 71.822L14.5388 71.9079L14.2489 71.6101L14.0983 71.6702L14.1324 72.1113L14.3257 72.4779L13.5582 72.8703L13.1205 73.466L12.8419 73.4774L12.8732 73.7782L12.5435 74.1276L12.407 73.7037L11.8954 73.9729L11.1479 73.8183L9.937 74.4025L9.32873 73.7495L8.891 73.7352L8.46749 73.3085L7.83079 73.7667L7.17135 73.2798L7.6972 72.6555L7.59487 72.4149L7.14577 72.2173L7.67162 71.7332L7.27937 71.4927L7.46412 71.149L7.29926 70.917L7.8649 70.5303L7.72846 70.3069L7.85637 70.1695L7.37032 69.8487L7.24526 69.6797L7.33906 69.4764L7.12019 69.4334L6.90985 69.1613L7.09177 69.041L6.72794 68.1789L6.23621 68.325L5.87807 68.2734L4.88039 67.2768L4.2778 66.8672L4.29201 66.1168L3.87986 64.5215L3.45066 63.8886L3.74911 62.6255L3.44782 62.3448L2.74859 62.2446L2.29381 61.5343L2.41888 61.3367L2.26823 61.4112L1.88451 60.5462L2.18011 60.4947L2.02094 60.2799L2.27391 59.7787L1.17675 59.2288L1.1938 58.7447L0.568478 58.7762L0.281397 58.55L0.235919 57.7309L0 57.2468L0.0710598 57.1409L0.517315 57.1466L0.523 56.7828L0.756076 56.3189L0.574163 56.2158L0.53437 55.852L0.881141 55.4854L0.591218 54.9241L0.508788 54.1422L0.901038 53.9188L0.793027 53.7011L0.912408 53.3832L1.16538 53.2772L1.31887 52.9737L1.89588 52.4868L1.74523 52.1975L1.84471 51.9856L2.13464 51.8624L2.36771 52.0171L2.5411 51.9684L2.39329 51.2208L2.66332 51.1636L2.62637 50.8686L2.92766 50.6824L2.99588 50.8113L3.31139 50.7998L3.24317 50.4848L3.42792 50.2643Z" fill="currentColor"/>
<path d="M104.017 34.652L104.523 35.0644L104.947 34.947L105.015 34.5117L104.862 34.337L104.853 34.0305L105.069 33.704L105.08 32.5269L105.481 32.2777L105.527 32.1202L105.498 31.851L105.183 31.6133L105.115 31.3583L106.135 30.2901L106.49 30.164L106.681 29.8805L107.107 29.6113L107.658 29.4681L108.113 28.8867L109.131 29.3105L110.026 29.9521L110.362 30.3416L110.896 30.5507L111.14 30.8199L111.615 30.8342L110.634 29.574L110.771 29.1845L111.467 28.5115L111.655 28.6318L111.985 29.302L112.55 29.7831L112.624 30.0953L113.326 30.4762L113.684 30.2614L114.369 30.2099L115.401 31.8624L115.671 31.9197L116.277 32.3837L116.177 32.1231L116.265 31.4414L116.609 31.1435L116.603 30.7082L116.737 30.5879L117.667 30.2729L117.891 30.3588L118.161 30.8972L118.781 30.4247L118.937 30.5077L119.076 30.8944L119.29 30.9116L119.608 30.6853L119.662 30.6022L119.332 30.1096L119.366 29.7316L119.074 29.3564L119.227 29.2304L119.568 29.4452L119.918 29.4738L120.557 29.955L121.387 29.6342L121.33 29.8776L120.805 30.2299L121.021 30.4676L121.467 30.4619L121.549 30.6652L123.195 30.1411L123.866 30.3216L124.363 30.6882L124.716 31.4357L124.863 31.5016L125.733 30.8428L126.418 31.9942L126.865 32.2577L126.99 33.0653L128.266 33.1398L129.124 33.4921L129.983 33.5522L130.378 33.1627L130.639 33.3947L131.111 33.5379L131.381 34.2425L131.836 34.6692L132.401 34.0677L133.16 34.5174L133.243 34.2482L133.624 34.2625L133.607 34.7809L134.226 34.5117L134.38 35.0157L133.916 36.611L134.28 37.0636L134.977 37.4817L135.542 37.2268L135.514 36.7027L135.929 36.3275L136.171 36.2272L136.455 36.4077L136.722 36.1671L137.597 36.17L137.694 35.8291L137.97 35.5513L137.938 34.864L138.029 34.7523L137.825 34.2568L137.956 34.1078L138.436 33.9847L139.027 34.5317L139.118 33.5207L139.291 33.7785L139.453 34.5546L140.084 34.6692L140.255 34.5861V34.3685L140.607 34.3141L141.136 33.9045L141.156 34.7379L141.52 34.8325L141.693 35.0301L141.401 35.3652L141.446 35.7719L141.796 36.2215L142.242 36.4449L142.495 36.9547L142.432 37.4674L142.802 38.1061L143.879 38.3896L144.092 38.5958L144.064 38.8736L144.618 38.8565L145.26 39.2431L146.46 38.8708L146.778 39.3548L147.267 39.7472L147.958 39.6383L149.155 38.9767L149.433 39.0054L149.436 39.2202L149.598 38.5099L150.152 38.3323L150.741 37.834L150.797 37.3385L150.479 36.8573L150.283 34.0019L150.388 33.3632L150.701 33.1398L151.193 33.1999L151.502 33.7756L151.681 33.7011L151.855 33.8272L152.077 33.6696L152.605 33.6038L154.14 34.2052L154.947 34.7608L155.476 35.6573L156.519 35.769L156.732 36.17L157.739 36.1757L158.998 35.8836L160.752 35.9151L160.879 35.6802L160.794 34.1222L161.024 33.8673L161.587 33.641L161.857 33.0195L162.736 32.1202L163.702 32.2433L164.029 32.4753L164.327 33.7155L164.62 34.1422L164.694 34.8267L166.152 34.7752L166.777 34.5203L167.249 34.7752L168.244 34.8239L168.452 34.9699L168.187 36.3389L168.452 36.9175L168.531 37.9543L168.292 38.212L168.122 38.7018L167.343 39.4894L167.207 40.2341L167.744 40.6637L167.755 41.2565L167.443 41.6117L167.096 43.3129L165.993 43.6709L165.257 44.4099L164.418 45.0199L164.211 45.7474L163.784 46.177L163.31 46.1913L162.886 46.7441H162.542L162.519 47.0247L162.329 47.0591L161.738 48.3938L161.522 50.9055L160.965 54.835L161.03 55.9348L161.167 56.2728L161.451 56.2613L161.334 56.6193L160.757 56.8284L160.908 57.3067H160.555L160.442 57.4356L160.186 57.3497L159.839 57.5215L159.691 57.2752L159.41 57.6962L159.327 57.2781L159.097 57.0404L158.998 57.2695L158.594 57.2294L158.478 57.4528L157.631 56.7654L157.261 57.1377L156.445 57.3755L156.34 57.5101L156.286 57.3439L155.209 57.4041L154.763 57.7564L154.584 57.7392L154.717 57.9483L154.561 58.1803L154.288 58.1201L154.012 57.8566L153.728 58.0285L153.651 57.7936L153.637 58.1344L153.484 58.1144L153.546 57.8709L153.39 57.785L153.208 58.0084L153.353 58.3206L153.211 58.3865L153.216 58.1659L153.105 58.143L152.986 58.4208L152.753 58.3263L152.654 58.5325L152.506 58.4552L152.429 58.0399L151.861 58.0371L151.75 58.1803L151.727 59.3717L151.411 59.5407L151.215 59.5493L151.255 59.3488L150.843 59.2944L150.715 59.0996L149.712 59.1684L149.462 58.9135L148.484 58.7531L148.066 58.4896L148.126 57.9683L147.904 57.9769L147.733 57.7793L147.907 57.4728L147.776 57.2237L147.159 56.8571L146.815 56.9315L146.54 56.5735L146.5 55.6398L146.414 55.6771L145.931 54.2765L145.701 54.1648L145.511 53.8068L145.582 53.6379L145.3 53.2541L145.386 53.0249L145.266 52.9619L145.312 52.1514L145.215 51.8994L145.067 51.9252L145.01 51.3409L144.757 51.444L144.396 51.1576L144.172 51.2693L143.981 51.633L143.598 51.5757L143.439 51.2807L143.22 51.444L142.879 51.4468L142.807 51.1576L142.381 50.7767L142.051 49.9976L142.06 49.5136L141.807 49.422L141.79 49.2644H141.614L141.571 49.0267L141.196 49.0983L141.017 48.8062L140.821 48.8377L140.434 48.431L140.067 48.3451L139.746 47.8553L139.445 47.9011L139.252 48.1446L139.183 48.9208L139.019 49.0811L138.541 48.8606L137.882 49.0983L137.006 49.0153L136.196 49.1356L136.156 48.9809L136.02 49.2043L136.327 49.2988L135.966 49.4306L136.179 49.6482L136.048 49.9976L135.841 49.9661L136.011 50.3012L135.648 50.5418L135.69 50.748L135.414 50.7881L134.658 50.5132L134.522 50.6191L133.678 49.989L133.482 50.0062L133.465 50.2239L133.112 50.0721L132.984 50.3241L132.745 50.2554L132.751 50.5418L132.345 50.7022L132.245 50.6134L132.214 50.7566L132.077 50.665L131.853 50.9542L131.637 50.7537L130.958 51.0516L130.418 52.0913L130.082 52.1801L129.75 52.1371L129.451 51.8793L129.426 51.3094L129.258 51.0115L128.718 50.8339L128.402 50.5876L128.016 50.7938L128.013 50.559L127.78 50.6335L127.45 50.5504L127.237 50.3442L127.126 50.453L126.85 50.3155L126.208 50.5876L125.867 51.0001L125.648 50.7394L125.389 50.8712L125.133 50.7623L125.097 50.2697L124.667 50.1809L124.625 49.8688L124.423 50.0435L124.23 49.4076L123.931 49.1413L122.774 49.4535L122.365 49.4277L121.93 48.8377L121.791 48.8635V48.2391L121.529 48.3107L121.728 47.9527L120.517 48.368L118.428 48.6028L118.295 48.7947L118.127 48.6114L117.647 48.6028L116.765 49.0267L115.967 49.0496L115.66 49.4162L115.549 49.2988L115.347 49.4993L114.949 49.5795L114.747 49.8544L114.313 49.8516L113.963 50.0291L113.866 50.2325L112.709 49.78L112.405 50.5361L112.078 50.4129L111.874 50.1208L111.541 50.2411L111.325 50.5046L111.354 50.9313L111.587 51.1977L111.467 51.4984L111.504 52.3032L111.118 52.3863L110.794 53.0565L110.185 53.4488L110.18 53.2455L109.912 53.0307L109.418 53.2913L108.974 53.297L108.79 52.707L108.443 52.813L108.028 53.4889L107.752 53.6923L107.138 53.8899L106.109 53.9185L106.189 53.7524L106.033 53.6035L106.03 53.277L105.868 53.3371L105.649 53.2082L105.555 53.3457L105.41 53.1223L105.47 52.5696L105.203 52.1571L105.356 51.3237L105.746 50.9829L105.99 50.5189L105.987 49.9919L106.641 48.6945L106.811 47.7723L106.428 47.7093L106.24 47.2854L105.589 47.4257L105.021 47.145L104.984 46.9847L105.171 46.7498L105.021 46.4777L104.913 45.5097L105.203 44.954L104.827 44.6447L104.407 43.6795L104.04 43.3387L103.736 42.68L102.488 41.606L101.9 41.689L101.763 41.3568L101.851 40.784L101.61 40.7095L101.53 40.1052L101.567 39.8274L102.269 39.3691L102.096 38.6187L101.857 38.4297L102.11 38.1805L102.05 37.1294L103.31 35.9638L103.619 34.8353L104.017 34.652Z" fill="currentColor"/>
<path d="M34.643 46.4206L35.0637 46.2689L35.2143 45.9968L35.4446 46.0426L35.7715 45.7476L35.8653 45.4154L35.851 44.6879L35.6435 44.5218L35.4019 43.6626L35.1831 43.4592L35.0381 42.4625L35.4446 42.0415L35.8226 42.0043L36.1637 42.4196L37.5764 42.3881L38.125 42.706L38.5399 42.5599L39.549 43.4879L39.9384 44.7251L40.4102 45.1862L40.8139 44.9628L41.2686 45.2091L41.5785 45.129L41.9394 45.3237L42.3487 46.4808L42.6756 46.9705L42.5875 47.509L41.8996 48.1792L42.3658 48.5658L42.127 48.8408L42.1185 49.1415L42.2208 49.2876L43.1134 49.2761L43.4459 49.5425L44.0144 50.5134L44.455 50.9917L44.6056 51.7421L44.7932 52.0056L45.6942 52.2805L45.9444 52.1287L46.0211 51.7736L46.1121 52.1459L46.5015 52.5096L46.6294 52.0628L47.1865 51.7421L48.1074 50.7998L48.9204 50.416L49.7447 49.6398L50.2989 49.6112L50.3558 50.1869L50.5803 50.4905L50.6116 50.7769L50.1881 51.1864L50.063 51.7879L50.3984 51.8423L50.4638 51.5359L50.7253 51.4299L51.1602 51.4328L51.4785 51.5903L51.5723 51.5129L51.7826 51.8996L51.5752 52.9707L51.9276 52.9278L51.2255 53.9961L51.6405 54.019L51.6945 54.6147L51.9276 54.9154L51.433 56.1327L51.4131 56.4764L51.1204 56.7341L51.0323 57.0921L51.0721 58.9366L51.3762 59.4263L51.4188 59.7442L51.6775 60.0306L51.6434 60.2798L51.7912 60.3944L51.9361 60.0306L52.3568 59.6469L52.8315 58.8993L53.6501 59.1886L54.4289 58.7934L54.6336 58.5327L55.1566 58.6502L55.2504 58.8908L55.8416 58.4955L56.0491 58.2807L56.0263 57.6707L56.3248 57.559L56.285 57.1781L56.4811 57.1523L56.7085 56.8716L56.6346 56.7055L57.1633 56.3389L57.6039 55.683L58.0444 55.6687L58.3855 55.9723L58.3315 56.2845L58.9142 56.8286L59.1814 57.4645L59.332 57.4043L59.9972 57.7623L60.415 58.9165L60.469 59.6555L60.6765 60.0077L61.0488 60.0536L61.2336 60.6865L60.9153 61.5457L60.9323 62.4565L60.4434 62.6198L60.108 62.9033L59.9119 63.4532L60.3155 63.9515L60.3013 64.0718L60.0569 64.0862L60.037 64.3153L60.6395 65.2432L60.1649 65.8046L59.946 65.7559L59.6561 66.1397L59.8152 67.0275L60.3098 67.1221L60.4093 67.0505L60.3752 66.6781L60.5486 66.5779L61.2137 66.7927L61.4866 67.0734L62.4558 67.3426L63.7207 67.4142L63.4961 66.744L63.6781 66.2313L63.9396 66.3087L64.2124 66.7612L64.5819 66.1483L64.8577 66.406L65.9861 66.0194L66.0742 65.8848L66.4011 66.0079L66.7763 65.8848L67.231 65.3292L67.9047 65.796L67.6375 66.0939L67.8535 66.323L67.5494 66.5979L67.4641 67.165L67.2367 67.3197L67.6261 67.9183L67.7427 68.6028L67.2225 69.4104L66.5944 69.863L66.4863 70.3298L66.1765 70.4759L66.1822 71.2062L66.0344 71.2635L65.9832 71.5155L65.6933 71.547L65.2101 72.1542L63.8116 71.9996L62.9248 72.3175L62.4359 72.1771L62.3308 72.0081L62.1489 72.3089L62.1915 72.4492L61.6287 72.4406L61.3331 72.5838L61.0034 72.3633L60.6253 72.5781L60.361 72.9962L60.506 73.0736L60.5429 73.3113L60.1933 73.7094L60.3184 74.3653L60.1734 75.024L60.0966 74.8751L59.9574 75.0813L60.0938 75.1242L59.7385 75.4078L59.1871 75.2989L58.9455 75.425L58.8687 75.2904L58.7039 75.4307L58.8289 75.5252L58.5589 75.6455L58.4054 75.9147L58.5305 76.1811L58.846 76.373L59.0023 76.8742L58.7295 76.9143L58.9284 77.8107L58.431 78.3979L58.6669 78.8762L58.5333 78.9707L58.6385 79.0996L58.4935 79.3946L58.6072 79.9817L58.5021 80.039L58.5646 80.6633L59.4344 80.8667L59.6561 81.1846L60.3525 81.5168L60.6083 82.2071L61.2023 82.5565L61.1426 83.009L59.4685 82.7598L57.8 83.2238L57.4248 84.3351L56.0946 85.2802L55.5573 85.5093L54.1219 85.7327L52.6212 85.369L51.8139 85.4062L51.1147 85.8358L50.4496 85.9676L50.2421 85.9418L49.7731 85.5695L49.1136 85.4062L48.0222 85.9361L47.2121 86.042L45.6829 86.6435L44.2361 86.9156L42.2663 86.4315L40.6376 86.4659L39.6115 86.1279L37.6616 85.7699L36.3172 85.7642L35.4986 86.2282L34.5549 85.7155L33.7761 86.3084L32.7557 86.3571L32.3009 86.5404L31.1241 86.2368L30.7148 86.4258L29.6347 86.3886L28.9099 86.549L28.2562 86.1279L26.636 85.7585L26.1357 85.1742L26.6758 84.6587L26.9742 83.3097L27.5228 83.2954L27.6365 83.4873L27.9861 83.4902L28.1766 83.6505L28.4239 83.1064L29.2453 82.5622L29.3704 82.1927L29.2368 81.3221L29.5665 80.6519L30.2345 80.4256L30.7603 79.6294L31.6244 79.1253L32.0195 78.6384L31.3146 77.9339L31.65 77.3467L31.4652 76.2126L31.6813 75.0755L31.3203 74.3968L31.3942 73.7867L31.2719 73.4975L31.7182 73.1509L31.5761 72.8616L31.5988 72.4463L31.3572 72.1714L30.9593 72.1399L30.4533 71.8077L30.7802 71.3695L30.5756 71.0172L29.7967 71.6158L29.4727 71.5556L29.342 70.9313L29.7029 70.0319L29.6603 69.419L28.8218 68.4424L27.6934 67.735L28.4153 67.2051L28.819 67.1908L29.0634 67.5517L29.3079 67.5603L29.7172 67.0505L29.1799 65.9793L29.7569 66.0538L30.1179 65.9564L30.4533 66.2628L30.5869 65.9564L31.2577 65.6499L31.5676 65.312L31.6471 64.7964L31.542 64.4184L30.7205 64.1549L30.3766 63.5878L30.4761 63.2756L30.7575 63.4446L31.1099 63.2155L31.0815 62.9033L30.911 62.7343L31.3828 61.9696L31.2094 61.5687L30.5528 61.4999L30.3425 61.0732L30.7603 60.7323L30.8427 59.5409L31.1753 59.2803L31.0446 58.6788L31.5079 58.3179L31.38 58.1232L31.6727 57.9685L31.7864 57.5819L32.5283 56.4449L33.0172 55.305L33.0001 55.0701L33.3213 54.5517L33.7733 54.5431L33.6851 54.2653L34.0461 53.7211L33.9381 53.4175L33.2105 52.902L32.3322 51.8079L32.0536 51.5903L31.0673 51.3697L30.9508 51.1664L30.7319 51.175L30.7035 50.8771L31.2293 50.459L31.5107 48.9697L32.0621 48.3023L32.2412 47.5892L32.8495 47.804L33.0627 48.0388L33.9097 47.9701L33.8301 47.6579L34.2081 47.6264L34.589 47.2741L34.643 46.4206Z" fill="currentColor"/>
<path d="M135.721 7.7787L136.577 7.63836L136.946 7.6985L137.097 7.93908L137.546 8.15962L137.719 8.55199L138.083 8.44029L138.66 8.50044L138.785 8.80976L139.601 9.47422L140.01 9.46563L140.349 9.29378L140.866 9.37684L141.25 8.71238L141.403 8.6551L142.205 9.19927L142.313 9.08184L142.185 8.82981L142.549 8.39161L143.171 8.48326L143.598 8.10234L143.87 8.35151L144.342 8.46321L144.496 8.33146L144.717 8.38301L145.073 7.97059L145.616 7.79302L145.962 8.58636L146.414 8.93578L146.423 9.2365L147.119 9.51718L147.668 9.14772L148.33 9.45703L148.472 10.1043L148.742 10.0929L148.97 10.4308L149.592 10.8117L149.729 11.648L150.001 12.0662L150.38 12.1779L150.34 11.5277L150.604 11.0552L151.073 10.8776L151.471 10.4967L151.943 10.4652L152.156 10.7172L152.159 11.058L152.494 11.4991L152.67 11.5134L152.895 11.3158L153.236 11.4189L153.543 12.0662L153.836 12.3784L153.947 12.238L154.274 12.2237L154.686 12.5703L155.416 12.407L155.629 12.4815L156.314 14.2314L156.8 14.8386L157.767 15.6491L157.738 16.4282L158.085 16.7776L157.798 18.1752L158.267 18.5619L159.975 19.1776L161.144 19.3839L161.198 19.7476L162.235 20.2288L162.545 20.5352L162.809 20.4464L163.17 20.0655L163.588 20.1342L163.807 20.3462L163.906 20.7328L163.648 21.2484L163.653 21.552L164.336 21.5949L166.459 22.3625L166.925 21.8785L167.946 21.9501L168.298 22.5601L168.596 22.709L168.653 23.1129L169.608 24.0551L169.782 24.0924L170.273 23.8461L170.66 23.8575L171.766 24.6509L171.939 24.6824L172.34 24.3816L173.241 24.2556L173.954 24.668L173.571 25.069L173.505 27.366L173.104 27.7068L173.352 28.377L172.601 28.8353L172.013 28.6978L171.311 29.0415L171.172 29.7804L170.93 29.9608L169.668 31.9657L169.864 32.3609L169.668 32.7046L169.546 33.9963L168.821 34.4144L168.451 34.9701L168.244 34.824L167.249 34.7753L166.777 34.5204L166.152 34.7753L164.694 34.8269L164.62 34.1423L164.327 33.7156L164.029 32.4755L163.702 32.2435L162.735 32.1203L161.857 33.0196L161.587 33.6411L161.024 33.8674L160.794 34.1223L160.879 35.6803L160.751 35.9152L158.998 35.8837L157.738 36.1758L156.732 36.1701L156.519 35.7691L155.476 35.6574L154.947 34.761L154.14 34.2054L152.605 33.6039L152.076 33.6698L151.855 33.8273L151.681 33.7013L151.502 33.7758L151.192 33.2001L150.701 33.1399L150.388 33.3633L150.283 34.002L150.479 36.8575L150.797 37.3386L150.74 37.8341L150.152 38.3325L149.598 38.51L149.436 39.2203L149.433 39.0055L149.154 38.9769L147.958 39.6385L147.267 39.7473L146.778 39.3549L146.46 38.8709L145.26 39.2432L144.618 38.8566L144.064 38.8738L144.092 38.596L143.879 38.3897L142.802 38.1062L142.432 37.4675L142.495 36.9549L142.242 36.4451L141.795 36.2217L141.446 35.772L141.4 35.3653L141.693 35.0302L141.52 34.8326L141.156 34.7381L141.136 33.9046L140.607 34.3142L140.255 34.3686V34.5863L140.084 34.6693L139.453 34.5548L139.291 33.7786L139.118 33.5208L139.027 34.5319L138.436 33.9848L137.955 34.108L137.825 34.2569L138.029 34.7524L137.938 34.8641L137.97 35.5515L137.694 35.8293L137.597 36.1701L136.722 36.1672L136.455 36.4078L136.17 36.2274L135.929 36.3276L135.514 36.7028L135.542 37.2269L134.977 37.4818L134.28 37.0637L133.916 36.6112L134.38 35.0159L134.226 34.5118L133.607 34.781L133.624 34.2626L133.243 34.2483L133.16 34.5175L132.401 34.0679L131.836 34.6693L131.381 34.2426L131.111 33.538L130.639 33.3948L130.378 33.1628L129.983 33.5524L129.124 33.4922L128.266 33.1399L126.989 33.0655L126.864 32.2578L126.418 31.9943L125.733 30.843L124.863 31.5017L124.716 31.4358L124.363 30.6883L123.866 30.3217L123.195 30.1413L121.549 30.6654L121.467 30.462L121.02 30.4678L120.804 30.23L121.33 29.8778L121.387 29.6343L120.557 29.9551L119.918 29.4739L119.568 29.4453L119.227 29.2305L119.073 29.3565L119.366 29.7317L119.332 30.1098L119.662 30.6024L119.608 30.6854L119.289 30.9117L119.076 30.8945L118.937 30.5079L118.781 30.4248L118.161 30.8974L117.891 30.3589L117.666 30.273L116.737 30.5881L116.603 30.7083L116.609 31.1437L116.265 31.4415L116.177 32.1232L116.276 32.3838L115.671 31.9198L115.401 31.8626L114.369 30.21L113.684 30.2616L113.326 30.4764L112.624 30.0954L112.55 29.7833L111.984 29.3021L111.655 28.6319L111.467 28.5116L110.771 29.1847L110.634 29.5742L111.615 30.8344L111.14 30.82L110.896 30.5508L110.361 30.3417L110.026 29.9522L109.131 29.3107L108.113 28.8868L107.658 29.4682L107.107 29.6114L106.681 29.8806L106.49 30.1642L106.135 30.2902L105.114 31.3585L105.183 31.6134L105.498 31.8511L105.527 32.1203L105.481 32.2778L105.08 32.527L105.069 33.7041L104.853 34.0307L104.861 34.3371L105.015 34.5118L104.947 34.9471L104.523 35.0646L104.017 34.6522L103.597 34.5175L102.804 33.6354L102.431 33.5208L101.993 33.581L101.368 32.991L100.933 33.7328L100.382 34.1137L97.8436 33.7414L97.4968 33.3032L95.996 33.1628L96.1182 32.8507L97.0506 32.6674L97.7015 32.0974L97.5821 31.98L97.0676 31.937L96.61 30.6253L96.7578 30.2386L96.3456 29.9637L96.0188 29.1761L94.9813 28.4286L95.0751 28.1765L95.6009 28.357L96.5304 27.9474L96.5275 27.0653L96.8345 26.2776L96.7834 25.4986L97.1955 24.3816L97.2353 23.743L96.8345 23.4966L96.4536 23.7344L95.7033 23.6026L95.3679 23.6714L95.0865 23.1186L95.0438 23.448L94.8761 23.5367L94.4043 22.7864L93.9211 22.8207L93.8358 22.4856L93.1906 22.7549L93.0087 22.689L93.2759 22.0274L93.1963 21.8727L93.3043 21.529L92.3862 20.1056L92.21 19.5185L92.318 19.2664L93.0797 18.6936L93.1451 17.9547L93.7505 17.6855L94.4213 17.7456L95.635 17.9031L96.3229 18.5103L96.2916 18.7853L96.6924 19.2664L97.2381 19.487L98.2102 20.2832L98.6935 20.2946L98.7276 19.0803L98.9464 18.5304L99.1767 18.3327L98.9976 17.6511L99.242 17.3389L99.3103 16.7776L99.9043 15.9241L100.009 14.9131L100.581 13.9794L100.729 13.9851L100.979 14.5035L101.428 14.0624L101.226 13.6328L101.303 13.4495L101.678 13.4238L101.965 12.7908L102.508 12.6218L102.823 12.2753L103.119 12.5817L103.457 12.3411L104.245 12.5158L104.398 12.3182L104.628 12.2896L105.058 12.3411L105.421 12.6419H105.654L105.859 12.3984L105.91 11.058L106.146 10.4967L105.666 10.5282L105.879 9.95252L106.263 9.85514L107.07 10.0929L107.414 9.65752L107.619 9.8981L107.633 10.3936L107.971 10.4537L108.528 10.2389L108.596 9.84655L108.747 9.70048L109.065 9.88664L109.196 10.1931L109.31 9.72053L109.088 9.65465L109.151 9.22791L109.622 9.48568L109.733 9.44271L109.614 9.32529L110.37 9.30238L111.064 9.77495L111.39 9.85514L111.538 10.3764L111.896 10.3936L112.723 10.7373L113.019 11.0208L113.539 11.1382L113.707 10.8375L114.008 10.8891L114.312 10.5826L114.386 10.1874L114.69 9.78354L114.804 9.18495L115.756 9.98689L116.211 9.8265L117.22 9.05893L117.729 9.13912L118.138 9.37111L118.559 9.27946L118.718 9.50859L118.644 9.87805L119.076 10.0843L118.792 10.4595L119.159 10.7974L119.142 11.4103L119.901 11.2471L119.974 11.4017L119.858 11.8227L120.358 11.7798L120.671 12.0146L120.56 12.2237L120.352 11.943L120.438 12.1636L120.296 12.6791L120.776 12.5187L121.188 13.1144L121.487 13.1288L122.029 12.533L122.319 12.5044L122.905 13.3894L122.612 13.7789L122.976 13.7875L123.124 13.5498L123.519 13.4553L123.687 13.7531L123.607 13.9937L123.763 14.3403L124.306 14.83L125.295 14.303L126.157 14.3259L126.327 14.0911L126.086 13.3951L126.66 13.1001L126.788 12.5416L126.978 12.4958L127.709 11.6996L127.873 11.6624L128.135 11.8313L128.453 11.6824L128.686 11.9488L128.868 11.7483L129.255 11.691L129.596 11.1955L128.544 10.2762L128.547 9.98116L128.075 9.81218L127.902 9.27374L128.03 9.06752L128.396 9.04461L129.366 8.66369L129.86 8.9501L130.059 8.43457L130.23 8.39733L131.04 8.79544L131.168 9.11048L131.407 9.17922L131.873 9.62888L131.91 9.94965L132.273 9.97256L132.532 9.83509L132.748 9.9382L133.308 9.26514L133.209 8.84699L133.504 8.31428L133.737 8.4317L134.476 7.81593L134.658 7.24312L134.886 7.21448L135.721 7.7787Z" fill="currentColor"/>
<path d="M11.014 34.6607L12.4779 34.9929L12.8872 35.308L13.4358 35.3223L13.6546 35.6746L14.297 36.1672L14.766 36.0354L14.928 36.4393L15.7751 37.0837L16.0252 37.4532L16.4572 37.2068L17.0683 37.4302L16.8438 38.4012L15.7552 38.9711L15.7182 39.2546L16.1929 39.6384L16.4999 39.4895L16.6619 39.5955L17.6823 38.7907L17.8329 39.1716L17.7761 39.3606L18.3616 39.6928L18.5379 39.5668L18.7226 39.836L19.0665 39.859L19.4218 40.5521L19.8198 40.6867L19.9335 41.0991L19.8368 41.5888L19.4076 41.7406L19.1262 42.577L19.3081 42.9063L19.2968 43.3846L19.5782 43.4304L19.834 44.4243L20.826 46.2372L21.0363 46.0024L21.3518 46.1398L21.4314 45.8133L21.7043 45.7016L22.0965 45.2262L22.6423 45.4725L23.9299 45.2147L24.0009 45.1632L23.7281 44.6878L23.8304 44.2753L24.0521 44.2667L24.0578 44.4558L24.2198 44.5818L24.7428 44.6219L24.7087 44.3699L25.2942 44.0004L25.425 44.0462L25.8428 43.6481L26.0617 43.6939L26.2891 43.3818L26.957 43.9087L27.5596 44.8338L28.816 45.4439L29.3276 45.358L29.4413 45.5183L29.6118 45.3837L29.9671 45.4124L30.0297 44.7565L30.4958 44.8023L30.6237 44.8396L30.5669 45.2778L30.7744 45.693L30.9051 45.7016L30.979 45.4353L30.9506 45.7131L31.0415 45.7217L31.195 45.421L31.5191 45.8649L31.6754 45.7761L32.6134 46.1255L33.6253 46.2L34.0829 46.6067L34.6429 46.4205L34.5889 47.274L34.208 47.6263L33.8299 47.6578L33.9095 47.97L33.0625 48.0387L32.8493 47.8039L32.241 47.5891L32.062 48.3022L31.5105 48.9695L31.2291 50.4588L30.7033 50.877L30.7317 51.1749L30.9506 51.1663L31.0671 51.3696L32.0534 51.5901L32.332 51.8078L33.2103 52.9019L33.9379 53.4174L34.046 53.721L33.685 54.2652L33.7731 54.543L33.3211 54.5516L33 55.07L33.017 55.3048L32.5281 56.4447L31.7863 57.5818L31.6726 57.9684L31.3798 58.1231L31.5077 58.3178L31.0444 58.6787L31.1751 59.2801L30.8426 59.5408L30.7601 60.7322L30.3423 61.073L30.5527 61.4998L31.2092 61.5685L31.3826 61.9695L30.9108 62.7342L31.0813 62.9032L31.1098 63.2154L30.7573 63.4445L30.4759 63.2755L30.3764 63.5877L30.7204 64.1548L31.5418 64.4183L31.647 64.7963L31.5674 65.3118L31.2576 65.6498L30.5868 65.9563L30.4532 66.2627L30.1178 65.9563L29.7568 66.0536L29.1798 65.9792L29.717 67.0503L29.3077 67.5601L29.0632 67.5515L28.8188 67.1907L28.4152 67.205L27.6932 67.7348L28.8216 68.4423L29.6601 69.4189L29.7028 70.0318L29.3418 70.9311L29.4725 71.5555L29.7966 71.6156L30.5754 71.017L30.78 71.3693L30.4532 71.8075L30.9591 72.1398L31.3571 72.1713L31.5987 72.4462L31.5759 72.8615L31.718 73.1508L31.2718 73.4973L31.394 73.7866L31.3201 74.3966L31.6811 75.0754L31.4651 76.2124L31.6498 77.3466L31.3144 77.9337L32.0193 78.6383L31.6242 79.1252L30.7601 79.6293L30.2343 80.4255L29.5663 80.6517L29.2366 81.3219L29.3702 82.1926L29.2452 82.5621L28.4237 83.1062L28.1764 83.6504L27.986 83.49L27.6364 83.4871L27.5227 83.2953L26.9741 83.3096L26.6756 84.6586L26.1356 85.1741L25.7717 84.7531L24.3051 83.7592L23.5149 82.7969L22.4774 83.1062L22.1761 82.9888L21.6531 82.0752L21.4968 81.4479L20.9454 80.7806L20.1808 80.7119L19.3309 80.1391L18.8903 79.9901L18.0092 78.0741L17.02 76.9342L16.5254 76.6105L15.1725 74.9895L14.8626 74.8807L13.2396 74.9208L12.7166 74.6974L12.5433 74.1274L12.873 73.778L12.8417 73.4773L13.1203 73.4658L13.558 72.8701L14.3254 72.4777L14.1322 72.1111L14.098 71.67L14.2487 71.6099L14.5386 71.9078L15.127 71.8218L15.2663 70.9483L15.6869 70.8624L15.667 70.6333L15.3487 70.4643L15.0389 70.8395H14.766L14.4477 70.5989L14.2203 70.1636L14.3169 69.7024L14.1748 69.5306L14.2288 69.3158L14.405 69.2843L14.7575 69.502L15.2208 69.2241L15.4055 69.2872L16.2242 68.6399L16.5453 68.7229L16.8609 68.173L16.551 67.9983L16.4203 67.5057L16.7869 67.1763L17.3412 67.3596L17.3156 68.0184L17.7875 68.0413L18.3304 68.4108L19.166 68.11L19.3877 67.606L19.7118 67.2737L20.2149 67.2537L20.3115 67.0131L20.7436 66.9673L20.8487 66.8011L20.8203 66.0651L20.4792 65.9076L20.4309 65.7014L20.7919 65.1801V64.8736L19.942 64.4698L19.5498 64.4326L19.3764 64.2493L19.6549 63.1781L20.6441 61.9237L20.2632 61.4855L19.942 61.7404L19.8113 61.6859L19.3081 61.2792L19.1461 60.9126L18.8306 60.8811L18.9983 60.42L18.6828 60.0964L19.0353 59.9389L19.4787 58.7932L19.3025 58.0973L18.7681 57.5875L18.2792 57.7794L18.1143 57.5674L17.7136 56.1497L17.3043 55.9664L17.3185 55.5855L16.8353 55.5168L16.9859 54.6375L16.0422 54.6289L15.5477 54.0876L14.749 54.0504L14.3226 53.5492L14.2743 53.3458L14.5813 52.9391L14.5898 52.7415L15.1327 52.5525L15.2947 52.1916L15.2691 51.8995L15.4993 51.7505L15.5619 51.5443L15.0105 51.2808L14.9906 50.877L14.3738 50.7796L14.2458 50.2125L13.2908 49.528L13.3846 49.2387L14.5045 48.4626L14.7148 47.7036L15.2975 47.6578L15.667 47.0678L16.1531 46.7728L16.2639 46.5265L16.2014 46.0253L15.8148 45.2548L15.3913 45.0744L14.9621 44.6906L13.0208 47.5833L12.3215 48.0273L12.1737 48.5456L11.4717 48.6717L10.727 49.0755L8.63212 49.5509L8.35925 49.4765L8.15744 49.0726L7.57191 49.4049L6.44917 48.7232L6.4179 48.9065L6.73909 49.2846V49.4621L6.31842 49.4278L6.23315 49.2703L5.26957 49.6712L4.33443 49.7772L4.27474 50.2698L3.4277 50.2641L3.50161 50.1323L3.34812 50.0264L3.32822 49.823L3.59256 49.6712L3.34527 49.3791L3.36233 48.9982L3.0923 48.5829L3.08946 48.4826L3.29411 48.4626L3.13209 48.3223L3.19747 47.9528L3.06104 47.1423L3.26285 46.9475L3.27706 46.3575L3.69773 46.0997L3.97629 45.3436L4.1781 45.2377L3.95355 45.083L4.27474 45.0229L4.10135 44.831L4.11841 44.0548L5.33211 42.8319L4.98533 42.4194L5.0365 42.1387L5.4458 41.7263L5.4856 41.2709L6.2701 40.1797L6.38663 39.6155L7.75951 38.6675L7.82204 38.1835L8.25693 37.7166L8.2683 36.9348L8.38768 36.6655L9.71223 35.9753L10.798 34.6979L10.9487 34.5776L11.014 34.6607Z" fill="currentColor"/>
<path d="M45.2735 13.9966L45.4952 14.1112L46.1887 13.9336L46.7941 13.9651L46.7742 14.5866L47.0102 14.9417L47.2745 15.0878L47.8657 16.2077L48.329 16.6802L48.3006 17.1757L48.744 17.6483L48.8179 17.9891L48.7213 18.2583L48.9174 18.539L48.9487 18.8798L49.466 19.2579L49.5541 19.9109L49.935 20.0741L50.9014 20.9992L51.4784 21.3229L51.8337 21.3801L51.8621 21.8498L52.7859 22.1678L52.8626 22.964L53.2719 23.3563L53.0303 23.8833L52.5329 24.207L52.2657 24.6165L53.2179 24.943L53.6642 25.6562L53.5619 25.9111L53.6557 26.1717L53.4425 26.5154L53.5846 26.8734L53.5391 27.6238L53.1952 27.8214L53.1014 28.1995L52.5528 28.8639L52.3595 29.0043L51.4415 29.1417L50.8048 29.557L50.7905 29.8664L50.4694 30.3819L50.1226 30.4191L49.5825 30.737L49.4035 30.7027V31.0292L49.8042 31.4702L51.288 31.6077L51.7086 31.2182L52.3283 31.0693L52.4164 30.6797L52.7489 30.1642L53.1412 30.0353L53.0844 30.3418L53.3203 30.6511L53.8205 30.6339L54.4288 30.3933L55.7249 30.8L56.4156 30.6396L57.0012 31.2239L57.0893 31.5017L56.8534 32.0173L56.6828 31.9628L56.68 32.2636L56.373 32.7791L56.8562 33.4693L56.4583 34.2799L56.6061 34.466L56.518 35.795L57.1831 36.1444L57.5156 36.5453L57.8056 36.5081L58.1182 36.7315L58.1665 37.0924L58.3456 37.0609L58.5901 37.353L58.9681 37.4131L58.9397 38.3697L59.8834 39.3693L60.0482 39.882L60.3296 39.965L60.3893 40.6553L60.3921 40.8901L60.2102 41.0304L59.8691 41.9069L59.4513 42.5684L59.0448 42.8463L58.556 42.683L58.212 42.9666L57.9022 44.3327L57.0893 44.9972L57.2286 45.6101L57.1774 45.9881L56.5748 45.7075L56.2678 45.7819L55.8415 45.6788L55.2673 45.381L54.7955 45.8678L54.2355 46.9848L53.8404 47.2512L53.6159 47.6378L53.6528 48.1276L53.5192 48.4598L53.1753 48.4971L52.8683 48.7691L51.7882 48.7806L50.9213 48.5457L50.4409 48.5658L50.2988 49.6112L49.7445 49.6398L48.9202 50.416L48.1073 50.7998L47.1864 51.742L46.6293 52.0628L46.5014 52.5096L46.112 52.1459L46.021 51.7735L45.9443 52.1287L45.6941 52.2805L44.7931 52.0055L44.6055 51.742L44.4548 50.9916L44.0143 50.5133L43.4458 49.5424L43.1132 49.2761L42.2207 49.2875L42.1184 49.1415L42.1269 48.8407L42.3657 48.5658L41.8995 48.1791L42.5874 47.5089L42.6755 46.9705L42.3486 46.4808L41.9393 45.3237L41.5783 45.1289L41.2685 45.2091L40.8137 44.9628L40.4101 45.1862L39.9383 44.7251L39.5489 43.4878L38.5398 42.5599L38.1248 42.7059L37.5763 42.388L36.1636 42.4195L35.8225 42.0042L35.4445 42.0415L35.038 42.4625L35.183 43.4592L35.4018 43.6625L35.6434 44.5217L35.8509 44.6879L35.8651 45.4153L35.7713 45.7476L35.4445 46.0426L35.2142 45.9967L35.0636 46.2688L34.6429 46.4206L34.083 46.6068L33.6253 46.2001L32.6134 46.1256L31.6755 45.7762L31.5191 45.865L31.1951 45.4211L31.0416 45.7218L30.9506 45.7132L30.9791 45.4354L30.9052 45.7017L30.7744 45.6931L30.5669 45.2778L30.6238 44.8396L30.4959 44.8024L30.0297 44.7566L29.9672 45.4125L29.6119 45.3838L29.4413 45.5184L29.3276 45.358L28.816 45.444L27.5597 44.8339L26.9571 43.9088L26.2891 43.3818L26.0617 43.694L25.8429 43.6482L25.425 44.0463L25.2943 44.0005L24.7087 44.3699L24.7429 44.622L24.2199 44.5819L24.0578 44.4559L24.0522 44.2668L23.8305 44.2754L23.7281 44.6879L24.001 45.1633L23.9299 45.2148L22.6423 45.4726L22.0966 45.2263L21.7043 45.7017L21.4315 45.8134L21.3519 46.1399L21.0364 46.0025L20.826 46.2373L19.834 44.4244L19.5782 43.4305L19.2968 43.3847L19.3082 42.9064L19.1263 42.577L19.4077 41.7407L19.8369 41.5889L19.9335 41.0992L19.8198 40.6868L19.4219 40.5522L19.0666 39.8591L18.7227 39.8361L18.5379 39.5669L18.3617 39.6929L17.7762 39.3607L17.833 39.1717L17.6824 38.7908L16.6619 39.5956L16.4999 39.4896L16.1929 39.6385L15.7183 39.2547L15.7552 38.9712L16.8438 38.4012L17.0684 37.4303L17.6767 36.8231L18.0064 36.8718L18.1997 36.3019L18.4697 36.3792L18.7653 35.9811L19.5413 36.2417L20.6555 37.3702L20.9369 37.4762L21.3519 37.2442L21.6532 37.3301L22.0909 36.9778L22.9521 36.9205L23.1938 36.2818L23.785 36.1902L23.9214 35.8236L24.2113 35.5687L25.2289 35.563L25.8144 35.2451L26.3687 35.3052L26.8178 34.7066L27.3749 34.2856L27.9917 33.2545L28.671 32.782L28.7677 32.3323L30.7517 32.1977L31.34 32.4125L31.8119 32.1691L32.2752 30.7513L32.3605 29.7088L32.6589 29.1016L32.693 28.3484L33.0654 27.9474L33.3667 27.7355L34.5946 27.7842L34.9925 27.5665L36.1039 27.7498L37.491 27.0653L38.3636 26.0371L38.338 25.6333L38.898 24.4218L38.7559 23.4251L38.8724 23.2475L39.0628 23.2303L38.7274 22.5172L38.9349 22.1305V21.721L39.4863 21.2484L39.3357 20.8618V20.0283L39.7933 19.4526L39.8985 18.8254L40.069 18.6593L40.0889 18.1065L39.7933 17.9605L39.8246 17.2559L40.9985 16.1103L40.99 15.3857L42.1497 15.0363L43.4287 14.9246L44.4634 14.5265L44.5316 14.3632L45.2735 13.9966Z" fill="currentColor"/>
<path d="M79.8653 0L80.1581 0.418152L79.9933 0.821985L80.232 1.16281L80.8687 1.51509L81.261 1.54086L81.4685 1.86164L81.8181 1.97047L81.801 3.57721L82.4747 4.94336L82.54 5.81404L82.9039 6.25797L82.9948 6.67039L83.4041 7.14869L83.4752 7.46087L83.9015 7.36063L84.362 7.80742L85.2233 7.34631L85.1295 8.0566L85.4705 8.3831L84.8992 9.64901L85.7946 9.66333L86.3943 9.93542L86.6018 9.90678L87.5569 10.6715L87.9264 10.4223L88.2874 9.78935L88.529 9.60605L89.0605 9.41129L89.7682 9.58887L89.8222 10.9923L90.152 11.5794L90.1093 12.1436L89.916 12.6219L90.0383 13.1374L90.314 13.4983L89.9104 14.6898L89.9786 14.8587L90.3737 14.9618L90.7375 15.7781L89.7995 16.285L89.7114 17.0068L89.0349 17.7228L89.1088 18.1696L88.8701 18.708L89.0974 19.0517L89.3902 19.1233L89.6318 19.3983L89.9445 19.3897L90.2372 19.0947L90.6068 19.4298L90.891 19.2808L91.2093 19.5157L92.2099 19.5186L92.3861 20.1057L93.3042 21.5291L93.1962 21.8728L93.2758 22.0275L93.0086 22.6891L93.1905 22.7549L93.8357 22.4857L93.921 22.8208L94.4042 22.7864L94.876 23.5368L95.0437 23.448L95.0864 23.1187L95.3678 23.6714L95.7032 23.6027L96.4536 23.7344L96.8344 23.4967L97.2352 23.743L97.1954 24.3817L96.7833 25.4987L96.8344 26.2777L96.5274 27.0653L96.5303 27.9475L95.6008 28.357L95.075 28.1766L94.9812 28.4286L96.0187 29.1762L96.3455 29.9638L96.7577 30.2387L96.6099 30.6254L97.0675 31.9371L97.582 31.9801L97.7014 32.0975L97.0505 32.6674L96.1182 32.8507L95.9959 33.1629L95.453 32.5958L94.7311 33.0054L92.4259 32.8994L91.0701 33.0885L90.7489 32.9624L90.5755 32.719L89.9047 32.6932L89.2509 33.1085L88.9042 33.12L88.3868 33.4379L87.9548 32.9223L86.5961 33.4236H85.732L84.8452 32.699L84.4245 32.5414L83.6429 31.9715L83.4183 31.6736L82.7816 31.433L82.3382 31.4187L81.9375 31.181L81.5083 31.4789L80.63 31.3614L79.5953 31.9199L79.1263 32.0402H77.2106L75.7695 33.7157L75.1782 35.0074L73.2113 35.3224L73.1516 35.1477L73.6092 34.7582L73.5893 34.1195L73.4103 33.6699L72.8304 33.4006L71.7873 33.6956L71.2273 34.2427L70.8265 34.0937L70.4485 34.3028L70.1358 34.1797L68.7374 34.4002L68.1376 34.2856L67.9415 34.3773L67.5663 34.3544L67.319 34.0995L67.1485 34.0909L66.6226 34.3257L66.3981 35.1477L66.0144 35.6375L65.6932 35.6718L65.4999 35.5544L65.3692 35.6948L65.6079 36.7545L65.3521 37.2184L65.389 37.6309L65.534 37.9029L66.2304 38.5101L66.0968 39.5498L65.6335 39.925L65.3862 40.3918L64.579 40.4978L63.8939 40.3116L63.4818 40.6267L63.1976 40.6095L62.8792 40.303L62.3562 40.2257L62.3761 39.8677L62.1743 39.8505L62.143 39.4209L61.9156 39.3665L61.3585 39.6615L60.9805 40.1827L60.5143 40.3975L60.3893 40.6553L60.3296 39.9651L60.0482 39.882L59.8833 39.3693L58.9397 38.3698L58.9681 37.4132L58.59 37.353L58.3456 37.0609L58.1665 37.0924L58.1182 36.7315L57.8055 36.5081L57.5156 36.5454L57.1831 36.1444L56.5179 35.795L56.6061 34.4661L56.4583 34.2799L56.8562 33.4694L56.373 32.7791L56.68 32.2636L56.6828 31.9629L56.8533 32.0173L57.0893 31.5018L57.0012 31.224L56.4156 30.6397L55.7249 30.8001L54.4288 30.3934L53.8205 30.634L53.3203 30.6511L53.0843 30.3418L53.1412 30.0354L52.7489 30.1643L52.4164 30.6798L52.3283 31.0693L51.7086 31.2182L51.2879 31.6077L49.8042 31.4703L49.4034 31.0292V30.7027L49.5825 30.7371L50.1226 30.4192L50.4693 30.3819L50.7905 29.8664L50.8047 29.5571L51.4414 29.1418L52.3595 29.0043L52.5528 28.864L53.1014 28.1995L53.1952 27.8215L53.5391 27.6238L53.5846 26.8735L53.4425 26.5154L53.6557 26.1718L53.5619 25.9111L53.6642 25.6562L53.2179 24.9431L52.2657 24.6166L52.5329 24.207L53.0303 23.8834L53.2719 23.3564L52.8626 22.964L52.7859 22.1678L51.8621 21.8499L51.8337 21.3802L51.4784 21.3229L50.9014 20.9993L49.935 20.0742L49.5541 19.9109L49.466 19.2579L48.9487 18.8799L48.9174 18.539L48.7213 18.2584L48.8179 17.9891L48.744 17.6483L48.3006 17.1758L48.329 16.6803L47.8657 16.2077L47.2745 15.0879L47.0101 14.9418L46.7742 14.5866L46.7941 13.9651L46.1887 13.9336L45.4951 14.1112L45.2734 13.9967L46.4758 13.6272L46.8595 13.2778L47.212 12.599L47.6269 12.3699L47.482 12.1178L47.9225 11.6596L47.9879 11.4247L47.661 10.1789L47.86 10.0156L48.3205 10.3564L48.6644 10.4252L48.96 10.3421L49.1647 9.97551L49.8099 9.62896L49.8412 9.17644L50.0288 8.79266L50.2874 8.63227L50.2903 8.36591L50.6228 8.31722L50.7166 8.00504L51.1742 7.75587L51.251 7.40359L51.4841 7.34345L51.9445 6.89665L51.5978 6.03457L51.6148 5.75676L51.9161 5.57919L51.9587 5.30996L52.6011 4.97773L53.4709 4.88322L53.6358 4.9806L53.6443 5.4503L54.1389 5.53622L54.5084 5.41021L54.7017 5.49899L54.9632 5.2355L56.0006 4.98633L56.3133 5.33001L56.9528 5.26414L57.8937 5.83695H58.3143L59.1614 5.01497L59.6559 4.90613L59.9061 4.62545L60.6906 4.39919L61.3216 4.53094L61.6996 4.41924L61.8872 4.59681L62.6262 4.67701L63.9309 4.45647L64.1441 4.72856L64.6159 4.96914L64.6301 5.21259L64.849 5.16103L64.8973 5.26414L64.5875 6.12336L64.7836 6.41263L64.65 6.57301L64.5306 7.46946L64.9286 7.60121L65.1304 8.26281L65.3748 8.56067L65.2611 9.01606L64.7893 9.45139L64.903 10.0013L65.1133 10.2591L65.679 10.0987L66.04 10.2676L66.796 10.239L67.1485 9.92396L67.0973 9.78362L67.3219 9.36833L67.8733 9.4428L67.9813 9.22799L68.4873 9.28814L69.0643 9.84949L69.4252 9.89818L69.7095 9.79794L69.9312 9.5144L70.3092 9.81226L71.0596 9.39125L71.5172 9.54018L71.7418 9.30819L71.5826 9.09911L71.6082 8.70674L71.4405 8.54635V8.32582L72.0005 7.62412L72.3984 7.72723L72.5974 7.43223L72.6826 7.02267L72.4211 6.55297L72.7992 5.95724L72.6656 5.72239L72.8901 5.52763L72.8788 4.78871L73.6462 4.08415L73.7258 3.8407L74.0669 3.84929L74.3568 3.68891L74.7775 3.78915L75.147 3.6259L75.3744 3.71468L75.4227 3.94381L76.6989 3.64881L76.8666 3.34236L76.8126 2.84974L77.0741 2.59484L77.023 2.16236L77.9098 1.83013L78.1287 1.51795L78.1628 1.07689L78.339 0.925091L79.1889 0.701694L79.1548 0.300726L79.2883 0.0458249L79.5498 0.12029L79.8653 0Z" fill="currentColor"/>
</svg>
