<svg width="204" height="45" viewBox="0 0 204 45" fill="none" color="black" xmlns="http://www.w3.org/2000/svg">
<path d="M6.8389 12.5311V33.7059H2.20333V12.5311H6.8389ZM15.1202 33.7059H10.7135V19.3986H14.8626L15.1488 20.8866C16.0358 19.6561 17.6669 18.9408 19.5268 18.9408C22.932 18.9408 24.9064 21.1155 24.9064 24.864V33.7059H20.4997V25.9227C20.4997 24.12 19.4982 22.9468 17.9816 22.9468C16.2361 22.9468 15.1202 24.0914 15.1202 25.8655V33.7059ZM27.4372 18.6832C27.4372 14.8489 30.6707 12.1305 35.2204 12.1305C39.7701 12.1305 42.6316 14.6486 42.6316 18.6546H38.0246C38.0246 17.1667 36.9087 16.251 35.1632 16.251C33.2746 16.251 32.0728 17.1094 32.0728 18.5116C32.0728 19.7992 32.7309 20.4287 34.2189 20.7435L37.3951 21.4016C41.1722 22.1742 42.975 23.977 42.975 27.3249C42.975 31.4168 39.7701 34.0779 34.9056 34.0779C30.1842 34.0779 27.1224 31.5312 27.1224 27.5538H31.7294C31.7294 29.099 32.874 29.9574 34.9342 29.9574C37.0231 29.9574 38.3394 29.1276 38.3394 27.7827C38.3394 26.6095 37.7957 26.0086 36.3936 25.7224L33.1601 25.0643C29.383 24.2917 27.4372 22.1456 27.4372 18.6832ZM51.2839 33.7059H46.8773V23.0613H44.1589V19.3986H46.8773V14.9633H51.2839V19.3986H54.0023V23.0613H51.2839V33.7059ZM60.3036 34.0779C57.2704 34.0779 55.3819 32.3038 55.3819 29.4996C55.3819 26.867 57.2418 25.236 60.6756 24.9785L64.6816 24.6637V24.4348C64.6816 23.0327 63.8232 22.2887 62.2494 22.2887C60.3894 22.2887 59.3879 23.0041 59.3879 24.2917H55.7252C55.7252 21.0583 58.3864 18.9408 62.4783 18.9408C66.6274 18.9408 68.9738 21.2586 68.9738 25.3505V33.7059H65.0822L64.7961 31.8174C64.3383 33.1336 62.4497 34.0779 60.3036 34.0779ZM61.8488 30.8159C63.537 30.8159 64.7102 29.986 64.7102 28.355V27.5824L62.4783 27.7827C60.5611 27.9544 59.8744 28.3836 59.8744 29.2993C59.8744 30.3294 60.5039 30.8159 61.8488 30.8159ZM77.7748 33.7059H73.3682V23.0613H70.6498V19.3986H73.3682V14.9633H77.7748V19.3986H80.4932V23.0613H77.7748V33.7059ZM88.9726 34.0779C84.6518 34.0779 81.5614 30.9303 81.5614 26.5237C81.5614 22.0598 84.5659 18.9408 88.8867 18.9408C93.3792 18.9408 96.1835 21.8881 96.1835 26.5523V27.6682L85.7963 27.7255C86.0539 29.614 87.1126 30.5011 89.0584 30.5011C90.7181 30.5011 91.8913 29.9002 92.206 28.8701H96.2407C95.7256 32.0463 92.8928 34.0779 88.9726 34.0779ZM88.9153 22.5176C87.1698 22.5176 86.1969 23.2902 85.8536 25.0071H91.8054C91.8054 23.4905 90.6894 22.5176 88.9153 22.5176Z" fill="#121212"/>
<path d="M145.21 20.7738L145.274 20.642L145.512 20.5323L145.705 20.2659L145.99 20.1152L146.106 20.143L146.122 20.3625L146.225 20.3713L146.215 20.5542L146.482 20.5938L146.645 20.7503L146.79 20.7591L147 20.5981L147.35 20.6933L147.763 20.6391L147.889 20.4006L148.126 20.2089L148.194 19.6776L147.838 19.3674L147.764 19.2283L147.746 19.0176L147.876 18.7805L147.754 18.239L147.821 18.1673L147.92 18.2273L148.084 18.2098L148.28 17.9595L148.395 17.5395L148.663 17.4195L148.751 17.4239L148.877 17.5541L149.069 17.5658L149.169 17.519L149.475 17.5776L150.19 17.4649L150.35 17.5278L150.543 17.421L150.748 17.4971L151.034 17.2175L151.567 17.0668L151.863 17.2044L151.955 17.4341L151.965 17.7605L151.731 17.9595L151.761 18.0488L152.766 17.8878L153.069 17.2278L153.805 16.3717H154.784L155.023 16.3102L155.552 16.0248L156.001 16.0848L156.22 15.9326L156.425 16.0541L156.652 16.0614L156.977 16.1843L157.092 16.3365L157.491 16.6278L157.706 16.7083L158.159 17.0785H158.601L159.295 16.8224L159.516 17.0858L159.78 16.9234L159.957 16.9175L160.291 16.7053L160.634 16.7185L160.723 16.8429L160.887 16.9073L161.58 16.8107L162.757 16.8648L163.126 16.6556L163.404 16.9453L164.171 17.017L164.348 17.241L165.645 17.4312L165.927 17.2366L166.149 16.8575L166.468 17.159L166.692 17.1283L166.882 17.1868L167.287 17.6376L167.502 17.7063L167.299 17.8L167.141 18.3766L166.497 18.9722L166.528 19.5093L166.399 19.6366L166.521 19.7332L166.609 20.1167L166.25 20.3508L166.232 20.4928L166.272 20.8016L166.396 20.8396L166.351 21.1323L166.42 21.3021L166.721 21.2596L167.359 21.8084L167.514 22.145L167.701 22.3192L167.916 22.8124L168.108 22.9704L167.96 23.2543L168.015 23.749L168.092 23.888L168.009 23.9744L168.015 24.09L168.306 24.2334L168.638 24.1617L168.734 24.3783L168.93 24.4105L168.843 24.8817L168.509 25.5447L168.51 25.8139L168.386 26.051L168.187 26.2252L168.108 26.651L168.245 26.8618L168.214 27.1442L168.288 27.2584L168.336 27.1881L168.448 27.254L168.531 27.2233L168.532 27.3901L168.612 27.4662L168.571 27.5511L169.097 27.5364L169.411 27.4355L169.552 27.3315L169.764 26.9862L169.941 26.932L170.035 27.2335L170.262 27.2306L170.515 27.0974L170.651 27.2072L170.654 27.3111L170.747 27.5145L170.615 27.6535L170.417 27.712L170.297 27.9843L169.922 28.3457L169.876 28.5506L169.954 28.7101L169.934 28.9443L169.709 29.2516L169.832 29.5267L169.813 29.616L169.475 29.9409L169.409 30.1165L169.158 30.4165L169.244 30.5439L169.118 30.7546L168.677 31.1834L168.618 31.3049L168.645 31.4644L168.599 31.4146L168.538 31.4541L168.496 31.8097L168.208 31.798L168.284 31.9927L167.876 32.0629L167.479 31.7512L167.174 31.6254L166.962 31.7L167.089 31.8332L166.98 32.0512L166.799 32.1142L166.585 32.082L166.653 32.3059L166.187 32.3717L166.081 32.2942L165.845 32.3161L165.697 32.2195L165.537 32.2576L165.507 32.3585L165.611 32.4961L165.504 32.922L165.029 33.2952L164.802 33.5952L164.656 33.5732L164.529 33.7049L164.499 33.7766L164.659 33.8557L164.651 33.9054L164.378 34.043L164.267 34.2347L164.19 34.2581L164.086 34.1089L163.93 34.043L163.516 34.1601L163.344 34.2493L163.289 34.3723L163.09 34.3079L162.917 34.5918L162.715 34.6269L162.49 35.0703L162.047 35.1567L161.911 35.246L161.957 34.9796L162.127 34.7323L161.903 34.302L161.725 34.3328L161.594 34.2157L161.307 34.1996L161.232 34.0064L161.048 34.3752H160.911L160.711 34.1981L160.493 34.3869L160.479 34.5333L160.29 34.5684L160.118 34.324L160.207 34.2464L160.233 34.1059L160.467 33.8791L160.362 33.6274L160.197 33.6654L160.082 33.4664L159.837 33.3376L159.767 33.1839L159.542 33.1254L159.379 33.1459L159.202 33.4357L158.919 33.4737L158.742 33.4035L158.508 33.1839L158.354 32.5751L158.198 32.5239L158.013 32.6015L157.753 32.3366L157.397 32.6147L157.299 32.7947L157.172 32.8488L156.954 33.0991L156.747 33.1576L156.456 33.3639L156.334 33.2952L156.113 33.443L156.143 33.7445L155.819 34.1513L155.895 34.6459L155.623 34.9196L155.671 35.3016L155.487 35.6616L155.545 35.846L155.394 35.9762L155.241 35.966L155.22 36.2294L155.125 36.247L155 36.0714L154.994 35.8387L154.819 35.8167L154.498 36.1387L154.139 36.2411L153.915 36.0348L153.732 36.0743L153.716 36.1504L153.494 36.0757L153.238 36.1416L153.08 36.064L152.626 36.127L152.357 36.2836L152.238 36.4489L151.885 36.547L151.805 36.8265L151.687 36.9202L151.478 36.8426L151.339 36.6992L151.179 36.6831L150.855 36.8016L150.02 36.4694L149.905 36.4797L149.799 36.6611L149.589 36.6772L149.308 36.4914L149.211 36.5075L149.163 36.6084L148.862 36.806L148.671 36.6084L148.48 36.6655L148.17 36.3845L148.167 36.0114L148.325 35.9367L148.38 35.6982L148.701 35.4669L148.967 35.0543L148.907 34.7045L148.708 34.3986L148.825 34.3196L148.868 34.0298L149.024 33.8893L148.913 33.7723L149.05 33.6201L148.706 33.3815L148.473 33.6654L148.281 33.7284L148.114 33.6654L148.069 33.7342L147.493 33.9318L147.352 33.8001L147.163 34.1132L147.024 33.882L146.89 33.8425L146.797 34.1045L146.912 34.4469L146.266 34.4103L145.77 34.2728L145.631 34.1293L145.291 34.0196L145.202 34.0708L145.22 34.2611L145.169 34.2976L144.916 34.2493L144.835 33.7957L144.983 33.5996L145.095 33.6244L145.337 33.3376L145.03 32.8634L145.04 32.7464L145.165 32.739L145.172 32.6776L144.966 32.4229L145.066 32.142L145.237 31.9971L145.487 31.9137L145.478 31.4483L145.641 31.0092L145.547 30.6858L145.356 30.6624L145.25 30.4824L145.223 30.1048L145.009 29.515L144.669 29.3321L144.592 29.3628L144.456 29.0379L144.158 28.7599L144.186 28.6004L144.011 28.4452L143.786 28.4526L143.561 28.7877L143.291 28.975L143.329 29.0599L143.213 29.2033L143.112 29.2165L143.133 29.4111L142.98 29.4682L142.992 29.7799L142.886 29.8897L142.584 30.0916L142.536 29.9687L142.269 29.9087L142.164 30.0419L141.766 30.2438L141.348 30.096L141.105 30.478L140.89 30.6741L140.816 30.86L140.741 30.8014L140.758 30.6741L140.626 30.5278L140.604 30.3653L140.449 30.1151L140.428 29.1726L140.473 28.9897L140.623 28.8579L140.633 28.6823L140.886 28.0604L140.767 27.9067L140.739 27.6023L140.527 27.5906L140.886 27.0447L140.706 27.0667L140.812 26.5193L140.704 26.3218L140.656 26.3613L140.494 26.2808L140.272 26.2793L140.138 26.3335L140.104 26.4901L139.933 26.4622L139.997 26.1549L140.213 25.9456L140.197 25.7993L140.083 25.6442L140.054 25.35L140.126 24.8158L140.372 24.8056L140.815 24.9256L141.367 24.9198L141.523 24.7807L141.699 24.7617L141.767 24.5919L141.749 24.3417L141.863 24.1441L142.065 24.008L142.351 23.4373L142.592 23.1885L142.886 23.3407L143.104 23.3934L143.261 23.3553L143.568 23.4987L143.595 23.3056L143.523 22.9924L143.939 22.6528L144.097 21.9548L144.273 21.8099L144.523 21.8933L144.73 21.7514L144.944 21.4133L145.118 20.9655L145.211 20.8938L145.21 20.7738Z" fill="#121212"/>
<path d="M116.103 25.6838L116.535 25.6868L116.566 25.4351L117.044 25.3809L117.536 25.176L117.58 25.2565L117.795 25.2741V25.1833L117.631 24.9902L117.647 24.8965L118.22 25.2448L118.519 25.075L118.623 25.2814L118.762 25.3194L119.832 25.0765L120.213 24.8702L120.572 24.8058L120.647 24.5409L121.004 24.314L121.996 22.8359L122.216 23.032L122.432 23.1242L122.63 23.5179L122.662 23.774L122.605 23.8999L122.357 24.0506L122.168 24.3521L121.87 24.3755L121.763 24.7633L121.19 25.1599L121.142 25.3077L121.63 25.6575L121.696 25.9473L122.011 25.997L122.021 26.2034L122.303 26.338L122.271 26.4434L122.153 26.5195L122.166 26.6688L122.084 26.8531L121.806 26.9497L121.802 27.0507L121.645 27.2585L121.67 27.3624L121.888 27.6185L122.296 27.6376L122.548 27.9142L123.031 27.9186L122.954 28.3678L123.201 28.403L123.193 28.5976L123.402 28.6913L123.607 29.4157L123.691 29.524L123.941 29.4259L124.214 29.6864L124.304 30.042L124.078 30.6274L123.898 30.7079L124.059 30.8733L123.973 31.1089L124.134 31.125L124.217 31.3123L124.474 31.5201L124.541 31.5479L124.705 31.4177L124.9 31.6416L124.394 32.2826L124.252 32.8299L124.341 32.9236L124.541 32.9426L124.975 33.149V33.3056L124.791 33.5719L124.816 33.6773L124.99 33.7578L125.004 34.1339L124.951 34.2188L124.73 34.2422L124.68 34.3651L124.423 34.3754L124.258 34.5451L124.145 34.8027L123.718 34.9564L123.44 34.7676L123.199 34.7559L123.212 34.4193L122.929 34.3256L122.742 34.4939L122.808 34.7456L122.967 34.8349L122.805 35.1159L122.641 35.0734L122.223 35.4042L122.129 35.372L121.892 35.5139L121.712 35.4027L121.622 35.4188L121.594 35.5286L121.667 35.6164L121.617 35.852L121.734 36.0744L121.896 36.1974H122.036L122.194 36.0057L122.357 36.092L122.367 36.2091L122.152 36.253L122.081 36.6993L121.78 36.7432L121.632 36.591L121.555 36.6218L121.572 36.8471L121.671 37.0345L121.279 37.235L121.055 37.5394L120.913 37.5452L120.929 37.6989L120.76 37.8774L120.691 37.6608L120.429 37.7984L120.047 37.7194L119.429 38.0179L119.118 37.6842L118.894 37.6769L118.678 37.4589L118.352 37.693L118.015 37.4442L118.284 37.1252L118.232 37.0023L118.002 36.9013L118.271 36.654L118.071 36.531L118.165 36.3554L118.081 36.2369L118.37 36.0393L118.3 35.9252L118.365 35.8549L118.117 35.691L118.053 35.6047L118.101 35.5008L117.989 35.4788L117.882 35.3398L117.975 35.2783L117.789 34.8378L117.538 34.9124L117.355 34.8861L116.845 34.3768L116.537 34.1675L116.544 33.7841L116.334 32.969L116.114 32.6455L116.267 32.0002L116.113 31.8567L115.756 31.8055L115.523 31.4426L115.587 31.3416L115.51 31.3796L115.314 30.9377L115.465 30.9113L115.384 30.8016L115.513 30.5455L114.952 30.2645L114.961 30.0172L114.642 30.0333L114.495 29.9176L114.472 29.4991L114.351 29.2518L114.387 29.1976L114.615 29.2005L114.618 29.0147L114.737 28.7776L114.644 28.7249L114.624 28.5391L114.801 28.3517L114.653 28.0649L114.611 27.6654L114.811 27.5512L114.756 27.44L114.817 27.2776L114.947 27.2234L115.025 27.0683L115.32 26.8195L115.243 26.6717L115.294 26.5634L115.442 26.5005L115.561 26.5795L115.65 26.5546L115.574 26.1726L115.712 26.1434L115.693 25.9926L115.847 25.8975L115.882 25.9634L116.043 25.9575L116.008 25.7965L116.103 25.6838Z" fill="#121212"/>
<path d="M167.501 17.7064L167.76 17.9171L167.976 17.8571L168.011 17.6347L167.933 17.5454L167.928 17.3888L168.039 17.222L168.045 16.6205L168.249 16.4932L168.273 16.4127L168.258 16.2751L168.097 16.1537L168.062 16.0234L168.583 15.4775L168.765 15.4131L168.862 15.2683L169.08 15.1307L169.362 15.0575L169.594 14.7604L170.114 14.977L170.572 15.3048L170.743 15.5039L171.016 15.6107L171.141 15.7483L171.384 15.7556L170.882 15.1117L170.952 14.9126L171.308 14.5687L171.404 14.6302L171.572 14.9726L171.861 15.2185L171.899 15.378L172.258 15.5727L172.441 15.4629L172.791 15.4366L173.318 16.281L173.456 16.3102L173.765 16.5473L173.715 16.4142L173.76 16.0659L173.935 15.9137L173.933 15.6912L174.001 15.6297L174.476 15.4688L174.59 15.5127L174.728 15.7878L175.045 15.5463L175.125 15.5888L175.196 15.7863L175.305 15.7951L175.468 15.6795L175.495 15.6371L175.327 15.3853L175.344 15.1922L175.195 15.0004L175.273 14.9361L175.447 15.0458L175.626 15.0604L175.953 15.3063L176.377 15.1424L176.348 15.2668L176.079 15.4468L176.19 15.5683L176.418 15.5653L176.46 15.6693L177.301 15.4014L177.643 15.4936L177.898 15.681L178.078 16.0629L178.153 16.0966L178.598 15.76L178.948 16.3483L179.176 16.4829L179.24 16.8956L179.892 16.9337L180.33 17.1137L180.769 17.1444L180.971 16.9454L181.104 17.0639L181.346 17.1371L181.484 17.4971L181.716 17.7152L182.005 17.4078L182.393 17.6376L182.435 17.5L182.629 17.5074L182.621 17.7723L182.937 17.6347L183.016 17.8923L182.779 18.7074L182.965 18.9386L183.321 19.1523L183.61 19.022L183.595 18.7542L183.807 18.5625L183.931 18.5113L184.076 18.6035L184.213 18.4806L184.66 18.482L184.709 18.3079L184.85 18.1659L184.834 17.8147L184.881 17.7576L184.776 17.5044L184.843 17.4283L185.088 17.3654L185.39 17.6449L185.437 17.1283L185.526 17.26L185.608 17.6566L185.931 17.7152L186.018 17.6727V17.5615L186.198 17.5337L186.468 17.3244L186.478 17.7503L186.664 17.7986L186.753 17.8996L186.603 18.0708L186.626 18.2786L186.805 18.5084L187.033 18.6225L187.162 18.883L187.13 19.145L187.319 19.4713L187.87 19.6162L187.979 19.7216L187.964 19.8635L188.247 19.8548L188.576 20.0523L189.188 19.8621L189.351 20.1094L189.601 20.3099L189.954 20.2543L190.565 19.9162L190.708 19.9309L190.709 20.0406L190.792 19.6777L191.075 19.5869L191.376 19.3323L191.405 19.0791L191.242 18.8333L191.142 17.3742L191.196 17.0478L191.355 16.9337L191.607 16.9644L191.765 17.2586L191.857 17.2205L191.945 17.2849L192.058 17.2044L192.329 17.1708L193.113 17.4781L193.525 17.762L193.795 18.2201L194.328 18.2771L194.437 18.482L194.952 18.485L195.595 18.3357L196.491 18.3518L196.556 18.2318L196.513 17.4357L196.631 17.3054L196.918 17.1898L197.056 16.8722L197.505 16.4127L197.999 16.4756L198.166 16.5942L198.318 17.2278L198.468 17.4459L198.506 17.7957L199.251 17.7693L199.57 17.6391L199.811 17.7693L200.32 17.7942L200.426 17.8688L200.291 18.5684L200.426 18.864L200.466 19.3938L200.344 19.5255L200.257 19.7757L199.859 20.1782L199.789 20.5587L200.064 20.7782L200.07 21.0811L199.91 21.2626L199.733 22.1319L199.169 22.3148L198.793 22.6924L198.365 23.0041L198.259 23.3759L198.041 23.5954L197.798 23.6027L197.582 23.8851H197.406L197.394 24.0286L197.297 24.0461L196.995 24.7281L196.885 26.0116L196.6 28.0194L196.633 28.5814L196.703 28.7541L196.848 28.7482L196.789 28.9312L196.494 29.038L196.571 29.2824H196.391L196.333 29.3483L196.202 29.3044L196.025 29.3922L195.949 29.2663L195.806 29.4814L195.763 29.2678L195.646 29.1463L195.595 29.2634L195.389 29.2429L195.329 29.357L194.896 29.0058L194.708 29.1961L194.291 29.3175L194.237 29.3863L194.209 29.3014L193.659 29.3322L193.431 29.5122L193.339 29.5034L193.408 29.6102L193.328 29.7288L193.188 29.698L193.047 29.5634L192.902 29.6512L192.863 29.5312L192.856 29.7053L192.777 29.6951L192.809 29.5707L192.729 29.5268L192.636 29.641L192.711 29.8005L192.638 29.8341L192.641 29.7214L192.584 29.7097L192.523 29.8517L192.404 29.8034L192.353 29.9088L192.278 29.8693L192.238 29.657L191.948 29.6556L191.891 29.7288L191.88 30.3376L191.719 30.4239L191.618 30.4283L191.639 30.3259L191.428 30.298L191.363 30.1985L190.85 30.2337L190.722 30.1034L190.223 30.0215L190.009 29.8868L190.04 29.6205L189.926 29.6249L189.839 29.5239L189.928 29.3673L189.861 29.24L189.546 29.0526L189.37 29.0907L189.229 28.9078L189.209 28.4307L189.165 28.4497L188.918 27.7341L188.801 27.677L188.703 27.494L188.74 27.4077L188.596 27.2116L188.639 27.0945L188.578 27.0623L188.602 26.6482L188.552 26.5194L188.477 26.5326L188.448 26.234L188.318 26.2867L188.134 26.1403L188.019 26.1974L187.922 26.3833L187.726 26.354L187.645 26.2033L187.533 26.2867L187.358 26.2882L187.322 26.1403L187.104 25.9457L186.936 25.5476L186.94 25.3003L186.811 25.2535L186.802 25.173H186.712L186.69 25.0515L186.499 25.0881L186.407 24.9388L186.307 24.9549L186.109 24.7471L185.922 24.7032L185.758 24.453L185.604 24.4764L185.505 24.6008L185.47 24.9974L185.386 25.0793L185.142 24.9666L184.805 25.0881L184.358 25.0457L183.944 25.1071L183.924 25.0281L183.854 25.1423L184.011 25.1906L183.826 25.2579L183.935 25.3691L183.868 25.5476L183.762 25.5315L183.849 25.7028L183.664 25.8257L183.685 25.9311L183.544 25.9516L183.158 25.8111L183.088 25.8652L182.657 25.5432L182.557 25.552L182.548 25.6633L182.368 25.5857L182.303 25.7145L182.181 25.6794L182.184 25.8257L181.976 25.9077L181.925 25.8623L181.909 25.9355L181.839 25.8886L181.725 26.0364L181.614 25.934L181.267 26.0862L180.991 26.6174L180.82 26.6628L180.65 26.6408L180.497 26.5091L180.484 26.2179L180.399 26.0657L180.123 25.975L179.961 25.8491L179.764 25.9545L179.762 25.8345L179.643 25.8725L179.475 25.8301L179.366 25.7247L179.309 25.7803L179.168 25.7101L178.84 25.8491L178.666 26.0599L178.554 25.9267L178.422 25.994L178.291 25.9384L178.272 25.6867L178.053 25.6413L178.031 25.4818L177.928 25.5711L177.829 25.2462L177.677 25.1101L177.086 25.2696L176.877 25.2564L176.654 24.9549L176.583 24.9681V24.6491L176.45 24.6857L176.551 24.5027L175.932 24.7149L174.865 24.8349L174.797 24.933L174.711 24.8393L174.466 24.8349L174.015 25.0515L173.607 25.0632L173.45 25.2506L173.394 25.1906L173.291 25.293L173.087 25.334L172.984 25.4745L172.762 25.473L172.583 25.5637L172.534 25.6676L171.943 25.4364L171.787 25.8228L171.62 25.7598L171.516 25.6106L171.346 25.672L171.235 25.8067L171.25 26.0247L171.369 26.1608L171.308 26.3145L171.327 26.7257L171.129 26.7682L170.964 27.1106L170.653 27.3111L170.65 27.2072L170.514 27.0975L170.261 27.2306L170.034 27.2336L169.94 26.9321L169.763 26.9862L169.551 27.3316L169.41 27.4355L169.096 27.5365L168.57 27.5511L168.611 27.4662L168.531 27.3901L168.53 27.2233L168.447 27.254L168.335 27.1882L168.287 27.2584L168.213 27.1443L168.243 26.8618L168.107 26.6511L168.185 26.2252L168.384 26.0511L168.509 25.814L168.508 25.5447L168.842 24.8818L168.929 24.4105L168.733 24.3783L168.637 24.1617L168.304 24.2334L168.014 24.09L167.995 24.0081L168.091 23.8881L168.014 23.749L167.959 23.2544L168.107 22.9705L167.915 22.8124L167.7 22.3192L167.513 22.1451L167.358 21.8085L166.72 21.2597L166.419 21.3021L166.35 21.1324L166.395 20.8397L166.271 20.8016L166.23 20.4928L166.249 20.3509L166.608 20.1167L166.519 19.7333L166.397 19.6367L166.527 19.5094L166.496 18.9723L167.14 18.3767L167.298 17.8001L167.501 17.7064Z" fill="#121212"/>
<path d="M132.053 23.7198L132.268 23.6422L132.345 23.5032L132.463 23.5266L132.63 23.3759L132.678 23.2061L132.67 22.8344L132.564 22.7495L132.441 22.3105L132.329 22.2066L132.255 21.6973L132.463 21.4822L132.656 21.4631L132.83 21.6753L133.552 21.6592L133.832 21.8217L134.044 21.747L134.56 22.2212L134.759 22.8534L135 23.089L135.206 22.9749L135.439 23.1007L135.597 23.0598L135.781 23.1593L135.991 23.7505L136.158 24.0008L136.113 24.2759L135.761 24.6184L135.999 24.8159L135.877 24.9564L135.873 25.1101L135.925 25.1847L136.381 25.1789L136.551 25.315L136.842 25.8111L137.067 26.0555L137.144 26.4389L137.24 26.5736L137.7 26.714L137.828 26.6365L137.867 26.455L137.913 26.6453L138.112 26.8311L138.178 26.6028L138.462 26.4389L138.933 25.9574L139.348 25.7613L139.77 25.3647L140.053 25.3501L140.082 25.6443L140.197 25.7994L140.213 25.9457L139.996 26.155L139.932 26.4623L140.104 26.4901L140.137 26.3335L140.271 26.2794L140.493 26.2809L140.656 26.3613L140.704 26.3218L140.811 26.5194L140.705 27.0667L140.885 27.0448L140.526 27.5907L140.738 27.6024L140.766 27.9068L140.885 28.0604L140.632 28.6824L140.622 28.858L140.473 28.9897L140.428 29.1727L140.448 30.1151L140.603 30.3654L140.625 30.5278L140.757 30.6742L140.74 30.8015L140.815 30.86L140.889 30.6742L141.104 30.4781L141.347 30.0961L141.765 30.2439L142.163 30.042L142.268 29.9088L142.535 29.9688L142.583 30.0917L142.885 29.8898L142.991 29.78L142.979 29.4683L143.132 29.4112L143.112 29.2166L143.212 29.2034L143.328 29.06L143.29 28.9751L143.56 28.7878L143.786 28.4526L144.011 28.4453L144.185 28.6005L144.157 28.76L144.455 29.038L144.592 29.3629L144.669 29.3322L145.008 29.5151L145.222 30.1049L145.25 30.4825L145.356 30.6625L145.546 30.6859L145.64 31.0093L145.478 31.4484L145.486 31.9137L145.236 31.9972L145.065 32.142L144.965 32.423L145.171 32.6777L145.164 32.7391L145.039 32.7464L145.029 32.8635L145.337 33.3377L145.094 33.6245L144.982 33.5996L144.834 33.7958L144.915 34.2494L145.168 34.2977L145.219 34.2611L145.202 34.0709L145.29 34.0197L145.63 34.1294L145.769 34.2728L146.265 34.4104L146.911 34.447L146.796 34.1045L146.889 33.8426L147.023 33.8821L147.162 34.1133L147.351 33.8001L147.492 33.9319L148.069 33.7343L148.114 33.6655L148.281 33.7284L148.472 33.6655L148.705 33.3816L149.049 33.6201L148.912 33.7723L149.023 33.8894L148.867 34.0299L148.824 34.3197L148.708 34.3987L148.907 34.7046L148.966 35.0543L148.7 35.467L148.379 35.6983L148.324 35.9368L148.166 36.0114L148.169 36.3846L148.093 36.4139L148.067 36.5427L147.919 36.5588L147.672 36.869L146.958 36.79L146.504 36.9524L146.255 36.8807L146.201 36.7944L146.108 36.9481L146.13 37.0198L145.842 37.0154L145.691 37.0885L145.523 36.9759L145.329 37.0856L145.194 37.2993L145.268 37.3388L145.287 37.4603L145.109 37.6637L145.173 37.9988L145.098 38.3354L145.059 38.2593L144.988 38.3647L145.058 38.3866L144.876 38.5315L144.594 38.4759L144.471 38.5403L144.432 38.4715L144.348 38.5432L144.411 38.5915L144.274 38.653L144.195 38.7906L144.259 38.9267L144.42 39.0247L144.5 39.2808L144.361 39.3013L144.462 39.7594L144.208 40.0594L144.329 40.3038L144.26 40.3521L144.314 40.4179L144.24 40.5687L144.298 40.8687L144.244 40.8979L144.276 41.217L144.721 41.3209L144.834 41.4833L145.19 41.6531L145.321 42.0058L145.624 42.1843L145.594 42.4156L144.738 42.2882L143.886 42.5253L143.694 43.0931L143.014 43.5761L142.74 43.6932L142.006 43.8073L141.239 43.6215L140.827 43.6405L140.47 43.86L140.13 43.9273L140.024 43.9141L139.784 43.7239L139.447 43.6405L138.889 43.9112L138.476 43.9654L137.694 44.2727L136.955 44.4117L135.948 44.1644L135.116 44.182L134.592 44.0093L133.596 43.8263L132.909 43.8234L132.49 44.0605L132.008 43.7985L131.61 44.1015L131.089 44.1264L130.856 44.22L130.255 44.0649L130.046 44.1615L129.494 44.1424L129.124 44.2244L128.79 44.0093L127.962 43.8205L127.706 43.5219L127.982 43.2585L128.135 42.5692L128.415 42.5619L128.473 42.66L128.652 42.6614L128.749 42.7434L128.875 42.4653L129.295 42.1873L129.359 41.9985L129.291 41.5536L129.459 41.2111L129.8 41.0955L130.069 40.6887L130.511 40.4311L130.713 40.1823L130.352 39.8223L130.524 39.5223L130.429 38.9428L130.54 38.3618L130.355 38.0149L130.393 37.7032L130.331 37.5554L130.559 37.3783L130.486 37.2305L130.498 37.0183L130.374 36.8778L130.171 36.8617L129.912 36.6919L130.079 36.468L129.975 36.288L129.577 36.5939L129.411 36.5632L129.344 36.2441L129.529 35.7846L129.507 35.4714L129.079 34.9724L128.502 34.6109L128.871 34.3402L129.077 34.3328L129.202 34.5172L129.327 34.5216L129.536 34.2611L129.262 33.7138L129.556 33.7518L129.741 33.7021L129.912 33.8587L129.981 33.7021L130.323 33.5455L130.482 33.3728L130.522 33.1094L130.469 32.9162L130.049 32.7816L129.873 32.4918L129.924 32.3323L130.068 32.4186L130.248 32.3016L130.233 32.142L130.146 32.0557L130.387 31.6649L130.299 31.4601L129.963 31.4249L129.856 31.2069L130.069 31.0327L130.111 30.4239L130.281 30.2908L130.214 29.9834L130.451 29.799L130.386 29.6995L130.535 29.6205L130.593 29.4229L130.972 28.8419L131.222 28.2595L131.214 28.1395L131.378 27.8746L131.609 27.8702L131.564 27.7282L131.748 27.4502L131.693 27.295L131.321 27.0316L130.872 26.4726L130.73 26.3613L130.226 26.2487L130.166 26.1448L130.055 26.1491L130.04 25.9969L130.309 25.7833L130.453 25.0223L130.734 24.6813L130.826 24.3169L131.137 24.4267L131.246 24.5467L131.678 24.5115L131.638 24.352L131.831 24.3359L132.025 24.1559L132.053 23.7198Z" fill="#121212"/>
<path d="M183.702 3.97483L184.139 3.90312L184.328 3.93385L184.405 4.05678L184.634 4.16947L184.723 4.36996L184.909 4.31289L185.204 4.34362L185.268 4.50167L185.685 4.8412L185.894 4.83681L186.066 4.749L186.331 4.79144L186.527 4.45192L186.605 4.42265L187.015 4.7007L187.07 4.6407L187.005 4.51192L187.191 4.28801L187.509 4.33484L187.727 4.1402L187.866 4.26752L188.107 4.32459L188.186 4.25727L188.299 4.28362L188.48 4.07288L188.758 3.98214L188.935 4.38752L189.166 4.56607L189.17 4.71973L189.526 4.86315L189.806 4.67436L190.145 4.83242L190.217 5.16316L190.355 5.15731L190.472 5.32999L190.79 5.52463L190.859 5.95197L190.999 6.16563L191.192 6.22271L191.172 5.8905L191.307 5.64903L191.546 5.55829L191.75 5.36365L191.991 5.34756L192.1 5.47634L192.101 5.65049L192.273 5.87587L192.363 5.88318L192.477 5.78221L192.652 5.83489L192.809 6.16563L192.958 6.32515L193.015 6.25344L193.182 6.24612L193.392 6.4232L193.766 6.33978L193.875 6.37784L194.225 7.27201L194.473 7.58227L194.967 7.99643L194.952 8.39449L195.129 8.57303L194.983 9.2872L195.222 9.48477L196.095 9.79942L196.692 9.90479L196.72 10.0906L197.25 10.3365L197.408 10.4931L197.543 10.4477L197.728 10.2531L197.941 10.2882L198.053 10.3965L198.104 10.5941L197.972 10.8575L197.975 11.0126L198.323 11.0346L199.408 11.4268L199.646 11.1795L200.168 11.216L200.348 11.5278L200.5 11.6039L200.529 11.8102L201.017 12.2917L201.106 12.3107L201.357 12.1849L201.555 12.1907L202.12 12.5961L202.208 12.6122L202.413 12.4585L202.874 12.3941L203.238 12.6049L203.042 12.8098L203.009 13.9835L202.804 14.1576L202.93 14.5001L202.547 14.7342L202.246 14.664L201.887 14.8396L201.816 15.2172L201.693 15.3094L201.048 16.3338L201.148 16.5357L201.048 16.7114L200.985 17.3714L200.615 17.585L200.426 17.869L200.32 17.7943L199.812 17.7694L199.571 17.6392L199.251 17.7694L198.506 17.7958L198.468 17.446L198.319 17.228L198.166 16.5943L197.999 16.4757L197.506 16.4128L197.057 16.8723L196.919 17.1899L196.631 17.3055L196.514 17.4358L196.557 18.2319L196.492 18.3519L195.596 18.3358L194.952 18.4851L194.438 18.4822L194.329 18.2773L193.796 18.2202L193.526 17.7621L193.114 17.4782L192.329 17.1709L192.059 17.2045L191.946 17.285L191.857 17.2206L191.766 17.2587L191.607 16.9645L191.356 16.9338L191.196 17.048L191.143 17.3743L191.243 18.8334L191.405 19.0792L191.376 19.3324L191.076 19.5871L190.793 19.6778L190.71 20.0407L190.708 19.931L190.566 19.9163L189.955 20.2544L189.602 20.31L189.352 20.1095L189.189 19.8622L188.576 20.0524L188.248 19.8549L187.965 19.8637L187.979 19.7217L187.87 19.6163L187.32 19.4715L187.131 19.1451L187.163 18.8831L187.034 18.6226L186.806 18.5085L186.627 18.2787L186.604 18.0709L186.753 17.8997L186.665 17.7987L186.479 17.7504L186.469 17.3246L186.199 17.5338L186.019 17.5616V17.6729L185.931 17.7153L185.609 17.6568L185.526 17.2602L185.438 17.1284L185.391 17.645L185.089 17.3655L184.844 17.4285L184.777 17.5046L184.881 17.7577L184.835 17.8148L184.851 18.166L184.71 18.308L184.661 18.4822L184.213 18.4807L184.077 18.6036L183.931 18.5114L183.808 18.5626L183.596 18.7544L183.61 19.0222L183.321 19.1524L182.966 18.9388L182.78 18.7075L183.016 17.8924L182.938 17.6348L182.621 17.7724L182.63 17.5075L182.436 17.5002L182.393 17.6377L182.006 17.408L181.717 17.7153L181.484 17.4972L181.346 17.1372L181.105 17.0641L180.971 16.9455L180.77 17.1445L180.331 17.1138L179.892 16.9338L179.24 16.8958L179.176 16.4831L178.948 16.3484L178.598 15.7601L178.154 16.0967L178.078 16.063L177.898 15.6811L177.644 15.4938L177.301 15.4016L176.46 15.6694L176.418 15.5655L176.19 15.5684L176.08 15.4469L176.349 15.2669L176.378 15.1425L175.953 15.3064L175.627 15.0606L175.448 15.0459L175.274 14.9362L175.195 15.0006L175.345 15.1923L175.327 15.3855L175.496 15.6372L175.468 15.6796L175.306 15.7952L175.197 15.7864L175.126 15.5889L175.046 15.5464L174.729 15.7879L174.591 15.5128L174.476 15.4689L174.001 15.6299L173.933 15.6913L173.936 15.9138L173.76 16.066L173.715 16.4143L173.766 16.5475L173.457 16.3104L173.319 16.2811L172.792 15.4367L172.442 15.463L172.259 15.5728L171.9 15.3781L171.862 15.2186L171.573 14.9728L171.405 14.6303L171.309 14.5688L170.953 14.9128L170.883 15.1118L171.384 15.7557L171.142 15.7484L171.017 15.6108L170.744 15.504L170.572 15.305L170.115 14.9772L169.595 14.7606L169.363 15.0576L169.081 15.1308L168.863 15.2684L168.766 15.4133L168.584 15.4777L168.063 16.0235L168.097 16.1538L168.259 16.2752L168.273 16.4128L168.25 16.4933L168.045 16.6206L168.039 17.2221L167.929 17.3889L167.933 17.5455L168.012 17.6348L167.977 17.8573L167.761 17.9173L167.502 17.7065L167.287 17.6377L166.882 17.187L166.692 17.1284L166.468 17.1592L166.148 16.8577L165.926 17.2367L165.644 17.4314L164.347 17.2411L164.17 17.0172L163.403 16.9455L163.466 16.786L163.942 16.6923L164.275 16.4011L164.214 16.3411L163.951 16.3192L163.717 15.6489L163.793 15.4513L163.582 15.3108L163.415 14.9084L162.885 14.5264L162.933 14.3976L163.201 14.4898L163.676 14.2805L163.675 13.8298L163.832 13.4273L163.806 13.0293L164.016 12.4585L164.037 12.1322L163.832 12.0063L163.637 12.1278L163.254 12.0605L163.082 12.0956L162.939 11.8131L162.917 11.9814L162.831 12.0268L162.59 11.6434L162.343 11.6609L162.3 11.4897L161.97 11.6273L161.877 11.5936L162.013 11.2556L161.973 11.1765L162.028 11.0009L161.559 10.2736L161.469 9.97357L161.524 9.84478L161.913 9.55209L161.947 9.17452L162.256 9.03695L162.599 9.06768L163.219 9.14817L163.57 9.45843L163.554 9.59892L163.759 9.84478L164.038 9.95747L164.535 10.3643L164.782 10.3702L164.799 9.74966L164.911 9.46867L165.029 9.36769L164.937 9.01939L165.062 8.85987L165.097 8.57303L165.4 8.13692L165.454 7.62032L165.746 7.14323L165.822 7.14615L165.949 7.41104L166.179 7.18567L166.076 6.96615L166.115 6.87249L166.307 6.85932L166.453 6.53589L166.731 6.44954L166.892 6.27247L167.043 6.42906L167.216 6.30613L167.618 6.3954L167.697 6.29442L167.814 6.27978L168.034 6.30613L168.219 6.45979H168.339L168.443 6.33539L168.469 5.65049L168.59 5.36365L168.344 5.37975L168.453 5.0856L168.649 5.03584L169.062 5.15731L169.238 4.93486L169.342 5.05779L169.349 5.31097L169.522 5.3417L169.807 5.23194L169.842 5.03145L169.919 4.95681L170.081 5.05194L170.148 5.20853L170.206 4.96706L170.093 4.9334L170.125 4.71534L170.366 4.84705L170.423 4.8251L170.362 4.7651L170.748 4.75339L171.102 4.99486L171.27 5.03584L171.345 5.30219L171.528 5.31097L171.951 5.48659L172.102 5.63147L172.368 5.69147L172.453 5.53781L172.607 5.56415L172.763 5.40756L172.8 5.2056L172.956 4.99925L173.014 4.69339L173.5 5.10316L173.733 5.0212L174.248 4.62899L174.508 4.66997L174.717 4.78851L174.932 4.74168L175.014 4.85876L174.976 5.04755L175.197 5.15291L175.052 5.34463L175.239 5.51732L175.23 5.8305L175.618 5.74708L175.656 5.82611L175.596 6.04124L175.852 6.01929L176.012 6.13929L175.955 6.24612L175.849 6.1027L175.892 6.21539L175.82 6.47881L176.065 6.39686L176.276 6.70126L176.428 6.70858L176.706 6.40418L176.854 6.38954L177.153 6.84175L177.004 7.04078L177.189 7.04517L177.265 6.92371L177.467 6.87541L177.553 7.02761L177.512 7.15054L177.592 7.32762L177.869 7.57788L178.375 7.3086L178.815 7.32031L178.902 7.2003L178.778 6.84468L179.072 6.69394L179.137 6.40857L179.234 6.38515L179.608 5.97831L179.692 5.95928L179.826 6.04563L179.988 5.96953L180.107 6.10563L180.2 6.00319L180.398 5.97392L180.572 5.72074L180.035 5.25097L180.036 5.10023L179.795 5.01389L179.706 4.73875L179.772 4.63339L179.959 4.62168L180.454 4.42704L180.707 4.57338L180.809 4.30996L180.896 4.29093L181.31 4.49436L181.375 4.65534L181.497 4.69046L181.735 4.92022L181.754 5.08413L181.94 5.09584L182.072 5.02559L182.183 5.07828L182.469 4.73436L182.418 4.5207L182.569 4.24849L182.688 4.3085L183.066 3.99385L183.159 3.70116L183.275 3.68652L183.702 3.97483Z" fill="#121212"/>
<path d="M119.979 17.7108L120.727 17.8805L120.936 18.0415L121.217 18.0488L121.329 18.2288L121.657 18.4806L121.896 18.4132L121.979 18.6196L122.412 18.9489L122.54 19.1377L122.761 19.0118L123.073 19.1259L122.958 19.6221L122.402 19.9133L122.383 20.0582L122.626 20.2543L122.782 20.1782L122.865 20.2323L123.387 19.8211L123.464 20.0157L123.435 20.1123L123.734 20.2821L123.824 20.2177L123.918 20.3553L124.094 20.367L124.276 20.7211L124.479 20.7899L124.537 21.0006L124.488 21.2509L124.268 21.3285L124.124 21.7558L124.217 21.9241L124.212 22.1685L124.355 22.1919L124.486 22.6997L124.993 23.6261L125.1 23.5061L125.262 23.5763L125.302 23.4095L125.442 23.3524L125.642 23.1095L125.921 23.2354L126.579 23.1036L126.615 23.0773L126.476 22.8344L126.528 22.6236L126.641 22.6192L126.644 22.7158L126.727 22.7802L126.994 22.8007L126.977 22.6719L127.276 22.4831L127.343 22.5065L127.556 22.3031L127.668 22.3265L127.784 22.167L128.126 22.4363L128.434 22.909L129.076 23.2207L129.337 23.1768L129.395 23.2588L129.482 23.19L129.664 23.2046L129.696 22.8695L129.934 22.8929L129.999 22.9119L129.97 23.1358L130.076 23.348L130.143 23.3524L130.181 23.2163L130.166 23.3583L130.213 23.3627L130.291 23.209L130.457 23.4359L130.537 23.3905L131.016 23.569L131.533 23.6071L131.767 23.8149L132.053 23.7198L132.025 24.1559L131.831 24.3359L131.638 24.352L131.678 24.5115L131.246 24.5466L131.137 24.4266L130.826 24.3169L130.734 24.6813L130.453 25.0222L130.309 25.7832L130.04 25.9969L130.055 26.1491L130.166 26.1447L130.226 26.2486L130.73 26.3613L130.872 26.4725L131.321 27.0316L131.693 27.295L131.748 27.4501L131.564 27.7282L131.609 27.8701L131.378 27.8745L131.214 28.1394L131.222 28.2594L130.972 28.8419L130.593 29.4229L130.535 29.6205L130.386 29.6995L130.451 29.799L130.214 29.9834L130.281 30.2907L130.111 30.4239L130.069 31.0327L129.856 31.2068L129.963 31.4249L130.299 31.46L130.387 31.6649L130.146 32.0557L130.233 32.142L130.248 32.3015L130.068 32.4186L129.924 32.3323L129.873 32.4918L130.049 32.7815L130.469 32.9162L130.522 33.1094L130.482 33.3728L130.323 33.5455L129.981 33.7021L129.912 33.8586L129.741 33.7021L129.556 33.7518L129.262 33.7138L129.536 34.2611L129.327 34.5216L129.202 34.5172L129.077 34.3328L128.871 34.3401L128.502 34.6109L129.079 34.9723L129.507 35.4714L129.529 35.7846L129.344 36.2441L129.411 36.5631L129.577 36.5939L129.975 36.288L130.079 36.468L129.912 36.6919L130.171 36.8617L130.374 36.8778L130.498 37.0183L130.486 37.2305L130.559 37.3783L130.331 37.5554L130.393 37.7032L130.355 38.0149L130.54 38.3617L130.429 38.9427L130.524 39.5223L130.352 39.8223L130.713 40.1823L130.511 40.4311L130.069 40.6886L129.8 41.0955L129.459 41.2111L129.291 41.5535L129.359 41.9984L129.295 42.1872L128.875 42.4653L128.749 42.7433L128.652 42.6614L128.473 42.6599L128.415 42.5619L128.135 42.5692L127.982 43.2585L127.706 43.5219L127.52 43.3068L126.771 42.799L126.367 42.3072L125.837 42.4653L125.683 42.4053L125.416 41.9384L125.336 41.6179L125.054 41.277L124.663 41.2418L124.229 40.9491L124.004 40.873L123.554 39.894L123.048 39.3115L122.796 39.1461L122.104 38.3178L121.946 38.2622L121.117 38.2827L120.849 38.1685L120.761 37.8773L120.929 37.6988L120.913 37.5451L121.056 37.5393L121.279 37.2349L121.671 37.0344L121.573 36.847L121.555 36.6217L121.632 36.5909L121.78 36.7431L122.081 36.6992L122.152 36.2529L122.367 36.209L122.357 36.0919L122.194 36.0055L122.036 36.1973H121.896L121.734 36.0743L121.618 35.8519L121.667 35.6163L121.594 35.5285L121.622 35.4187L121.712 35.4026L121.892 35.5138L122.129 35.3719L122.223 35.4041L122.642 35.0733L122.806 35.1158L122.967 34.8348L122.809 34.7455L122.742 34.4938L122.929 34.3255L123.212 34.4192L123.199 34.7557L123.44 34.7675L123.718 34.9562L124.145 34.8026L124.258 34.545L124.424 34.3752L124.681 34.365L124.73 34.2421L124.951 34.2187L125.005 34.1338L124.99 33.7577L124.816 33.6772L124.791 33.5718L124.976 33.3055V33.1489L124.541 32.9425L124.341 32.9235L124.252 32.8298L124.395 32.2825L124.9 31.6415L124.705 31.4176L124.541 31.5478L124.474 31.52L124.217 31.3122L124.135 31.1249L123.973 31.1088L124.059 30.8732L123.898 30.7078L124.078 30.6273L124.305 30.0419L124.215 29.6863L123.941 29.4258L123.692 29.5239L123.607 29.4156L123.403 28.6912L123.193 28.5975L123.201 28.4029L122.954 28.3677L123.031 27.9184L122.549 27.9141L122.296 27.6375L121.888 27.6184L121.67 27.3623L121.645 27.2584L121.802 27.0506L121.806 26.9496L122.084 26.853L122.167 26.6686L122.154 26.5194L122.271 26.4433L122.303 26.3379L122.021 26.2033L122.011 25.9969L121.696 25.9472L121.631 25.6574L121.143 25.3076L121.191 25.1598L121.763 24.7632L121.87 24.3754L122.168 24.352L122.357 24.0505L122.605 23.8998L122.662 23.7739L122.63 23.5178L122.432 23.1241L122.216 23.0319L121.997 22.8358L121.005 24.3139L120.647 24.5408L120.572 24.8057L120.213 24.87L119.833 25.0764L118.762 25.3193L118.623 25.2813L118.52 25.0749L118.22 25.2447L117.647 24.8964L117.631 24.99L117.795 25.1832V25.274L117.58 25.2564L117.536 25.1759L117.044 25.3808L116.566 25.4349L116.536 25.6867L116.103 25.6837L116.141 25.6164L116.062 25.5623L116.052 25.4584L116.187 25.3808L116.061 25.2315L116.069 25.0369L115.932 24.8247L115.93 24.7735L116.035 24.7632L115.952 24.6915L115.985 24.5027L115.916 24.0886L116.019 23.989L116.026 23.6876L116.241 23.5559L116.383 23.1695L116.486 23.1154L116.372 23.0363L116.536 23.0056L116.447 22.9075L116.456 22.5109L117.076 21.886L116.899 21.6753L116.925 21.5319L117.134 21.3211L117.154 21.0885L117.555 20.5309L117.615 20.2426L118.316 19.7582L118.348 19.5108L118.571 19.2723L118.576 18.8728L118.637 18.7352L119.314 18.3825L119.869 17.7298L119.946 17.6683L119.979 17.7108Z" fill="#121212"/>
<path d="M137.485 7.15195L137.599 7.21049L137.953 7.11975L138.262 7.13585L138.252 7.45342L138.373 7.63489L138.508 7.70953L138.81 8.28174L139.047 8.52321L139.032 8.77639L139.259 9.01786L139.296 9.19202L139.247 9.32958L139.347 9.473L139.363 9.64715L139.628 9.84033L139.673 10.174L139.867 10.2574L140.361 10.7301L140.656 10.8955L140.837 10.9248L140.852 11.1648L141.324 11.3272L141.363 11.7341L141.572 11.9345L141.449 12.2038L141.195 12.3692L141.058 12.5785L141.545 12.7453L141.773 13.1097L141.72 13.24L141.768 13.3731L141.659 13.5488L141.732 13.7317L141.709 14.1151L141.533 14.2161L141.485 14.4093L141.205 14.7488L141.106 14.8205L140.637 14.8907L140.312 15.103L140.304 15.261L140.14 15.5244L139.963 15.5435L139.687 15.7059L139.596 15.6883V15.8552L139.8 16.0805L140.559 16.1508L140.774 15.9518L141.09 15.8757L141.135 15.6766L141.305 15.4132L141.506 15.3473L141.476 15.5039L141.597 15.662L141.853 15.6532L142.163 15.5303L142.826 15.7381L143.179 15.6561L143.478 15.9547L143.523 16.0966L143.402 16.3601L143.315 16.3323L143.314 16.4859L143.157 16.7493L143.404 17.102L143.2 17.5162L143.276 17.6113L143.231 18.2904L143.571 18.4689L143.741 18.6738L143.889 18.6548L144.049 18.7689L144.073 18.9533L144.165 18.9372L144.29 19.0865L144.483 19.1172L144.468 19.606L144.951 20.1168L145.035 20.3787L145.179 20.4212L145.209 20.7739L145.211 20.8939L145.118 20.9656L144.943 21.4134L144.73 21.7515L144.522 21.8934L144.272 21.81L144.097 21.9549L143.938 22.653L143.523 22.9925L143.594 23.3057L143.568 23.4988L143.26 23.3554L143.103 23.3935L142.885 23.3408L142.592 23.1886L142.351 23.4374L142.065 24.0081L141.863 24.1442L141.748 24.3418L141.767 24.5921L141.699 24.7618L141.523 24.7808L141.366 24.9199L140.814 24.9257L140.371 24.8057L140.126 24.816L140.053 25.3501L139.77 25.3648L139.349 25.7614L138.933 25.9575L138.463 26.439L138.178 26.6029L138.113 26.8312L137.914 26.6453L137.867 26.455L137.828 26.6365L137.7 26.7141L137.24 26.5736L137.144 26.439L137.067 26.0555L136.842 25.8111L136.551 25.315L136.381 25.1789L135.925 25.1848L135.873 25.1101L135.877 24.9565L135.999 24.816L135.761 24.6184L136.113 24.2759L136.158 24.0008L135.991 23.7506L135.782 23.1593L135.597 23.0598L135.439 23.1008L135.206 22.9749L135 23.0891L134.759 22.8535L134.56 22.2212L134.045 21.7471L133.833 21.8217L133.552 21.6593L132.83 21.6754L132.656 21.4632L132.463 21.4822L132.255 21.6973L132.329 22.2066L132.441 22.3105L132.565 22.7496L132.671 22.8344L132.678 23.2062L132.63 23.3759L132.463 23.5267L132.345 23.5032L132.268 23.6423L132.053 23.7198L131.767 23.815L131.533 23.6071L131.016 23.5691L130.537 23.3906L130.457 23.4359L130.292 23.2091L130.213 23.3627L130.167 23.3584L130.181 23.2164L130.143 23.3525L130.077 23.3481L129.971 23.1359L130 22.912L129.934 22.893L129.696 22.8696L129.664 23.2047L129.483 23.1901L129.395 23.2588L129.337 23.1769L129.076 23.2208L128.434 22.9091L128.126 22.4364L127.785 22.1671L127.669 22.3266L127.557 22.3032L127.343 22.5066L127.276 22.4832L126.977 22.672L126.995 22.8008L126.727 22.7803L126.645 22.7159L126.642 22.6193L126.528 22.6237L126.476 22.8344L126.616 23.0774L126.579 23.1037L125.921 23.2354L125.642 23.1096L125.442 23.3525L125.303 23.4096L125.262 23.5764L125.101 23.5062L124.993 23.6262L124.486 22.6998L124.356 22.192L124.212 22.1686L124.218 21.9242L124.125 21.7559L124.269 21.3285L124.488 21.251L124.537 21.0007L124.479 20.79L124.276 20.7212L124.094 20.367L123.918 20.3553L123.824 20.2178L123.734 20.2822L123.435 20.1124L123.464 20.0158L123.387 19.8212L122.865 20.2324L122.783 20.1782L122.626 20.2543L122.383 20.0582L122.402 19.9134L122.958 19.6221L123.073 19.126L123.384 18.8158L123.552 18.8406L123.651 18.5494L123.789 18.5889L123.94 18.3855L124.337 18.5187L124.906 19.0953L125.05 19.1494L125.262 19.0309L125.416 19.0748L125.64 18.8948L126.08 18.8655L126.203 18.5392L126.505 18.4923L126.575 18.305L126.723 18.1748L127.243 18.1718L127.542 18.0094L127.825 18.0401L128.055 17.7343L128.34 17.5191L128.655 16.9923L129.002 16.7508L129.051 16.521L130.065 16.4523L130.366 16.562L130.607 16.4376L130.843 15.7132L130.887 15.1805L131.04 14.8703L131.057 14.4854L131.247 14.2805L131.401 14.1722L132.029 14.1971L132.232 14.0858L132.8 14.1795L133.509 13.8297L133.955 13.3044L133.941 13.098L134.228 12.479L134.155 11.9697L134.215 11.8789L134.312 11.8702L134.14 11.5058L134.246 11.3082V11.0989L134.528 10.8574L134.451 10.6599V10.234L134.685 9.93985L134.739 9.61935L134.826 9.53447L134.836 9.25202L134.685 9.17738L134.701 8.81737L135.301 8.23198L135.297 7.86173L135.889 7.68318L136.543 7.62611L137.071 7.42269L137.106 7.33927L137.485 7.15195Z" fill="#121212"/>
<path d="M155.16 0L155.31 0.213666L155.226 0.420014L155.348 0.594167L155.673 0.774173L155.874 0.787344L155.98 0.951252L156.158 1.00686L156.15 1.82787L156.494 2.52594L156.527 2.97083L156.713 3.19767L156.76 3.40841L156.969 3.65281L157.005 3.81233L157.223 3.7611L157.458 3.98941L157.898 3.75379L157.85 4.11673L158.025 4.28356L157.733 4.93041L158.19 4.93773L158.497 5.07676L158.603 5.06212L159.091 5.45287L159.279 5.32555L159.464 5.00212L159.587 4.90846L159.859 4.80895L160.221 4.89968L160.248 5.61678L160.417 5.91679L160.395 6.20509L160.296 6.44949L160.359 6.71291L160.499 6.89731L160.293 7.50611L160.328 7.59246L160.53 7.64514L160.716 8.06223L160.237 8.32126L160.192 8.69005L159.846 9.05592L159.884 9.28422L159.762 9.55935L159.878 9.73497L160.027 9.77155L160.151 9.91205L160.311 9.90766L160.46 9.75692L160.649 9.92814L160.794 9.85204L160.957 9.97205L161.468 9.97351L161.558 10.2735L162.027 11.0009L161.972 11.1765L162.013 11.2555L161.876 11.5936L161.969 11.6272L162.299 11.4897L162.343 11.6609L162.589 11.6433L162.831 12.0268L162.916 11.9814L162.938 11.8131L163.082 12.0955L163.253 12.0604L163.637 12.1277L163.831 12.0063L164.036 12.1321L164.016 12.4585L163.805 13.0292L163.831 13.4273L163.674 13.8297L163.676 14.2805L163.201 14.4898L162.932 14.3976L162.884 14.5264L163.414 14.9083L163.581 15.3108L163.792 15.4513L163.717 15.6488L163.95 16.3191L164.213 16.341L164.274 16.401L163.942 16.6923L163.465 16.7859L163.403 16.9455L163.125 16.6557L162.757 16.865L161.579 16.8108L160.886 16.9074L160.722 16.843L160.633 16.7186L160.29 16.7054L159.956 16.9177L159.779 16.9235L159.515 17.086L159.294 16.8225L158.6 17.0786H158.158L157.705 16.7084L157.49 16.6279L157.091 16.3367L156.976 16.1845L156.651 16.0615L156.424 16.0542L156.219 15.9327L156 16.0849L155.551 16.0249L155.023 16.3103L154.783 16.3718H153.804L153.068 17.2279L152.766 17.8879L151.76 18.0489L151.73 17.9596L151.964 17.7606L151.954 17.4343L151.862 17.2045L151.566 17.0669L151.033 17.2177L150.747 17.4972L150.542 17.4211L150.349 17.5279L150.189 17.465L149.474 17.5777L149.168 17.5191L149.068 17.566L148.876 17.5543L148.75 17.424L148.662 17.4196L148.394 17.5396L148.279 17.9596L148.083 18.2099L147.919 18.2275L147.82 18.1675L147.753 18.2392L147.875 18.7806L147.745 19.0177L147.763 19.2285L147.838 19.3675L148.193 19.6777L148.125 20.209L147.888 20.4007L147.762 20.6392L147.35 20.6934L146.999 20.5983L146.789 20.7592L146.644 20.7505L146.481 20.5939L146.214 20.5544L146.224 20.3714L146.121 20.3626L146.105 20.1431L145.989 20.1153L145.704 20.2661L145.511 20.5324L145.273 20.6422L145.209 20.7739L145.178 20.4212L145.034 20.3787L144.95 20.1168L144.468 19.606L144.482 19.1172L144.289 19.0865L144.164 18.9372L144.073 18.9533L144.048 18.7689L143.888 18.6548L143.74 18.6738L143.57 18.4689L143.231 18.2904L143.276 17.6113L143.2 17.5162L143.403 17.102L143.156 16.7494L143.313 16.4859L143.315 16.3323L143.402 16.3601L143.522 16.0966L143.477 15.9547L143.178 15.6561L142.825 15.7381L142.163 15.5303L141.852 15.6532L141.597 15.662L141.476 15.5039L141.505 15.3474L141.305 15.4132L141.135 15.6766L141.09 15.8757L140.773 15.9518L140.558 16.1508L139.8 16.0806L139.595 15.8552V15.6883L139.687 15.7059L139.963 15.5435L140.14 15.5244L140.304 15.261L140.311 15.103L140.637 14.8908L141.106 14.8205L141.204 14.7488L141.485 14.4093L141.533 14.2161L141.708 14.1151L141.732 13.7317L141.659 13.5488L141.768 13.3731L141.72 13.24L141.772 13.1097L141.544 12.7453L141.058 12.5785L141.194 12.3692L141.448 12.2038L141.572 11.9346L141.363 11.7341L141.324 11.3272L140.852 11.1648L140.837 10.9248L140.655 10.8955L140.361 10.7301L139.867 10.2574L139.672 10.174L139.627 9.84034L139.363 9.64716L139.347 9.47301L139.247 9.32959L139.296 9.19202L139.258 9.01787L139.032 8.7764L139.046 8.52322L138.809 8.28175L138.507 7.70953L138.372 7.6349L138.252 7.45343L138.262 7.13585L137.953 7.11976L137.598 7.21049L137.485 7.15195L138.099 6.96317L138.295 6.78462L138.475 6.43778L138.687 6.3207L138.613 6.19192L138.838 5.95777L138.872 5.83776L138.705 5.20115L138.807 5.11774L139.042 5.29189L139.218 5.32701L139.369 5.28457L139.473 5.09725L139.803 4.92017L139.819 4.68894L139.915 4.49284L140.047 4.41088L140.048 4.27478L140.218 4.2499L140.266 4.09038L140.5 3.96306L140.539 3.78306L140.658 3.75232L140.894 3.52402L140.716 3.08352L140.725 2.94156L140.879 2.85083L140.901 2.71326L141.229 2.5435L141.674 2.49521L141.758 2.54497L141.762 2.78497L142.015 2.82888L142.204 2.76449L142.302 2.80985L142.436 2.67521L142.966 2.54789L143.126 2.72351L143.453 2.68985L143.933 2.98254H144.148L144.581 2.56253L144.834 2.50692L144.962 2.3635L145.363 2.24788L145.685 2.3152L145.878 2.25813L145.974 2.34886L146.352 2.38984L147.018 2.27715L147.127 2.41618L147.368 2.53911L147.376 2.66351L147.488 2.63716L147.512 2.68985L147.354 3.12889L147.454 3.2767L147.386 3.35865L147.325 3.81672L147.528 3.88404L147.631 4.2221L147.756 4.3743L147.698 4.60699L147.457 4.82943L147.515 5.11042L147.623 5.24213L147.912 5.16018L148.096 5.24652L148.482 5.23189L148.662 5.07091L148.636 4.9992L148.751 4.78699L149.033 4.82504L149.088 4.71528L149.347 4.74602L149.641 5.03286L149.826 5.05773L149.971 5.00651L150.084 4.86163L150.278 5.01383L150.661 4.7987L150.895 4.8748L151.01 4.75626L150.928 4.64943L150.941 4.44893L150.856 4.36698V4.25429L151.142 3.89574L151.345 3.94843L151.447 3.79769L151.49 3.58842L151.357 3.34841L151.55 3.04401L151.482 2.924L151.596 2.82449L151.591 2.44691L151.983 2.0869L152.023 1.96251L152.198 1.9669L152.346 1.88494L152.561 1.93616L152.75 1.85275L152.866 1.89811L152.89 2.01519L153.543 1.86445L153.628 1.70786L153.601 1.45615L153.734 1.3259L153.708 1.10492L154.161 0.935154L154.273 0.775636L154.291 0.550263L154.381 0.472699L154.815 0.358549L154.797 0.153664L154.866 0.0234154L154.999 0.0614655L155.16 0Z" fill="#121212"/>
</svg>
